M48
INCH
T1C00.032
T2C00.037
T3C00.040
T4C00.042
T5C00.045
T6C00.055
T7C00.072
T8C00.125
%
T001
X01217Y04242
X01317Y04042
X01417Y02942
X01417Y03142
X01517Y04042
X01617Y02942
X01617Y03142
X01617Y04242
X01717Y03842
X01717Y03942
X01717Y04042
X01717Y04142
X01717Y04242
X01917Y01142
X02017Y03842
X02017Y03942
X02017Y04042
X02017Y04142
X02117Y01142
X02117Y04242
X02317Y01142
X02317Y01742
X02317Y02042
X02317Y02142
X02317Y02242
X02317Y02342
X02317Y02642
X02417Y01142
X02417Y01642
X02417Y01742
X02417Y02042
X02517Y01742
X02517Y02042
X02617Y01142
X02617Y01542
X02617Y01642
X02617Y01742
X02617Y02042
X02717Y01142
X02717Y01642
X02717Y02042
X02717Y02142
X02717Y02242
X02717Y02342
X02717Y02642
X02817Y01742
X02817Y02042
X02917Y01742
X02917Y02042
X02917Y02642
X02917Y02742
X03017Y01542
X03017Y01742
X03017Y02042
X03117Y01742
X03117Y02042
X03117Y03042
X03117Y03142
X03217Y01742
X03217Y02042
X03317Y01142
X03317Y01742
X03317Y02042
X03317Y02642
X03317Y02742
X03417Y01742
X03417Y02042
X03417Y02942
X03517Y01742
X03517Y02042
X03542Y02779
X03617Y01742
X03617Y02042
X03617Y02704
X03692Y02779
X03717Y01142
X03717Y01742
X03717Y02042
X03817Y02942
X03942Y01817
X04016Y01492
X04016Y02742
X04016Y03142
X04117Y01742
X04117Y01842
X04117Y02042
X04117Y02142
X04417Y01492
X04492Y03142
X04592Y01642
X04592Y01742
X04592Y01842
X04617Y01042
X05217Y02042
X05217Y02242
X05217Y03342
X05617Y02042
X05617Y02242
X05617Y03342
X05817Y01142
X05917Y01642
X05917Y02042
X05917Y02242
X05917Y02642
X06117Y02242
X06117Y02642
X06217Y01142
X06317Y01142
X06317Y01992
X06317Y02142
X06317Y02292
X06317Y02442
X06317Y03042
X06317Y03242
X06717Y01142
X06717Y01992
X06717Y02142
X06717Y02292
X06717Y02442
X06717Y03042
X06717Y03242
X06817Y03142
X06817Y03542
T002
X01317Y01342
X01317Y01442
X01317Y01742
X01317Y01842
X01317Y01942
X01317Y02042
X01317Y02142
X01317Y02442
X01317Y02542
X01417Y01342
X01417Y01442
X01417Y01742
X01417Y01842
X01417Y01942
X01417Y02042
X01417Y02142
X01417Y02442
X01417Y02542
X01517Y01342
X01517Y01442
X01517Y02442
X01517Y02542
X01617Y01342
X01617Y01442
X01617Y02442
X01617Y02542
X01717Y01342
X01717Y01442
X01717Y02442
X01717Y02542
X01817Y01342
X01817Y01442
X01817Y02442
X01817Y02542
X01917Y01342
X01917Y01442
X01917Y02442
X01917Y02542
X02017Y01342
X02017Y01442
X02017Y02442
X02017Y02542
X02117Y01342
X02117Y01442
X02117Y02442
X02117Y02542
X02217Y01342
X02217Y01442
X02217Y02442
X02217Y02542
X02317Y01342
X02317Y01442
X02317Y02442
X02317Y02542
X02417Y01342
X02417Y01442
X02417Y02442
X02417Y02542
X02517Y01342
X02517Y01442
X02517Y02442
X02517Y02542
X02617Y01342
X02617Y01442
X02617Y02442
X02617Y02542
X02717Y01342
X02717Y01442
X02717Y02442
X02717Y02542
X02817Y01342
X02817Y01442
X02817Y02442
X02817Y02542
X02917Y01342
X02917Y01442
X02917Y02442
X02917Y02542
X03017Y01342
X03017Y01442
X03017Y02442
X03017Y02542
X03117Y01342
X03117Y01442
X03117Y02442
X03117Y02542
X03217Y01342
X03217Y01442
X03217Y02442
X03217Y02542
X03317Y01342
X03317Y01442
X03317Y02442
X03317Y02542
X03417Y01342
X03417Y01442
X03417Y02442
X03417Y02542
X03517Y01342
X03517Y01442
X03517Y02442
X03517Y02542
X03617Y01342
X03617Y01442
X03617Y02442
X03617Y02542
X03717Y01342
X03717Y01442
X03717Y02442
X03717Y02542
T003
X01717Y02942
X01717Y03042
X01717Y03142
X02217Y03842
X02217Y03942
X02217Y04042
X02317Y04542
X02517Y03842
X02517Y03942
X02517Y04042
X03417Y03142
X03817Y03142
X04117Y01142
X04117Y01242
X04117Y01342
X04117Y02342
X04117Y02442
X04717Y04242
X04717Y04442
X04917Y03392
X05117Y04242
X05117Y04442
X05517Y03642
X05517Y03842
X05517Y04242
X05517Y04442
X05917Y03642
X05917Y03842
X05917Y04242
X05917Y04442
X06317Y04242
X06317Y04442
X06717Y04242
X06717Y04442
X06917Y03142
X06917Y03542
T004
X01717Y04442
X01717Y04642
X01817Y01742
X01817Y03504
X02117Y03504
X02117Y04542
X02217Y01642
X02217Y01842
X02317Y03504
X02517Y04542
X02717Y03504
X04317Y01142
X04317Y01342
X04317Y01642
X04317Y01842
X04317Y02342
X04317Y02542
X04317Y02842
X04317Y03042
X04517Y03742
X04517Y04042
X04517Y04642
X04717Y01242
X04717Y01742
X04717Y02442
X04717Y02942
X04717Y03392
X05117Y03742
X05117Y04042
X05117Y04642
X05317Y04042
X05317Y04642
X05917Y04042
X05917Y04642
X06117Y01842
X06117Y03242
X06117Y03842
X06117Y04042
X06117Y04642
X06317Y01442
X06317Y01642
X06317Y02642
X06317Y02842
X06317Y03442
X06317Y03642
X06517Y03842
X06717Y01542
X06717Y01842
X06717Y02742
X06717Y03542
X06717Y03842
X06717Y04042
X06717Y04642
X07017Y01842
X07017Y02142
X07017Y02742
T005
X03017Y03542
X03017Y04442
X03217Y03542
X03217Y04442
X03417Y03542
X03417Y04442
X03617Y03542
X03617Y04442
X03817Y03542
X03817Y04442
X04016Y03542
X04016Y04442
X04217Y03542
X04217Y04442
T006
X01229Y03304
X01229Y03704
X01479Y03504
X01629Y03504
X04817Y01492
X04817Y02742
X05917Y01492
X05917Y02742
X07067Y01542
X07067Y02942
X07067Y03142
X07067Y03354
X07067Y03542
X07067Y03742
T007
X04987Y01392
X04987Y01642
X04987Y02642
X04987Y02892
X05132Y01192
X05132Y01842
X05132Y02442
X05132Y03092
X05367Y01117
X05367Y01917
X05367Y02367
X05367Y03167
X05602Y01192
X05602Y01842
X05602Y02442
X05602Y03092
X05747Y01642
X05747Y02892
T008
X01204Y01117
X01204Y04667
X02017Y01742
X02517Y03042
X05367Y01517
X05367Y02767
X07117Y01117
X07117Y04667
M30
