%FSLAX23Y23*%
%MOIN*%
G04 EasyPC Gerber Version 14.0.2 Build 2922 *
%ADD72C,0.00100*%
%ADD25C,0.00500*%
%ADD28C,0.00787*%
%ADD26C,0.00800*%
%ADD29C,0.01000*%
%ADD27C,0.01200*%
X0Y0D02*
D02*
D25*
X6210Y1782D02*
X6207Y1779D01*
X6201Y1776*
X6191*
X6185Y1779*
X6182Y1782*
X6179Y1788*
Y1801*
X6182Y1807*
X6185Y1810*
X6191Y1813*
X6201*
X6207Y1810*
X6210Y1807*
X6254Y1776D02*
X6229D01*
X6251Y1798*
X6254Y1804*
X6251Y1810*
X6245Y1813*
X6235*
X6229Y1810*
X6304Y1776D02*
X6279D01*
X6301Y1798*
X6304Y1804*
X6301Y1810*
X6295Y1813*
X6285*
X6279Y1810*
D02*
D26*
X1029Y3704D02*
Y3304D01*
X1729*
Y3704*
X1029*
Y3804D02*
Y3204D01*
X1329*
Y3804*
X1029*
X1104Y1117D02*
G75*
G03X1204Y1016I100D01*
G01*
Y1117*
X1104*
G36*
G75*
G03X1204Y1016I100*
G01*
Y1117*
X1104*
G37*
Y4667D02*
G75*
G03X1204Y4566I100D01*
G01*
Y4667*
X1104*
G36*
G75*
G03X1204Y4566I100*
G01*
Y4667*
X1104*
G37*
X1117Y1391D02*
G75*
G03X1217I50D01*
G01*
G75*
G03X1117I-50*
G01*
Y2492D02*
G75*
G03X1217I50D01*
G01*
G75*
G03X1117I-50*
G01*
X1119Y3407D02*
X1059D01*
Y3437*
X1064Y3447*
X1069Y3452*
X1079Y3457*
X1099*
X1109Y3452*
X1114Y3447*
X1119Y3437*
Y3407*
X1109Y3537D02*
X1114Y3532D01*
X1119Y3522*
Y3507*
X1114Y3497*
X1109Y3492*
X1099Y3487*
X1079*
X1069Y3492*
X1064Y3497*
X1059Y3507*
Y3522*
X1064Y3532*
X1069Y3537*
X1204Y1126D02*
Y1163D01*
X1220Y1145*
X1235Y1163*
Y1126*
X1260Y1151D02*
X1273D01*
X1267Y1157D02*
Y1129D01*
X1270Y1126*
X1273*
X1276Y1129*
X1329Y1126D02*
X1304D01*
X1326Y1148*
X1329Y1154*
X1326Y1160*
X1320Y1163*
X1310*
X1304Y1160*
X1204Y1217D02*
G75*
G03Y1016J-100D01*
G01*
G75*
G03Y1217J100*
G01*
Y4676D02*
Y4713D01*
X1220Y4695*
X1235Y4713*
Y4676*
X1260Y4701D02*
X1273D01*
X1267Y4707D02*
Y4679D01*
X1270Y4676*
X1273*
X1276Y4679*
X1310Y4676D02*
X1323D01*
X1316D02*
Y4713D01*
X1310Y4707*
X1204Y4767D02*
G75*
G03Y4566J-100D01*
G01*
G75*
G03Y4767J100*
G01*
X1236Y3436D02*
X1206D01*
Y3453*
X1209Y3458*
X1214Y3460*
X1219Y3458*
X1221Y3453*
Y3436*
X1236Y3483D02*
Y3492D01*
Y3488D02*
X1206D01*
Y3483D02*
Y3492D01*
X1236Y3515D02*
X1206D01*
X1236Y3539*
X1206*
X1243Y1311D02*
Y1326D01*
Y1319D02*
X1199D01*
X1206Y1311*
X1236Y1829D02*
X1239Y1833D01*
X1243Y1840*
X1239Y1847*
X1236Y1851*
X1199*
Y1859*
Y1851D02*
Y1836D01*
X1243Y1907D02*
X1199D01*
Y1888D02*
Y1925D01*
X1243Y1947D02*
X1199Y1966D01*
X1243Y1984*
X1224Y1954D02*
Y1977D01*
Y2032D02*
Y2043D01*
X1228*
X1236Y2039*
X1239Y2036*
X1243Y2028*
Y2021*
X1239Y2014*
X1236Y2010*
X1228Y2006*
X1213*
X1206Y2010*
X1202Y2014*
X1199Y2021*
Y2028*
X1202Y2036*
X1206Y2039*
X1213Y2043*
X1251Y4010D02*
X1254Y4007D01*
X1257Y4001*
Y3992*
X1254Y3985*
X1251Y3982*
X1245Y3979*
X1232*
X1226Y3982*
X1223Y3985*
X1220Y3992*
Y4001*
X1223Y4007*
X1226Y4010*
X1257Y4035D02*
Y4048D01*
Y4042D02*
X1220D01*
X1226Y4035*
X1236Y3350D02*
Y3390D01*
X1255Y3370D02*
X1216D01*
X1236Y3538D02*
Y3577D01*
X1255Y3557D02*
X1216D01*
X1292Y1641D02*
Y2242D01*
X1142*
Y1641*
X1292*
X1304Y1117D02*
G75*
G03X1204Y1217I-100D01*
G01*
Y1117*
X1304*
G36*
G75*
G03X1204Y1217I-100*
G01*
Y1117*
X1304*
G37*
Y4667D02*
G75*
G03X1204Y4767I-100D01*
G01*
Y4667*
X1304*
G36*
G75*
G03X1204Y4767I-100*
G01*
Y4667*
X1304*
G37*
X1316Y4242D02*
X1267D01*
X1367Y4226D02*
Y4263D01*
X1388*
X1395Y4260*
X1398Y4254*
X1395Y4248*
X1388Y4245*
X1367*
X1388D02*
X1398Y4226D01*
X1423D02*
X1435D01*
X1429D02*
Y4263D01*
X1423Y4257*
Y2857D02*
X1420Y2854D01*
X1413Y2851*
X1404*
X1398Y2854*
X1395Y2857*
X1391Y2863*
Y2876*
X1395Y2882*
X1398Y2885*
X1404Y2888*
X1413*
X1420Y2885*
X1423Y2882*
X1445Y2854D02*
X1451Y2851D01*
X1457*
X1463Y2854*
X1466Y2860*
X1463Y2867*
X1457Y2870*
X1451*
X1457D02*
X1463Y2873D01*
X1466Y2879*
X1463Y2885*
X1457Y2888*
X1451*
X1445Y2885*
X1423Y3057D02*
X1420Y3054D01*
X1413Y3051*
X1404*
X1398Y3054*
X1395Y3057*
X1391Y3063*
Y3076*
X1395Y3082*
X1398Y3085*
X1404Y3088*
X1413*
X1420Y3085*
X1423Y3082*
X1466Y3051D02*
X1441D01*
X1463Y3073*
X1466Y3079*
X1463Y3085*
X1457Y3088*
X1448*
X1441Y3085*
X1391Y3967D02*
Y4117D01*
Y4042D02*
X1367D01*
X1441Y3967D02*
Y4117D01*
X1466Y1691D02*
Y2192D01*
X1267*
Y1691*
X1466*
Y1791D02*
Y1691D01*
X1367*
Y1791*
X1466*
Y2942D02*
X1492D01*
X1466Y4042D02*
X1441D01*
X1492Y3017D02*
Y2867D01*
Y3067D02*
Y3217D01*
Y3142D02*
X1466D01*
X1492Y3613D02*
Y3651D01*
X1513*
X1520Y3648*
X1523Y3642*
X1520Y3635*
X1513Y3632*
X1492*
X1542Y3651D02*
Y3613D01*
X1573*
X1598D02*
X1610D01*
X1604D02*
Y3651D01*
X1598Y3645*
X1479Y3363D02*
X1484Y3365D01*
X1486Y3370*
Y3380*
X1484Y3385*
X1479Y3387*
X1474Y3385*
X1471Y3380*
Y3370*
X1469Y3365*
X1464Y3363*
X1459Y3365*
X1456Y3370*
Y3380*
X1459Y3385*
X1464Y3387*
X1456Y3402D02*
X1486Y3405D01*
X1471Y3414*
X1486Y3424*
X1456Y3427*
X1516Y4292D02*
Y4191D01*
X1316*
Y4292*
X1516*
X1542Y2017D02*
X1516D01*
Y1866*
X1542*
Y2017*
Y2342D02*
X1192D01*
Y1542*
X1542*
Y2342*
Y2942D02*
X1566D01*
X1542Y3017D02*
Y2867D01*
Y3067D02*
Y3217D01*
X1566Y2298D02*
Y2336D01*
X1588*
X1595Y2333*
X1598Y2327*
X1595Y2320*
X1588Y2317*
X1566*
X1616Y2336D02*
Y2298D01*
X1648*
X1691D02*
X1666D01*
X1688Y2320*
X1691Y2327*
X1688Y2333*
X1682Y2336*
X1673*
X1666Y2333*
X1588Y2257D02*
X1595Y2254D01*
X1598Y2248*
X1595Y2242*
X1588Y2238*
X1566*
Y2276*
X1588*
X1595Y2273*
X1598Y2267*
X1595Y2260*
X1588Y2257*
X1566*
X1616Y2263D02*
Y2248D01*
X1620Y2242*
X1626Y2238*
X1632*
X1638Y2242*
X1641Y2248*
Y2263D02*
Y2238D01*
X1673Y2263D02*
X1685D01*
X1679Y2270D02*
Y2242D01*
X1682Y2238*
X1685*
X1688Y2242*
X1723Y2263D02*
X1735D01*
X1729Y2270D02*
Y2242D01*
X1732Y2238*
X1735*
X1738Y2242*
X1766Y2248D02*
X1770Y2242D01*
X1776Y2238*
X1782*
X1788Y2242*
X1791Y2248*
Y2254*
X1788Y2260*
X1782Y2263*
X1776*
X1770Y2260*
X1766Y2254*
Y2248*
X1816Y2238D02*
Y2263D01*
Y2254D02*
X1820Y2260D01*
X1826Y2263*
X1832*
X1838Y2260*
X1841Y2254*
Y2238*
X1866D02*
Y2276D01*
X1888*
X1895Y2273*
X1898Y2267*
X1895Y2260*
X1888Y2257*
X1866*
X1916Y2260D02*
X1923Y2263D01*
X1932*
X1938Y2260*
X1941Y2254*
Y2245*
X1938Y2242*
X1932Y2238*
X1926*
X1920Y2242*
X1916Y2245*
Y2248*
X1920Y2251*
X1926Y2254*
X1932*
X1938Y2251*
X1941Y2248*
Y2245D02*
Y2238D01*
X1991Y2254D02*
X1988Y2260D01*
X1982Y2263*
X1976*
X1970Y2260*
X1966Y2254*
Y2248*
X1970Y2242*
X1976Y2238*
X1982*
X1988Y2242*
X1991Y2248*
Y2238D02*
Y2276D01*
X1566Y3142D02*
X1542D01*
X1566Y4242D02*
X1516D01*
X1557Y4404D02*
X1520D01*
Y4426*
X1523Y4432*
X1529Y4435*
X1535Y4432*
X1538Y4426*
Y4404*
Y4426D02*
X1557Y4435D01*
Y4479D02*
Y4454D01*
X1535Y4476*
X1529Y4479*
X1523Y4476*
X1520Y4470*
Y4460*
X1523Y4454*
X1608Y4404D02*
X1614Y4407D01*
X1617Y4413*
Y4426*
X1614Y4432*
X1608Y4435*
X1602Y4432*
X1598Y4426*
Y4413*
X1595Y4407*
X1589Y4404*
X1583Y4407*
X1580Y4413*
Y4426*
X1583Y4432*
X1589Y4435*
X1617Y4470D02*
X1598D01*
X1580Y4454*
X1598Y4470D02*
X1580Y4485D01*
X1617Y4504D02*
X1580D01*
X1598Y4520*
X1580Y4535*
X1617*
X1616Y1704D02*
X1601D01*
X1594Y1708*
X1590Y1711*
X1586Y1719*
Y1726*
X1590Y1734*
X1594Y1737*
X1601Y1741*
X1616*
X1623Y1737*
X1627Y1734*
X1630Y1726*
Y1719*
X1627Y1711*
X1623Y1708*
X1616Y1704*
X1630Y1763D02*
X1586D01*
X1608D02*
Y1800D01*
X1630D02*
X1586D01*
X1616Y1822D02*
X1601D01*
X1594Y1826*
X1590Y1829*
X1586Y1837*
Y1844*
X1590Y1852*
X1594Y1855*
X1601Y1859*
X1616*
X1623Y1855*
X1627Y1852*
X1630Y1844*
Y1837*
X1627Y1829*
X1623Y1826*
X1616Y1822*
X1612Y1966D02*
Y1977D01*
X1616*
X1623Y1973*
X1627Y1970*
X1630Y1962*
Y1955*
X1627Y1948*
X1623Y1944*
X1616Y1940*
X1601*
X1594Y1944*
X1590Y1948*
X1586Y1955*
Y1962*
X1590Y1970*
X1594Y1973*
X1601Y1977*
X1616Y1999D02*
X1601D01*
X1594Y2003*
X1590Y2007*
X1586Y2014*
Y2021*
X1590Y2029*
X1594Y2032*
X1601Y2036*
X1616*
X1623Y2032*
X1627Y2029*
X1630Y2021*
Y2014*
X1627Y2007*
X1623Y2003*
X1616Y1999*
X1630Y2058D02*
X1586D01*
Y2080*
X1590Y2088*
X1594Y2092*
X1601Y2095*
X1616*
X1623Y2092*
X1627Y2088*
X1630Y2080*
Y2058*
Y2128D02*
Y2143D01*
Y2136D02*
X1586D01*
Y2128D02*
Y2143D01*
Y2176D02*
X1630D01*
Y2213*
X1624Y3341D02*
Y3348D01*
X1626*
X1631Y3346*
X1634Y3343*
X1636Y3338*
Y3333*
X1634Y3328*
X1631Y3326*
X1626Y3323*
X1616*
X1611Y3326*
X1609Y3328*
X1606Y3333*
Y3338*
X1609Y3343*
X1611Y3346*
X1616Y3348*
X1636Y3363D02*
X1606D01*
X1636Y3387*
X1606*
X1636Y3402D02*
X1606D01*
Y3417*
X1609Y3422*
X1611Y3424*
X1616Y3427*
X1626*
X1631Y3424*
X1634Y3422*
X1636Y3417*
Y3402*
X1716Y4602D02*
Y4482D01*
X1754Y3301D02*
Y3273D01*
X1757Y3267*
X1763Y3263*
X1776*
X1782Y3267*
X1785Y3273*
Y3301*
X1810Y3263D02*
X1823D01*
X1816D02*
Y3301D01*
X1810Y3295*
X1766Y4242D02*
X1816D01*
X1777Y3242D02*
Y2842D01*
X1816Y1702D02*
G75*
G03X1977Y1542I160D01*
G01*
X2217*
Y1602*
X1816Y1782D02*
G75*
G02X1977Y1941I160D01*
G01*
X2217*
Y1881*
X1816Y4191D02*
Y4292D01*
X2017*
Y4191*
X1816*
X1827Y3242D02*
X1657D01*
Y2842*
X1827*
Y3242*
X1829Y4013D02*
Y3985D01*
X1832Y3979*
X1838Y3976*
X1851*
X1857Y3979*
X1860Y3985*
Y4013*
X1904Y3976D02*
X1879D01*
X1901Y3998*
X1904Y4004*
X1901Y4010*
X1895Y4013*
X1885*
X1879Y4010*
X1866Y4226D02*
Y4263D01*
X1888*
X1895Y4260*
X1898Y4254*
X1895Y4248*
X1888Y4245*
X1866*
X1888D02*
X1898Y4226D01*
X1920Y4229D02*
X1926Y4226D01*
X1932*
X1938Y4229*
X1941Y4235*
X1938Y4242*
X1932Y4245*
X1926*
X1932D02*
X1938Y4248D01*
X1941Y4254*
X1938Y4260*
X1932Y4263*
X1926*
X1920Y4260*
X1923Y1057D02*
X1920Y1054D01*
X1913Y1051*
X1904*
X1898Y1054*
X1895Y1057*
X1891Y1063*
Y1076*
X1895Y1082*
X1898Y1085*
X1904Y1088*
X1913*
X1920Y1085*
X1923Y1082*
X1957Y1051D02*
Y1088D01*
X1941Y1063*
X1966*
X1929Y2036D02*
Y2073D01*
X1951*
X1957Y2070*
X1960Y2064*
X1957Y2058*
X1951Y2055*
X1929*
X1951D02*
X1960Y2036D01*
X1995D02*
Y2073D01*
X1979Y2048*
X2004*
X1929Y2013D02*
X1945Y1976D01*
X1960Y2013*
X1979Y1985D02*
X1982Y1979D01*
X1988Y1976*
X1995*
X2001Y1979*
X2004Y1985*
Y1991*
X2001Y1998*
X1995Y2001*
X1988*
X1982Y1998*
X1979Y1991*
Y1985*
X2045Y1976D02*
X2041D01*
Y2013*
X2079Y2001D02*
Y1985D01*
X2082Y1979*
X2088Y1976*
X2095*
X2101Y1979*
X2104Y1985*
Y2001D02*
Y1976D01*
X2129D02*
Y2001D01*
Y1998D02*
X2132Y2001D01*
X2138*
X2142Y1998*
Y1988*
Y1998D02*
X2145Y2001D01*
X2151*
X2154Y1998*
Y1976*
X2204Y1979D02*
X2201Y1976D01*
X2195*
X2188*
X2182Y1979*
X2179Y1985*
Y1995*
X2182Y1998*
X2188Y2001*
X2195*
X2201Y1998*
X2204Y1995*
Y1991*
X2201Y1988*
X2195Y1985*
X2188*
X2182Y1988*
X2179Y1991*
X1929Y2792D02*
Y3292D01*
X2717*
Y2792*
X1929*
X1966Y4167D02*
Y3817D01*
X1891*
X1866Y3842*
X1841Y3817*
X1766*
Y4167*
X1966*
X1991Y1067D02*
Y1217D01*
Y1142D02*
X1966D01*
X2017Y4242D02*
X2067D01*
X2041Y1067D02*
Y1217D01*
X2067Y1142D02*
X2041D01*
X2117Y4502D02*
G75*
G02X1956Y4342I-160D01*
G01*
X1716*
Y4402*
X2117Y4582D02*
G75*
G03X1956Y4742I-160D01*
G01*
X1716*
Y4682*
X2204Y3688D02*
Y3701D01*
X2207Y3707*
X2210Y3710*
X2217Y3713*
X2223*
X2229Y3710*
X2232Y3707*
X2235Y3701*
Y3688*
X2232Y3682*
X2229Y3679*
X2223Y3676*
X2217*
X2210Y3679*
X2207Y3682*
X2204Y3688*
X2226Y3685D02*
X2235Y3676D01*
X2260D02*
X2273D01*
X2267D02*
Y3713D01*
X2260Y3707*
X2217Y1682D02*
Y1802D01*
Y4542D02*
X2267D01*
X2217D02*
G75*
G02X2417Y4742I200D01*
G01*
G75*
G02X2617Y4542J-200*
G01*
G75*
G02X2417Y4342I-200*
G01*
G75*
G02X2217Y4542J200*
G01*
X2242Y4517D02*
Y4566D01*
X2277Y4142D02*
Y3742D01*
X2327Y4142D02*
X2157D01*
Y3742*
X2327*
Y4142*
X2392Y3504D02*
X2142D01*
X2392Y3579D02*
Y3429D01*
X2435Y1557D02*
X2432Y1554D01*
X2426Y1551*
X2417*
X2410Y1554*
X2407Y1557*
X2404Y1563*
Y1576*
X2407Y1582*
X2410Y1585*
X2417Y1588*
X2426*
X2432Y1585*
X2435Y1582*
X2463Y1570D02*
X2470D01*
X2476Y1573*
X2479Y1579*
X2476Y1585*
X2470Y1588*
X2463*
X2457Y1585*
X2454Y1579*
X2457Y1573*
X2463Y1570*
X2457Y1566*
X2454Y1560*
X2457Y1554*
X2463Y1551*
X2470*
X2476Y1554*
X2479Y1560*
X2476Y1566*
X2470Y1570*
X2417Y2142D02*
X2367D01*
X2417Y2242D02*
X2367D01*
X2417Y2342D02*
X2367D01*
X2417Y2642D02*
X2367D01*
X2429Y1913D02*
Y1885D01*
X2432Y1879*
X2438Y1876*
X2451*
X2457Y1879*
X2460Y1885*
Y1913*
X2482Y1879D02*
X2488Y1876D01*
X2495*
X2501Y1879*
X2504Y1885*
X2501Y1891*
X2495Y1895*
X2488*
X2495D02*
X2501Y1898D01*
X2504Y1904*
X2501Y1910*
X2495Y1913*
X2488*
X2482Y1910*
X2473Y1032D02*
X2470Y1029D01*
X2463Y1026*
X2454*
X2448Y1029*
X2445Y1032*
X2442Y1038*
Y1051*
X2445Y1057*
X2448Y1060*
X2454Y1063*
X2463*
X2470Y1060*
X2473Y1057*
X2492Y1029D02*
X2498Y1026D01*
X2507*
X2513Y1029*
X2517Y1035*
Y1038*
X2513Y1045*
X2507Y1048*
X2492*
Y1063*
X2517*
X2442Y3504D02*
X2692D01*
X2442Y3579D02*
Y3429D01*
X2426Y4510D02*
X2429Y4507D01*
X2432Y4501*
Y4492*
X2429Y4485*
X2426Y4482*
X2420Y4479*
X2407*
X2401Y4482*
X2398Y4485*
X2395Y4492*
Y4501*
X2398Y4507*
X2401Y4510*
X2423Y4529D02*
X2417Y4532D01*
X2413Y4538*
Y4545*
X2417Y4551*
X2423Y4554*
X2429Y4551*
X2432Y4545*
Y4538*
X2429Y4532*
X2423Y4529*
X2413*
X2404Y4532*
X2398Y4538*
X2395Y4545*
X2467Y1142D02*
G75*
G02X2367Y1042I-100D01*
G01*
G75*
G02X2267Y1142J100*
G01*
G75*
G02X2367Y1242I100*
G01*
G75*
G02X2467Y1142J-100*
G01*
Y1641D02*
X2492D01*
X2467Y2126D02*
Y2163D01*
X2488*
X2495Y2160*
X2498Y2154*
X2495Y2148*
X2488Y2145*
X2467*
X2488D02*
X2498Y2126D01*
X2526Y2145D02*
X2532D01*
X2538Y2148*
X2542Y2154*
X2538Y2160*
X2532Y2163*
X2526*
X2520Y2160*
X2517Y2154*
X2520Y2148*
X2526Y2145*
X2520Y2142*
X2517Y2135*
X2520Y2129*
X2526Y2126*
X2532*
X2538Y2129*
X2542Y2135*
X2538Y2142*
X2532Y2145*
X2467Y2226D02*
Y2263D01*
X2488*
X2495Y2260*
X2498Y2254*
X2495Y2248*
X2488Y2245*
X2467*
X2488D02*
X2498Y2226D01*
X2517D02*
X2542Y2263D01*
X2517*
X2467Y2326D02*
Y2363D01*
X2488*
X2495Y2360*
X2498Y2354*
X2495Y2348*
X2488Y2345*
X2467*
X2488D02*
X2498Y2326D01*
X2517Y2335D02*
X2520Y2342D01*
X2526Y2345*
X2532*
X2538Y2342*
X2542Y2335*
X2538Y2329*
X2532Y2326*
X2526*
X2520Y2329*
X2517Y2335*
Y2345*
X2520Y2354*
X2526Y2360*
X2532Y2363*
X2467Y2626D02*
Y2663D01*
X2488*
X2495Y2660*
X2498Y2654*
X2495Y2648*
X2488Y2645*
X2467*
X2488D02*
X2498Y2626D01*
X2517Y2629D02*
X2523Y2626D01*
X2532*
X2538Y2629*
X2542Y2635*
Y2638*
X2538Y2645*
X2532Y2648*
X2517*
Y2663*
X2542*
X2492Y1117D02*
Y1167D01*
Y1716D02*
Y1566D01*
X2523Y3432D02*
X2520Y3429D01*
X2513Y3426*
X2504*
X2498Y3429*
X2495Y3432*
X2492Y3438*
Y3451*
X2495Y3457*
X2498Y3460*
X2504Y3463*
X2513*
X2520Y3460*
X2523Y3457*
X2542Y3426D02*
X2567Y3463D01*
X2542*
X2504Y3688D02*
Y3701D01*
X2507Y3707*
X2510Y3710*
X2517Y3713*
X2523*
X2529Y3710*
X2532Y3707*
X2535Y3701*
Y3688*
X2532Y3682*
X2529Y3679*
X2523Y3676*
X2517*
X2510Y3679*
X2507Y3682*
X2504Y3688*
X2526Y3685D02*
X2535Y3676D01*
X2579D02*
X2554D01*
X2576Y3698*
X2579Y3704*
X2576Y3710*
X2570Y3713*
X2560*
X2554Y3710*
X2517Y1142D02*
X2467D01*
X2542Y1641D02*
X2567D01*
X2542Y1716D02*
Y1566D01*
X2577Y4142D02*
Y3742D01*
X2617Y2192D02*
Y2092D01*
X2417*
Y2192*
X2617*
Y2292D02*
Y2192D01*
X2417*
Y2292*
X2617*
Y2392D02*
Y2292D01*
X2417*
Y2392*
X2617*
Y2692D02*
Y2592D01*
X2417*
Y2692*
X2617*
X2627Y4142D02*
X2457D01*
Y3742*
X2627*
Y4142*
X2642Y1791D02*
X2292D01*
Y1866*
X2317Y1891*
X2292Y1916*
Y1991*
X2642*
Y1791*
X2667Y1941D02*
X2767D01*
Y1741*
X2667*
Y1941*
Y2142D02*
X2617D01*
X2667Y2242D02*
X2617D01*
X2667Y2342D02*
X2617D01*
X2667Y2642D02*
X2617D01*
X2717Y1542D02*
X2667D01*
X2717Y1741D02*
Y1691D01*
Y1991D02*
Y1941D01*
X2742Y1526D02*
Y1563D01*
X2763*
X2770Y1560*
X2773Y1554*
X2770Y1548*
X2763Y1545*
X2742*
X2763D02*
X2773Y1526D01*
X2798D02*
X2810D01*
X2804D02*
Y1563D01*
X2798Y1557*
X2845Y1529D02*
X2851Y1526D01*
X2857*
X2863Y1529*
X2867Y1535*
Y1554*
X2863Y1560*
X2857Y1563*
X2851*
X2845Y1560*
X2842Y1554*
Y1535*
X2845Y1529*
X2863Y1560*
X2732Y1804D02*
X2695D01*
Y1826*
X2698Y1832*
X2704Y1835*
X2710Y1832*
X2713Y1826*
Y1804*
Y1826D02*
X2732Y1835D01*
Y1863D02*
X2729Y1870D01*
X2723Y1876*
X2713Y1879*
X2704*
X2698Y1876*
X2695Y1870*
Y1863*
X2698Y1857*
X2704Y1854*
X2710Y1857*
X2713Y1863*
Y1870*
X2710Y1876*
X2704Y1879*
X2785Y1032D02*
X2782Y1029D01*
X2776Y1026*
X2767*
X2760Y1029*
X2757Y1032*
X2754Y1038*
Y1051*
X2757Y1057*
X2760Y1060*
X2767Y1063*
X2776*
X2782Y1060*
X2785Y1057*
X2813Y1026D02*
X2820Y1029D01*
X2826Y1035*
X2829Y1045*
Y1054*
X2826Y1060*
X2820Y1063*
X2813*
X2807Y1060*
X2804Y1054*
X2807Y1048*
X2813Y1045*
X2820*
X2826Y1048*
X2829Y1054*
X2767Y1142D02*
G75*
G02X2667Y1042I-100D01*
G01*
G75*
G02X2567Y1142J100*
G01*
G75*
G02X2667Y1242I100*
G01*
G75*
G02X2767Y1142J-100*
G01*
Y2748D02*
X2829D01*
X2767Y2673*
X2829*
X2792Y1117D02*
Y1167D01*
X2817Y1142D02*
X2767D01*
X2917Y1591D02*
Y1492D01*
X2717*
Y1591*
X2917*
Y3392D02*
X4316D01*
Y4592*
X2917*
Y3392*
X2967Y1542D02*
X2917D01*
X2967Y2742D02*
X3017D01*
Y2642D02*
X2967D01*
X3017Y2692D02*
Y2792D01*
X3217*
Y2692*
X3017*
Y3642D02*
X4217D01*
Y4342*
X3017*
Y3642*
X3042Y2626D02*
Y2663D01*
X3063*
X3070Y2660*
X3073Y2654*
X3070Y2648*
X3063Y2645*
X3042*
X3063D02*
X3073Y2626D01*
X3098D02*
X3110D01*
X3104D02*
Y2663D01*
X3098Y2657*
X3167Y2626D02*
X3142D01*
X3163Y2648*
X3167Y2654*
X3163Y2660*
X3157Y2663*
X3148*
X3142Y2660*
X3042Y2726D02*
Y2763D01*
X3063*
X3070Y2760*
X3073Y2754*
X3070Y2748*
X3063Y2745*
X3042*
X3063D02*
X3073Y2726D01*
X3098D02*
X3110D01*
X3104D02*
Y2763D01*
X3098Y2757*
X3148Y2726D02*
X3160D01*
X3154D02*
Y2763D01*
X3148Y2757*
X3085Y2932D02*
X3082Y2929D01*
X3076Y2926*
X3067*
X3060Y2929*
X3057Y2932*
X3054Y2938*
Y2951*
X3057Y2957*
X3060Y2960*
X3067Y2963*
X3076*
X3082Y2960*
X3085Y2957*
X3110Y2926D02*
X3123D01*
X3117D02*
Y2963D01*
X3110Y2957*
X3157Y2929D02*
X3163Y2926D01*
X3170*
X3176Y2929*
X3179Y2935*
Y2954*
X3176Y2960*
X3170Y2963*
X3163*
X3157Y2960*
X3154Y2954*
Y2935*
X3157Y2929*
X3176Y2960*
X3117Y3192D02*
G75*
G02X3217Y3092J-100D01*
G01*
G75*
G02X3117Y2992I-100*
G01*
G75*
G02X3017Y3092J100*
G01*
G75*
G02X3117Y3192I100*
G01*
Y3242D02*
Y3192D01*
X3142Y3217D02*
X3092D01*
X3217Y2692D02*
Y2592D01*
X3017*
Y2692*
X3217*
Y2742D02*
X3267D01*
X3242Y1913D02*
Y1885D01*
X3245Y1879*
X3251Y1876*
X3263*
X3270Y1879*
X3273Y1885*
Y1913*
X3307Y1876D02*
Y1913D01*
X3292Y1888*
X3317*
X3267Y2642D02*
X3217D01*
X3417Y1142D02*
X3367D01*
X3442Y1126D02*
Y1163D01*
X3463*
X3470Y1160*
X3473Y1154*
X3470Y1148*
X3463Y1145*
X3442*
X3463D02*
X3473Y1126D01*
X3498D02*
X3510D01*
X3504D02*
Y1163D01*
X3498Y1157*
X3545Y1129D02*
X3551Y1126D01*
X3557*
X3563Y1129*
X3567Y1135*
X3563Y1142*
X3557Y1145*
X3551*
X3557D02*
X3563Y1148D01*
X3567Y1154*
X3563Y1160*
X3557Y1163*
X3551*
X3545Y1160*
X3467Y3960D02*
Y4035D01*
X3529*
X3517Y3998D02*
X3467D01*
Y3960D02*
X3529D01*
X3573Y3967D02*
X3585Y3960D01*
X3598*
X3610Y3967*
X3617Y3979*
X3610Y3992*
X3598Y3998*
X3585*
X3598D02*
X3610Y4004D01*
X3617Y4017*
X3610Y4029*
X3598Y4035*
X3585*
X3573Y4029*
X3673Y3967D02*
X3685Y3960D01*
X3698*
X3710Y3967*
X3717Y3979*
Y4017*
X3710Y4029*
X3698Y4035*
X3685*
X3673Y4029*
X3667Y4017*
Y3979*
X3673Y3967*
X3710Y4029*
X3517Y2942D02*
X3467D01*
X3517Y3142D02*
X3467D01*
X3542Y2926D02*
Y2963D01*
X3563*
X3570Y2960*
X3573Y2954*
X3570Y2948*
X3563Y2945*
X3542*
X3563D02*
X3573Y2926D01*
X3598D02*
X3610D01*
X3604D02*
Y2963D01*
X3598Y2957*
X3657Y2926D02*
Y2963D01*
X3642Y2938*
X3667*
X3557Y3888D02*
Y3926D01*
X3542D02*
X3573D01*
X3592Y3888D02*
Y3926D01*
X3613*
X3620Y3923*
X3623Y3917*
X3620Y3910*
X3613Y3907*
X3592*
X3613D02*
X3623Y3888D01*
X3648D02*
X3660D01*
X3654D02*
Y3926D01*
X3648Y3920*
X3552Y3095D02*
Y3188D01*
X3579Y3126D02*
Y3163D01*
X3598*
X3604Y3160*
X3607Y3157*
X3610Y3151*
Y3138*
X3607Y3132*
X3604Y3129*
X3598Y3126*
X3579*
X3635D02*
X3648D01*
X3642D02*
Y3163D01*
X3635Y3157*
X3617Y1192D02*
Y1092D01*
X3417*
Y1192*
X3617*
X3667Y1142D02*
X3617D01*
X3717Y2992D02*
Y2892D01*
X3517*
Y2992*
X3717*
Y3192D02*
Y3092D01*
X3517*
Y3192*
X3717*
X3742Y1791D02*
X2792D01*
Y1866*
X2817Y1891*
X2792Y1916*
Y1991*
X3742*
Y1791*
Y2779D02*
G75*
G02X3617Y2654I-125D01*
G01*
G75*
G02X3492Y2779J125*
G01*
Y2794*
G75*
G02X3517Y2854I85J0*
G01*
X3717*
G75*
G02X3742Y2794I-60J-60*
G01*
Y2779*
X3754Y2701D02*
Y2713D01*
X3757Y2720*
X3760Y2723*
X3767Y2726*
X3773*
X3779Y2723*
X3782Y2720*
X3785Y2713*
Y2701*
X3782Y2695*
X3779Y2692*
X3773Y2688*
X3767*
X3760Y2692*
X3757Y2695*
X3754Y2701*
X3776Y2698D02*
X3785Y2688D01*
X3807Y2692D02*
X3813Y2688D01*
X3820*
X3826Y2692*
X3829Y2698*
X3826Y2704*
X3820Y2707*
X3813*
X3820D02*
X3826Y2710D01*
X3829Y2717*
X3826Y2723*
X3820Y2726*
X3813*
X3807Y2723*
X3767Y1292D02*
Y1492D01*
X1267*
Y1292*
X3767*
Y2392D02*
Y2592D01*
X1267*
Y2392*
X3767*
Y2942D02*
X3717D01*
X3767Y3142D02*
X3717D01*
X3817Y1391D02*
G75*
G03X3917I50D01*
G01*
G75*
G03X3817I-50*
G01*
Y2492D02*
G75*
G03X3917I50D01*
G01*
G75*
G03X3817I-50*
G01*
X3854Y1088D02*
Y1126D01*
X3876*
X3882Y1123*
X3885Y1117*
X3882Y1110*
X3876Y1107*
X3854*
X3904Y1126D02*
Y1088D01*
X3935*
X3970D02*
Y1126D01*
X3954Y1101*
X3979*
X3854Y1028D02*
Y1066D01*
X3873*
X3879Y1063*
X3882Y1060*
X3885Y1053*
Y1041*
X3882Y1035*
X3879Y1032*
X3873Y1028*
X3854*
X3935Y1035D02*
X3932Y1032D01*
X3926Y1028*
X3917*
X3910Y1032*
X3907Y1035*
X3904Y1041*
Y1053*
X3907Y1060*
X3910Y1063*
X3917Y1066*
X3926*
X3932Y1063*
X3935Y1060*
X3954Y1028D02*
Y1066D01*
X3985*
X3979Y1047D02*
X3954D01*
X4004Y1028D02*
X4029Y1066D01*
X4004*
X4054Y1028D02*
X4079Y1066D01*
X4054*
X3892Y3842D02*
X4042D01*
Y3904*
X6454*
X6516Y3842*
X3892D02*
X3879D01*
G75*
G02X3829Y3892J50*
G01*
G75*
G02X3879Y3942I50*
G01*
X3892*
X3879*
G75*
G02X3829Y3992J50*
G01*
G75*
G02X3879Y4042I50*
G01*
X3892*
X3879*
G75*
G02X3829Y4092J50*
G01*
G75*
G02X3879Y4142I50*
G01*
X3892*
X3879*
G75*
G02X3829Y4191J50*
G01*
G75*
G02X3879Y4242I50*
G01*
X3892*
X4042*
Y3942*
X6617*
X6716Y3842*
X3943Y1829D02*
X3899D01*
Y1851*
X3902Y1859*
X3906Y1862*
X3913Y1866*
X3928*
X3936Y1862*
X3939Y1859*
X3943Y1851*
Y1829*
Y1888D02*
X3899D01*
Y1925*
X3921Y1918D02*
Y1888D01*
X3943D02*
Y1925D01*
X3921Y1973D02*
X3924Y1980D01*
X3932Y1984*
X3939Y1980*
X3943Y1973*
Y1947*
X3899*
Y1973*
X3902Y1980*
X3910Y1984*
X3917Y1980*
X3921Y1973*
Y1947*
X3899Y2006D02*
X3932D01*
X3939Y2010*
X3943Y2017*
Y2032*
X3939Y2039*
X3932Y2043*
X3899*
X3924Y2091D02*
Y2102D01*
X3928*
X3936Y2098*
X3939Y2095*
X3943Y2087*
Y2080*
X3939Y2073*
X3936Y2069*
X3928Y2065*
X3913*
X3906Y2069*
X3902Y2073*
X3899Y2080*
Y2087*
X3902Y2095*
X3906Y2098*
X3913Y2102*
X3967Y1267D02*
Y2617D01*
X1067*
Y1267*
X3967*
Y1492D02*
Y2392D01*
X3867*
Y1492*
X3967*
Y3042D02*
X4066D01*
Y2842*
X3967*
Y3042*
X4017Y1391D02*
Y1092D01*
X4217*
Y1391*
X4017*
Y2492D02*
Y2292D01*
X4217*
Y2492*
X4017*
Y2842D02*
Y2792D01*
Y3092D02*
Y3042D01*
X4073Y1595D02*
X4070Y1591D01*
X4063Y1588*
X4054*
X4048Y1591*
X4045Y1595*
X4042Y1601*
Y1613*
X4045Y1620*
X4048Y1623*
X4054Y1626*
X4063*
X4070Y1623*
X4073Y1620*
X4098Y1588D02*
X4110D01*
X4104D02*
Y1626D01*
X4098Y1620*
X4167Y1588D02*
X4142D01*
X4163Y1610*
X4167Y1616*
X4163Y1623*
X4157Y1626*
X4148*
X4142Y1623*
X4032Y2867D02*
X3995D01*
Y2888*
X3998Y2895*
X4004Y2898*
X4010Y2895*
X4013Y2888*
Y2867*
Y2888D02*
X4032Y2898D01*
Y2923D02*
Y2935D01*
Y2929D02*
X3995D01*
X4001Y2923*
X4029Y2967D02*
X4032Y2973D01*
Y2982*
X4029Y2988*
X4023Y2992*
X4020*
X4013Y2988*
X4010Y2982*
Y2967*
X3995*
Y2992*
X4070Y1310D02*
Y1323D01*
Y1316D02*
X4032D01*
X4038Y1310*
X4070Y2410D02*
Y2423D01*
Y2417D02*
X4032D01*
X4038Y2410*
X4092Y1666D02*
X4142D01*
X4092Y1966D02*
X4142D01*
X4117Y1492D02*
X4066D01*
X4117Y1641D02*
Y1691D01*
G75*
G02X4017Y1791J100*
G01*
G75*
G02X4117Y1891I100*
G01*
G75*
G02X4217Y1791J-100*
G01*
G75*
G02X4117Y1691I-100*
G01*
Y1941D02*
Y1991D01*
G75*
G02X4017Y2092J100*
G01*
G75*
G02X4117Y2192I100*
G01*
G75*
G02X4217Y2092J-100*
G01*
G75*
G02X4117Y1991I-100*
G01*
X4122Y2517D02*
X4085D01*
Y2538*
X4088Y2545*
X4094Y2548*
X4100Y2545*
X4103Y2538*
Y2517*
X4085Y2567D02*
X4122D01*
Y2598*
X4119Y2620D02*
X4122Y2626D01*
Y2632*
X4119Y2638*
X4113Y2642*
X4107Y2638*
X4103Y2632*
Y2626*
Y2632D02*
X4100Y2638D01*
X4094Y2642*
X4088Y2638*
X4085Y2632*
Y2626*
X4088Y2620*
X4173Y2517D02*
X4179Y2520D01*
X4182Y2526*
Y2538*
X4179Y2545*
X4173Y2548*
X4167Y2545*
X4163Y2538*
Y2526*
X4160Y2520*
X4154Y2517*
X4148Y2520*
X4145Y2526*
Y2538*
X4148Y2545*
X4154Y2548*
X4157Y2567D02*
X4191D01*
X4173D02*
X4179Y2570D01*
X4182Y2576*
Y2582*
X4179Y2588*
X4173Y2592*
X4167*
X4160Y2588*
X4157Y2582*
Y2576*
X4160Y2570*
X4167Y2567*
X4173*
X4179Y2642D02*
X4182Y2638D01*
Y2632*
Y2626*
X4179Y2620*
X4173Y2617*
X4163*
X4160Y2620*
X4157Y2626*
Y2632*
X4160Y2638*
X4163Y2642*
X4167*
X4170Y2638*
X4173Y2632*
Y2626*
X4170Y2620*
X4167Y2617*
X4160Y2667D02*
X4157Y2673D01*
Y2682*
X4160Y2688*
X4167Y2692*
X4176*
X4179Y2688*
X4182Y2682*
Y2676*
X4179Y2670*
X4176Y2667*
X4173*
X4170Y2670*
X4167Y2676*
Y2682*
X4170Y2688*
X4173Y2692*
X4176D02*
X4182D01*
Y2717D02*
X4145D01*
X4170D02*
Y2726D01*
X4157Y2742*
X4170Y2726D02*
X4182Y2742D01*
X4179Y2792D02*
X4182Y2788D01*
Y2782*
Y2776*
X4179Y2770*
X4173Y2767*
X4163*
X4160Y2770*
X4157Y2776*
Y2782*
X4160Y2788*
X4163Y2792*
X4167*
X4170Y2788*
X4173Y2782*
Y2776*
X4170Y2770*
X4167Y2767*
X4182Y2817D02*
X4157D01*
X4167D02*
X4160Y2820D01*
X4157Y2826*
Y2832*
X4160Y2838*
X4142Y1476D02*
Y1513D01*
X4163*
X4170Y1510*
X4173Y1504*
X4170Y1498*
X4163Y1495*
X4142*
X4163D02*
X4173Y1476D01*
X4198D02*
X4210D01*
X4204D02*
Y1513D01*
X4198Y1507*
X4242Y1485D02*
X4245Y1492D01*
X4251Y1495*
X4257*
X4263Y1492*
X4267Y1485*
X4263Y1479*
X4257Y1476*
X4251*
X4245Y1479*
X4242Y1485*
Y1495*
X4245Y1504*
X4251Y1510*
X4257Y1513*
X4179Y1142D02*
X4217D01*
Y1341*
X4179*
Y1142*
Y2342D02*
X4217D01*
Y2442*
X4179*
Y2342*
X4273Y2082D02*
X4270Y2079D01*
X4263Y2076*
X4254*
X4248Y2079*
X4245Y2082*
X4242Y2088*
Y2101*
X4245Y2107*
X4248Y2110*
X4254Y2113*
X4263*
X4270Y2110*
X4273Y2107*
X4298Y2076D02*
X4310D01*
X4304D02*
Y2113D01*
X4298Y2107*
X4348Y2076D02*
X4360D01*
X4354D02*
Y2113D01*
X4348Y2107*
X4316Y1302D02*
Y1182D01*
Y1542D02*
Y1441D01*
X4117*
Y1542*
X4316*
Y1802D02*
Y1682D01*
Y2502D02*
Y2382D01*
Y3002D02*
Y2882D01*
X4367Y1492D02*
X4316D01*
X4398Y1610D02*
Y1648D01*
X4367Y1685*
X4398Y1648D02*
X4429Y1685D01*
X4379Y2798D02*
X4441Y2873D01*
X4379D02*
X4441Y2798D01*
X4660Y3682D02*
X4657Y3679D01*
X4651Y3676*
X4642*
X4635Y3679*
X4632Y3682*
X4629Y3688*
Y3701*
X4632Y3707*
X4635Y3710*
X4642Y3713*
X4651*
X4657Y3710*
X4660Y3707*
X4685Y3676D02*
X4698D01*
X4691D02*
Y3713D01*
X4685Y3707*
X4729Y3679D02*
X4735Y3676D01*
X4745*
X4751Y3679*
X4754Y3685*
Y3688*
X4751Y3695*
X4745Y3698*
X4729*
Y3713*
X4754*
X4660Y3982D02*
X4657Y3979D01*
X4651Y3976*
X4642*
X4635Y3979*
X4632Y3982*
X4629Y3988*
Y4001*
X4632Y4007*
X4635Y4010*
X4642Y4013*
X4651*
X4657Y4010*
X4660Y4007*
X4685Y3976D02*
X4698D01*
X4691D02*
Y4013D01*
X4685Y4007*
X4745Y3976D02*
Y4013D01*
X4729Y3988*
X4754*
X4660Y4582D02*
X4657Y4579D01*
X4651Y4576*
X4642*
X4635Y4579*
X4632Y4582*
X4629Y4588*
Y4601*
X4632Y4607*
X4635Y4610*
X4642Y4613*
X4651*
X4657Y4610*
X4660Y4607*
X4685Y4576D02*
X4698D01*
X4691D02*
Y4613D01*
X4685Y4607*
X4732Y4579D02*
X4738Y4576D01*
X4745*
X4751Y4579*
X4754Y4585*
X4751Y4592*
X4745Y4595*
X4738*
X4745D02*
X4751Y4598D01*
X4754Y4604*
X4751Y4610*
X4745Y4613*
X4738*
X4732Y4610*
X4691Y1048D02*
Y1086D01*
X4713*
X4720Y1083*
X4723Y1077*
X4720Y1070*
X4713Y1067*
X4691*
X4713D02*
X4723Y1048D01*
X4767D02*
X4742D01*
X4763Y1070*
X4767Y1077*
X4763Y1083*
X4757Y1086*
X4748*
X4742Y1083*
X4795Y1052D02*
X4801Y1048D01*
X4807*
X4813Y1052*
X4816Y1058*
Y1077*
X4813Y1083*
X4807Y1086*
X4801*
X4795Y1083*
X4792Y1077*
Y1058*
X4795Y1052*
X4813Y1083*
X4707Y988D02*
Y1007D01*
X4691Y1026*
X4707Y1007D02*
X4723Y1026D01*
X4792Y1001D02*
Y1013D01*
X4795Y1020*
X4798Y1023*
X4804Y1026*
X4810*
X4816Y1023*
X4820Y1020*
X4823Y1013*
Y1001*
X4820Y995*
X4816Y992*
X4810Y988*
X4804*
X4798Y992*
X4795Y995*
X4792Y1001*
X4842Y988D02*
Y1026D01*
X4873*
X4867Y1007D02*
X4842D01*
X4892Y998D02*
X4895Y992D01*
X4901Y988*
X4913*
X4920Y992*
X4923Y998*
X4920Y1004*
X4913Y1007*
X4901*
X4895Y1010*
X4892Y1016*
X4895Y1023*
X4901Y1026*
X4913*
X4920Y1023*
X4923Y1016*
X4691Y1948D02*
Y1986D01*
X4713*
X4720Y1983*
X4723Y1977*
X4720Y1970*
X4713Y1967*
X4691*
X4713D02*
X4723Y1948D01*
X4748D02*
X4760D01*
X4754D02*
Y1986D01*
X4748Y1980*
X4801Y1948D02*
X4807Y1952D01*
X4813Y1958*
X4816Y1967*
Y1977*
X4813Y1983*
X4807Y1986*
X4801*
X4795Y1983*
X4792Y1977*
X4795Y1970*
X4801Y1967*
X4807*
X4813Y1970*
X4816Y1977*
X4707Y1888D02*
Y1907D01*
X4691Y1926*
X4707Y1907D02*
X4723Y1926D01*
X4813Y1904D02*
X4823D01*
Y1901*
X4820Y1895*
X4816Y1891*
X4810Y1888*
X4804*
X4798Y1891*
X4795Y1895*
X4792Y1901*
Y1913*
X4795Y1920*
X4798Y1923*
X4804Y1926*
X4810*
X4816Y1923*
X4820Y1920*
X4823Y1913*
X4842Y1888D02*
X4857Y1926D01*
X4873Y1888*
X4848Y1904D02*
X4867D01*
X4901Y1888D02*
X4913D01*
X4907D02*
Y1926D01*
X4901D02*
X4913D01*
X4941Y1888D02*
Y1926D01*
X4973Y1888*
Y1926*
X4691Y2238D02*
Y2276D01*
X4713*
X4720Y2273*
X4723Y2267*
X4720Y2260*
X4713Y2257*
X4691*
X4713D02*
X4723Y2238D01*
X4748D02*
X4760D01*
X4754D02*
Y2276D01*
X4748Y2270*
X4801Y2257D02*
X4807D01*
X4813Y2260*
X4816Y2267*
X4813Y2273*
X4807Y2276*
X4801*
X4795Y2273*
X4792Y2267*
X4795Y2260*
X4801Y2257*
X4795Y2254*
X4792Y2248*
X4795Y2242*
X4801Y2238*
X4807*
X4813Y2242*
X4816Y2248*
X4813Y2254*
X4807Y2257*
X4691Y2178D02*
X4723Y2216D01*
X4691D02*
X4723Y2178D01*
X4792Y2191D02*
Y2203D01*
X4795Y2210*
X4798Y2213*
X4804Y2216*
X4810*
X4816Y2213*
X4820Y2210*
X4823Y2203*
Y2191*
X4820Y2185*
X4816Y2182*
X4810Y2178*
X4804*
X4798Y2182*
X4795Y2185*
X4792Y2191*
X4842Y2178D02*
Y2216D01*
X4873*
X4867Y2197D02*
X4842D01*
X4892Y2188D02*
X4895Y2182D01*
X4901Y2178*
X4913*
X4920Y2182*
X4923Y2188*
X4920Y2194*
X4913Y2197*
X4901*
X4895Y2200*
X4892Y2207*
X4895Y2213*
X4901Y2216*
X4913*
X4920Y2213*
X4923Y2207*
X4717Y1202D02*
G75*
G02X4557Y1042I-160D01*
G01*
X4316*
Y1102*
X4717Y1282D02*
G75*
G03X4557Y1441I-160D01*
G01*
X4316*
Y1382*
X4717Y1702D02*
G75*
G02X4557Y1542I-160D01*
G01*
X4316*
Y1602*
X4717Y1782D02*
G75*
G03X4557Y1941I-160D01*
G01*
X4316*
Y1881*
X4717Y2402D02*
G75*
G02X4557Y2242I-160D01*
G01*
X4316*
Y2302*
X4717Y2482D02*
G75*
G03X4557Y2642I-160D01*
G01*
X4316*
Y2582*
X4717Y2902D02*
G75*
G02X4557Y2742I-160D01*
G01*
X4316*
Y2802*
X4717Y2982D02*
G75*
G03X4557Y3142I-160D01*
G01*
X4316*
Y3082*
X4729Y3138D02*
Y3176D01*
X4751*
X4757Y3173*
X4760Y3167*
X4757Y3160*
X4751Y3157*
X4729*
X4751D02*
X4760Y3138D01*
X4785D02*
X4798D01*
X4792D02*
Y3176D01*
X4785Y3170*
X4829Y3138D02*
X4854Y3176D01*
X4829*
X4729Y3078D02*
X4760Y3116D01*
X4729D02*
X4760Y3078D01*
X4851Y3094D02*
X4860D01*
Y3091*
X4857Y3085*
X4854Y3082*
X4848Y3078*
X4842*
X4835Y3082*
X4832Y3085*
X4829Y3091*
Y3103*
X4832Y3110*
X4835Y3113*
X4842Y3116*
X4848*
X4854Y3113*
X4857Y3110*
X4860Y3103*
X4879Y3078D02*
X4895Y3116D01*
X4910Y3078*
X4885Y3094D02*
X4904D01*
X4938Y3078D02*
X4951D01*
X4945D02*
Y3116D01*
X4938D02*
X4951D01*
X4979Y3078D02*
Y3116D01*
X5010Y3078*
Y3116*
X4742Y1376D02*
Y1413D01*
X4763*
X4770Y1410*
X4773Y1404*
X4770Y1398*
X4763Y1395*
X4742*
X4792Y1413D02*
Y1376D01*
X4823*
X4842Y1385D02*
X4845Y1391D01*
X4851Y1395*
X4857*
X4863Y1391*
X4867Y1385*
X4863Y1379*
X4857Y1376*
X4851*
X4845Y1379*
X4842Y1385*
Y1395*
X4845Y1404*
X4851Y1410*
X4857Y1413*
X4754Y2826D02*
Y2863D01*
X4776*
X4782Y2860*
X4785Y2854*
X4782Y2848*
X4776Y2845*
X4754*
X4804Y2863D02*
Y2826D01*
X4835*
X4854Y2829D02*
X4860Y2826D01*
X4870*
X4876Y2829*
X4879Y2835*
Y2838*
X4876Y2845*
X4870Y2848*
X4854*
Y2863*
X4879*
X4785Y3470D02*
X4782Y3467D01*
X4776Y3463*
X4767*
X4760Y3467*
X4757Y3470*
X4754Y3476*
Y3488*
X4757Y3495*
X4760Y3498*
X4767Y3501*
X4776*
X4782Y3498*
X4785Y3495*
X4810Y3463D02*
X4823D01*
X4816D02*
Y3501D01*
X4810Y3495*
X4854Y3473D02*
X4857Y3479D01*
X4863Y3482*
X4870*
X4876Y3479*
X4879Y3473*
X4876Y3467*
X4870Y3463*
X4863*
X4857Y3467*
X4854Y3473*
Y3482*
X4857Y3492*
X4863Y3498*
X4870Y3501*
X4767Y4441D02*
X4816D01*
X4792Y3742D02*
X4542D01*
X4792Y3817D02*
Y3667D01*
Y4042D02*
X4542D01*
X4792Y4117D02*
Y3967D01*
Y4642D02*
X4542D01*
X4792Y4717D02*
Y4566D01*
X4816Y4242D02*
X4767D01*
X4816Y4392D02*
Y4492D01*
X5017*
Y4392*
X4816*
X4842Y3742D02*
X5092D01*
X4842Y3817D02*
Y3667D01*
Y4042D02*
X5092D01*
X4842Y4117D02*
Y3967D01*
Y4642D02*
X5092D01*
X4842Y4717D02*
Y4566D01*
X4852Y4194D02*
Y4289D01*
X4854Y4426D02*
Y4463D01*
X4873*
X4879Y4460*
X4882Y4457*
X4885Y4451*
Y4438*
X4882Y4432*
X4879Y4429*
X4873Y4426*
X4854*
X4907Y4429D02*
X4913Y4426D01*
X4920*
X4926Y4429*
X4929Y4435*
X4926Y4441*
X4920Y4445*
X4913*
X4920D02*
X4926Y4448D01*
X4929Y4454*
X4926Y4460*
X4920Y4463*
X4913*
X4907Y4460*
X4892Y4226D02*
Y4263D01*
X4910*
X4917Y4260*
X4920Y4257*
X4923Y4251*
Y4238*
X4920Y4232*
X4917Y4229*
X4910Y4226*
X4892*
X4967D02*
X4941D01*
X4963Y4248*
X4967Y4254*
X4963Y4260*
X4957Y4263*
X4948*
X4941Y4260*
X4967Y1516D02*
G75*
G03X5767I400D01*
G01*
G75*
G03X4967I-400*
G01*
Y2767D02*
G75*
G03X5767I400D01*
G01*
G75*
G03X4967I-400*
G01*
X4982Y4489D02*
Y4395D01*
X4992Y3417D02*
Y3367D01*
X5017Y1516D02*
G75*
G03X5717I350D01*
G01*
G75*
G03X5017I-350*
G01*
Y2767D02*
G75*
G03X5717I350D01*
G01*
G75*
G03X5017I-350*
G01*
Y3392D02*
X4967D01*
X5017D02*
G75*
G02X4816Y3192I-200D01*
G01*
G75*
G02X4617Y3392J200*
G01*
G75*
G02X4816Y3592I200*
G01*
G75*
G02X5017Y3392J-200*
G01*
Y4292D02*
Y4191D01*
X4816*
Y4292*
X5017*
Y4441D02*
X5066D01*
Y4242D02*
X5017D01*
X5267Y2041D02*
X5316D01*
X5267Y2242D02*
X5316D01*
Y1991D02*
Y2092D01*
X5517*
Y1991*
X5316*
Y2192D02*
Y2292D01*
X5517*
Y2192*
X5316*
Y3342D02*
X5267D01*
X5342Y2026D02*
Y2063D01*
X5363*
X5370Y2060*
X5373Y2054*
X5370Y2048*
X5363Y2045*
X5342*
X5363D02*
X5373Y2026D01*
X5417D02*
X5392D01*
X5413Y2048*
X5417Y2054*
X5413Y2060*
X5407Y2063*
X5398*
X5392Y2060*
X5445Y2029D02*
X5451Y2026D01*
X5457*
X5463Y2029*
X5467Y2035*
X5463Y2041*
X5457Y2045*
X5451*
X5457D02*
X5463Y2048D01*
X5467Y2054*
X5463Y2060*
X5457Y2063*
X5451*
X5445Y2060*
X5342Y2226D02*
Y2263D01*
X5363*
X5370Y2260*
X5373Y2254*
X5370Y2248*
X5363Y2245*
X5342*
X5363D02*
X5373Y2226D01*
X5417D02*
X5392D01*
X5413Y2248*
X5417Y2254*
X5413Y2260*
X5407Y2263*
X5398*
X5392Y2260*
X5467Y2226D02*
X5441D01*
X5463Y2248*
X5467Y2254*
X5463Y2260*
X5457Y2263*
X5448*
X5441Y2260*
X5342Y3326D02*
Y3363D01*
X5363*
X5370Y3360*
X5373Y3354*
X5370Y3348*
X5363Y3345*
X5342*
X5363D02*
X5373Y3326D01*
X5417D02*
X5392D01*
X5413Y3348*
X5417Y3354*
X5413Y3360*
X5407Y3363*
X5398*
X5392Y3360*
X5448Y3326D02*
X5460D01*
X5454D02*
Y3363D01*
X5448Y3357*
X5460Y4582D02*
X5457Y4579D01*
X5451Y4576*
X5441*
X5435Y4579*
X5432Y4582*
X5429Y4588*
Y4601*
X5432Y4607*
X5435Y4610*
X5441Y4613*
X5451*
X5457Y4610*
X5460Y4607*
X5485Y4576D02*
X5498D01*
X5492D02*
Y4613D01*
X5485Y4607*
X5529Y4576D02*
X5554Y4613D01*
X5529*
X5473Y3982D02*
X5470Y3979D01*
X5463Y3976*
X5454*
X5448Y3979*
X5445Y3982*
X5441Y3988*
Y4001*
X5445Y4007*
X5448Y4010*
X5454Y4013*
X5463*
X5470Y4010*
X5473Y4007*
X5498Y3976D02*
X5510D01*
X5504D02*
Y4013D01*
X5498Y4007*
X5551Y3995D02*
X5557D01*
X5563Y3998*
X5566Y4004*
X5563Y4010*
X5557Y4013*
X5551*
X5545Y4010*
X5542Y4004*
X5545Y3998*
X5551Y3995*
X5545Y3992*
X5542Y3985*
X5545Y3979*
X5551Y3976*
X5557*
X5563Y3979*
X5566Y3985*
X5563Y3992*
X5557Y3995*
X5517Y2041D02*
X5566D01*
X5517Y2242D02*
X5566D01*
X5517Y3392D02*
Y3292D01*
X5316*
Y3392*
X5517*
X5566Y3342D02*
X5517D01*
X5566Y3642D02*
X5617D01*
X5566Y4441D02*
X5617D01*
X5592Y4042D02*
X5342D01*
X5592Y4117D02*
Y3967D01*
Y4642D02*
X5342D01*
X5592Y4717D02*
Y4566D01*
X5617Y3592D02*
Y3692D01*
X5816*
Y3592*
X5617*
Y3842D02*
X5566D01*
X5617Y4242D02*
X5566D01*
X5617Y4392D02*
Y4492D01*
X5816*
Y4392*
X5617*
X5642Y4042D02*
X5892D01*
X5642Y4117D02*
Y3967D01*
Y4642D02*
X5892D01*
X5642Y4717D02*
Y4566D01*
X5652Y3795D02*
Y3888D01*
Y4194D02*
Y4289D01*
X5654Y4426D02*
Y4463D01*
X5673*
X5679Y4460*
X5682Y4457*
X5685Y4451*
Y4438*
X5682Y4432*
X5679Y4429*
X5673Y4426*
X5654*
X5704Y4429D02*
X5710Y4426D01*
X5720*
X5726Y4429*
X5729Y4435*
Y4438*
X5726Y4445*
X5720Y4448*
X5704*
Y4463*
X5729*
X5679Y3626D02*
Y3663D01*
X5698*
X5704Y3660*
X5707Y3657*
X5710Y3651*
Y3638*
X5707Y3632*
X5704Y3629*
X5698Y3626*
X5679*
X5729D02*
X5754Y3663D01*
X5729*
X5679Y3826D02*
Y3863D01*
X5698*
X5704Y3860*
X5707Y3857*
X5710Y3851*
Y3838*
X5707Y3832*
X5704Y3829*
X5698Y3826*
X5679*
X5729Y3835D02*
X5732Y3842D01*
X5738Y3845*
X5745*
X5751Y3842*
X5754Y3835*
X5751Y3829*
X5745Y3826*
X5738*
X5732Y3829*
X5729Y3835*
Y3845*
X5732Y3854*
X5738Y3860*
X5745Y3863*
X5691Y4226D02*
Y4263D01*
X5710*
X5717Y4260*
X5720Y4257*
X5723Y4251*
Y4238*
X5720Y4232*
X5717Y4229*
X5710Y4226*
X5691*
X5757D02*
Y4263D01*
X5742Y4238*
X5767*
X5717Y1251D02*
X5732Y1213D01*
X5748Y1251*
X5792Y1213D02*
X5767D01*
X5788Y1235*
X5792Y1242*
X5788Y1248*
X5782Y1251*
X5773*
X5767Y1248*
X5720Y3067D02*
X5757Y3082D01*
X5720Y3098*
X5757Y3123D02*
Y3135D01*
Y3129D02*
X5720D01*
X5726Y3123*
X5782Y3688D02*
Y3595D01*
Y4489D02*
Y4395D01*
X5816Y3642D02*
X5867D01*
X5816Y3892D02*
Y3792D01*
X5617*
Y3892*
X5816*
Y4292D02*
Y4191D01*
X5617*
Y4292*
X5816*
Y4441D02*
X5867D01*
X5854Y1351D02*
Y1388D01*
X5876*
X5882Y1385*
X5885Y1379*
X5882Y1373*
X5876Y1370*
X5854*
X5904Y1388D02*
Y1351D01*
X5935*
X5963Y1370D02*
X5970D01*
X5976Y1373*
X5979Y1379*
X5976Y1385*
X5970Y1388*
X5963*
X5957Y1385*
X5954Y1379*
X5957Y1373*
X5963Y1370*
X5957Y1367*
X5954Y1360*
X5957Y1354*
X5963Y1351*
X5970*
X5976Y1354*
X5979Y1360*
X5976Y1367*
X5970Y1370*
X5854Y2838D02*
Y2876D01*
X5876*
X5882Y2873*
X5885Y2867*
X5882Y2860*
X5876Y2857*
X5854*
X5904Y2876D02*
Y2838D01*
X5935*
X5954D02*
X5979Y2876D01*
X5954*
X5867Y2542D02*
X5967D01*
Y2342*
X5867*
Y2542*
Y3842D02*
X5816D01*
X5867Y4242D02*
X5816D01*
X5917Y1142D02*
X5867D01*
X5917Y1691D02*
Y1741D01*
Y1941D02*
Y1991D01*
Y2342D02*
Y2292D01*
Y2592D02*
Y2542D01*
X5941Y1126D02*
Y1163D01*
X5963*
X5970Y1160*
X5973Y1154*
X5970Y1148*
X5963Y1145*
X5941*
X5963D02*
X5973Y1126D01*
X6017D02*
X5992D01*
X6013Y1148*
X6017Y1154*
X6013Y1160*
X6007Y1163*
X5998*
X5992Y1160*
X6042Y1135D02*
X6045Y1142D01*
X6051Y1145*
X6057*
X6063Y1142*
X6066Y1135*
X6063Y1129*
X6057Y1126*
X6051*
X6045Y1129*
X6042Y1135*
Y1145*
X6045Y1154*
X6051Y1160*
X6057Y1163*
X5932Y2367D02*
X5895D01*
Y2388*
X5898Y2395*
X5904Y2398*
X5910Y2395*
X5913Y2388*
Y2367*
Y2388D02*
X5932Y2398D01*
Y2442D02*
Y2417D01*
X5910Y2438*
X5904Y2442*
X5898Y2438*
X5895Y2432*
Y2423*
X5898Y2417*
X5932Y2482D02*
X5895D01*
X5920Y2467*
Y2492*
X5935Y1779D02*
X5897D01*
Y1801*
X5900Y1807*
X5907Y1810*
X5913Y1807*
X5916Y1801*
Y1779*
Y1801D02*
X5935Y1810D01*
Y1854D02*
Y1829D01*
X5913Y1851*
X5907Y1854*
X5900Y1851*
X5897Y1845*
Y1835*
X5900Y1829*
X5932Y1879D02*
X5935Y1885D01*
Y1895*
X5932Y1901*
X5925Y1904*
X5922*
X5916Y1901*
X5913Y1895*
Y1879*
X5897*
Y1904*
X5967Y1741D02*
X5867D01*
Y1941*
X5967*
Y1741*
X6042Y3517D02*
X6191D01*
X6042Y3567D02*
X6191D01*
X6076Y3385D02*
X6079Y3382D01*
X6082Y3376*
Y3367*
X6079Y3360*
X6076Y3357*
X6070Y3354*
X6057*
X6051Y3357*
X6048Y3360*
X6045Y3367*
Y3376*
X6048Y3382*
X6051Y3385*
X6082Y3410D02*
Y3423D01*
Y3417D02*
X6045D01*
X6051Y3410*
X6082Y3463D02*
X6079Y3470D01*
X6073Y3476*
X6063Y3479*
X6054*
X6048Y3476*
X6045Y3470*
Y3463*
X6048Y3457*
X6054Y3454*
X6060Y3457*
X6063Y3463*
Y3470*
X6060Y3476*
X6054Y3479*
X6117Y1192D02*
Y1092D01*
X5917*
Y1192*
X6117*
Y2292D02*
Y2342D01*
Y2542D02*
Y2592D01*
Y3517D02*
Y3267D01*
Y3567D02*
Y3817D01*
X6132Y2367D02*
X6095D01*
Y2388*
X6098Y2395*
X6104Y2398*
X6110Y2395*
X6113Y2388*
Y2367*
Y2388D02*
X6132Y2398D01*
Y2442D02*
Y2417D01*
X6110Y2438*
X6104Y2442*
X6098Y2438*
X6095Y2432*
Y2423*
X6098Y2417*
X6132Y2467D02*
X6095Y2492D01*
Y2467*
X6167Y1142D02*
X6117D01*
X6167Y2342D02*
X6066D01*
Y2542*
X6167*
Y2342*
X6273Y3982D02*
X6270Y3979D01*
X6263Y3976*
X6254*
X6248Y3979*
X6245Y3982*
X6242Y3988*
Y4001*
X6245Y4007*
X6248Y4010*
X6254Y4013*
X6263*
X6270Y4010*
X6273Y4007*
X6316Y3976D02*
X6292D01*
X6313Y3998*
X6316Y4004*
X6313Y4010*
X6307Y4013*
X6298*
X6292Y4010*
X6348Y3976D02*
X6360D01*
X6354D02*
Y4013D01*
X6348Y4007*
X6273Y4582D02*
X6270Y4579D01*
X6263Y4576*
X6254*
X6248Y4579*
X6245Y4582*
X6242Y4588*
Y4601*
X6245Y4607*
X6248Y4610*
X6254Y4613*
X6263*
X6270Y4610*
X6273Y4607*
X6316Y4576D02*
X6292D01*
X6313Y4598*
X6316Y4604*
X6313Y4610*
X6307Y4613*
X6298*
X6292Y4610*
X6345Y4579D02*
X6351Y4576D01*
X6357*
X6363Y4579*
X6367Y4585*
Y4604*
X6363Y4610*
X6357Y4613*
X6351*
X6345Y4610*
X6342Y4604*
Y4585*
X6345Y4579*
X6363Y4610*
X6316Y1602D02*
Y1482D01*
Y2802D02*
Y2682D01*
Y3602D02*
Y3482D01*
X6367Y1142D02*
X6417D01*
X6367Y1991D02*
X6417D01*
X6367Y2292D02*
X6417D01*
X6367Y3042D02*
X6417D01*
X6367Y4441D02*
X6417D01*
X6392Y1841D02*
X6142D01*
X6392Y1916D02*
Y1766D01*
Y4042D02*
X6142D01*
X6392Y4117D02*
Y3967D01*
Y4642D02*
X6142D01*
X6392Y4717D02*
Y4566D01*
X6404Y2826D02*
Y2863D01*
X6426*
X6432Y2860*
X6435Y2854*
X6432Y2848*
X6426Y2845*
X6404*
X6426D02*
X6435Y2826D01*
X6457Y2829D02*
X6463Y2826D01*
X6470*
X6476Y2829*
X6479Y2835*
X6476Y2842*
X6470Y2845*
X6463*
X6470D02*
X6476Y2848D01*
X6479Y2854*
X6476Y2860*
X6470Y2863*
X6463*
X6457Y2860*
X6510Y2826D02*
X6523D01*
X6516D02*
Y2863D01*
X6510Y2857*
X6417Y1092D02*
Y1192D01*
X6617*
Y1092*
X6417*
Y1941D02*
Y2041D01*
X6617*
Y1941*
X6417*
Y2142D02*
X6367D01*
X6417Y2242D02*
Y2342D01*
X6617*
Y2242*
X6417*
Y2442D02*
X6367D01*
X6417Y2992D02*
Y3092D01*
X6617*
Y2992*
X6417*
Y3242D02*
X6367D01*
X6417Y4242D02*
X6367D01*
X6417Y4392D02*
Y4492D01*
X6617*
Y4392*
X6417*
X6441Y1126D02*
Y1163D01*
X6463*
X6470Y1160*
X6473Y1154*
X6470Y1148*
X6463Y1145*
X6441*
X6463D02*
X6473Y1126D01*
X6495Y1129D02*
X6501Y1126D01*
X6507*
X6513Y1129*
X6516Y1135*
X6513Y1142*
X6507Y1145*
X6501*
X6507D02*
X6513Y1148D01*
X6516Y1154*
X6513Y1160*
X6507Y1163*
X6501*
X6495Y1160*
X6542Y1126D02*
X6566Y1163D01*
X6542*
X6441Y1526D02*
Y1563D01*
X6463*
X6470Y1560*
X6473Y1554*
X6470Y1548*
X6463Y1545*
X6441*
X6463D02*
X6473Y1526D01*
X6495Y1529D02*
X6501Y1526D01*
X6507*
X6513Y1529*
X6516Y1535*
X6513Y1542*
X6507Y1545*
X6501*
X6507D02*
X6513Y1548D01*
X6516Y1554*
X6513Y1560*
X6507Y1563*
X6501*
X6495Y1560*
X6542Y1535D02*
X6545Y1542D01*
X6551Y1545*
X6557*
X6563Y1542*
X6566Y1535*
X6563Y1529*
X6557Y1526*
X6551*
X6545Y1529*
X6542Y1535*
Y1545*
X6545Y1554*
X6551Y1560*
X6557Y1563*
X6441Y1841D02*
X6691D01*
X6441Y1916D02*
Y1766D01*
Y1976D02*
Y2013D01*
X6463*
X6470Y2010*
X6473Y2004*
X6470Y1998*
X6463Y1995*
X6441*
X6463D02*
X6473Y1976D01*
X6495Y1979D02*
X6501Y1976D01*
X6507*
X6513Y1979*
X6516Y1985*
X6513Y1991*
X6507Y1995*
X6501*
X6507D02*
X6513Y1998D01*
X6516Y2004*
X6513Y2010*
X6507Y2013*
X6501*
X6495Y2010*
X6542Y1979D02*
X6548Y1976D01*
X6557*
X6563Y1979*
X6566Y1985*
Y1988*
X6563Y1995*
X6557Y1998*
X6542*
Y2013*
X6566*
X6441Y2126D02*
Y2163D01*
X6463*
X6470Y2160*
X6473Y2154*
X6470Y2148*
X6463Y2145*
X6441*
X6463D02*
X6473Y2126D01*
X6495Y2129D02*
X6501Y2126D01*
X6507*
X6513Y2129*
X6516Y2135*
X6513Y2142*
X6507Y2145*
X6501*
X6507D02*
X6513Y2148D01*
X6516Y2154*
X6513Y2160*
X6507Y2163*
X6501*
X6495Y2160*
X6557Y2126D02*
Y2163D01*
X6542Y2138*
X6566*
X6441Y2276D02*
Y2313D01*
X6463*
X6470Y2310*
X6473Y2304*
X6470Y2298*
X6463Y2295*
X6441*
X6463D02*
X6473Y2276D01*
X6495Y2279D02*
X6501Y2276D01*
X6507*
X6513Y2279*
X6516Y2285*
X6513Y2292*
X6507Y2295*
X6501*
X6507D02*
X6513Y2298D01*
X6516Y2304*
X6513Y2310*
X6507Y2313*
X6501*
X6495Y2310*
X6545Y2279D02*
X6551Y2276D01*
X6557*
X6563Y2279*
X6566Y2285*
X6563Y2292*
X6557Y2295*
X6551*
X6557D02*
X6563Y2298D01*
X6566Y2304*
X6563Y2310*
X6557Y2313*
X6551*
X6545Y2310*
X6441Y2426D02*
Y2463D01*
X6463*
X6470Y2460*
X6473Y2454*
X6470Y2448*
X6463Y2445*
X6441*
X6463D02*
X6473Y2426D01*
X6495Y2429D02*
X6501Y2426D01*
X6507*
X6513Y2429*
X6516Y2435*
X6513Y2442*
X6507Y2445*
X6501*
X6507D02*
X6513Y2448D01*
X6516Y2454*
X6513Y2460*
X6507Y2463*
X6501*
X6495Y2460*
X6566Y2426D02*
X6542D01*
X6563Y2448*
X6566Y2454*
X6563Y2460*
X6557Y2463*
X6548*
X6542Y2460*
X6441Y3026D02*
Y3063D01*
X6463*
X6470Y3060*
X6473Y3054*
X6470Y3048*
X6463Y3045*
X6441*
X6463D02*
X6473Y3026D01*
X6495Y3029D02*
X6501Y3026D01*
X6507*
X6513Y3029*
X6516Y3035*
X6513Y3042*
X6507Y3045*
X6501*
X6507D02*
X6513Y3048D01*
X6516Y3054*
X6513Y3060*
X6507Y3063*
X6501*
X6495Y3060*
X6545Y3029D02*
X6551Y3026D01*
X6557*
X6563Y3029*
X6566Y3035*
Y3054*
X6563Y3060*
X6557Y3063*
X6551*
X6545Y3060*
X6542Y3054*
Y3035*
X6545Y3029*
X6563Y3060*
X6441Y3226D02*
Y3263D01*
X6463*
X6470Y3260*
X6473Y3254*
X6470Y3248*
X6463Y3245*
X6441*
X6463D02*
X6473Y3226D01*
X6516D02*
X6492D01*
X6513Y3248*
X6516Y3254*
X6513Y3260*
X6507Y3263*
X6498*
X6492Y3260*
X6551Y3226D02*
X6557Y3229D01*
X6563Y3235*
X6566Y3245*
Y3254*
X6563Y3260*
X6557Y3263*
X6551*
X6545Y3260*
X6542Y3254*
X6545Y3248*
X6551Y3245*
X6557*
X6563Y3248*
X6566Y3254*
X6441Y4042D02*
X6691D01*
X6441Y4117D02*
Y3967D01*
Y4642D02*
X6691D01*
X6441Y4717D02*
Y4566D01*
X6452Y4194D02*
Y4289D01*
X6454Y4426D02*
Y4463D01*
X6473*
X6479Y4460*
X6482Y4457*
X6485Y4451*
Y4438*
X6482Y4432*
X6479Y4429*
X6473Y4426*
X6454*
X6513D02*
X6520Y4429D01*
X6526Y4435*
X6529Y4445*
Y4454*
X6526Y4460*
X6520Y4463*
X6513*
X6507Y4460*
X6504Y4454*
X6507Y4448*
X6513Y4445*
X6520*
X6526Y4448*
X6529Y4454*
X6479Y3626D02*
Y3663D01*
X6501*
X6507Y3660*
X6510Y3654*
X6507Y3648*
X6501Y3645*
X6479*
X6501D02*
X6510Y3626D01*
X6554D02*
X6529D01*
X6551Y3648*
X6554Y3654*
X6551Y3660*
X6545Y3663*
X6535*
X6529Y3660*
X6588Y3645D02*
X6595D01*
X6601Y3648*
X6604Y3654*
X6601Y3660*
X6595Y3663*
X6588*
X6582Y3660*
X6579Y3654*
X6582Y3648*
X6588Y3645*
X6582Y3642*
X6579Y3635*
X6582Y3629*
X6588Y3626*
X6595*
X6601Y3629*
X6604Y3635*
X6601Y3642*
X6595Y3645*
X6492Y4226D02*
Y4263D01*
X6510*
X6516Y4260*
X6520Y4257*
X6523Y4251*
Y4238*
X6520Y4232*
X6516Y4229*
X6510Y4226*
X6492*
X6551Y4245D02*
X6557D01*
X6563Y4248*
X6566Y4254*
X6563Y4260*
X6557Y4263*
X6551*
X6545Y4260*
X6542Y4254*
X6545Y4248*
X6551Y4245*
X6545Y4242*
X6542Y4235*
X6545Y4229*
X6551Y4226*
X6557*
X6563Y4229*
X6566Y4235*
X6563Y4242*
X6557Y4245*
X6582Y4489D02*
Y4395D01*
X6617Y1142D02*
X6667D01*
X6617Y1991D02*
X6667D01*
X6617Y2192D02*
Y2092D01*
X6417*
Y2192*
X6617*
Y2292D02*
X6667D01*
X6617Y2492D02*
Y2392D01*
X6417*
Y2492*
X6617*
Y3042D02*
X6667D01*
X6617Y3292D02*
Y3192D01*
X6417*
Y3292*
X6617*
Y4292D02*
Y4191D01*
X6417*
Y4292*
X6617*
Y4441D02*
X6667D01*
Y2142D02*
X6617D01*
X6667Y2442D02*
X6617D01*
X6667Y3242D02*
X6617D01*
X6667Y4242D02*
X6617D01*
X6716Y1502D02*
G75*
G02X6557Y1341I-160D01*
G01*
X6316*
Y1402*
X6716Y1582D02*
G75*
G03X6557Y1741I-160D01*
G01*
X6316*
Y1682*
X6716Y2702D02*
G75*
G02X6557Y2542I-160D01*
G01*
X6316*
Y2602*
X6716Y2782D02*
G75*
G03X6557Y2942I-160D01*
G01*
X6316*
Y2882*
X6716Y3502D02*
G75*
G02X6557Y3342I-160D01*
G01*
X6316*
Y3402*
X6716Y3582D02*
G75*
G03X6557Y3742I-160D01*
G01*
X6316*
Y3682*
X6816Y3192D02*
Y3242D01*
Y3442D02*
Y3492D01*
X6832Y3267D02*
X6795D01*
Y3288*
X6798Y3295*
X6804Y3298*
X6810Y3295*
X6813Y3288*
Y3267*
Y3288D02*
X6832Y3298D01*
X6829Y3320D02*
X6832Y3326D01*
Y3332*
X6829Y3338*
X6823Y3342*
X6816Y3338*
X6813Y3332*
Y3326*
Y3332D02*
X6810Y3338D01*
X6804Y3342*
X6798Y3338*
X6795Y3332*
Y3326*
X6798Y3320*
X6813Y3376D02*
Y3382D01*
X6810Y3388*
X6804Y3392*
X6798Y3388*
X6795Y3382*
Y3376*
X6798Y3370*
X6804Y3367*
X6810Y3370*
X6813Y3376*
X6816Y3370*
X6823Y3367*
X6829Y3370*
X6832Y3376*
Y3382*
X6829Y3388*
X6823Y3392*
X6816Y3388*
X6813Y3382*
X6867Y3242D02*
X6766D01*
Y3442*
X6867*
Y3242*
Y3442D02*
X6966D01*
Y3242*
X6867*
Y3442*
X6917Y3242D02*
Y3192D01*
Y3492D02*
Y3442D01*
X6941Y2267D02*
X7091D01*
X6941Y2317D02*
X7091D01*
X6932Y3292D02*
X6895D01*
Y3310*
X6898Y3317*
X6901Y3320*
X6907Y3323*
X6920*
X6926Y3320*
X6929Y3317*
X6932Y3310*
Y3292*
Y3348D02*
Y3360D01*
Y3354D02*
X6895D01*
X6901Y3348*
X6929Y3395D02*
X6932Y3401D01*
Y3407*
X6929Y3413*
X6923Y3417*
X6904*
X6898Y3413*
X6895Y3407*
Y3401*
X6898Y3395*
X6904Y3392*
X6923*
X6929Y3395*
X6898Y3413*
X6963Y3277D02*
X6870D01*
X6963Y2398D02*
X6966Y2395D01*
X6970Y2388*
Y2379*
X6966Y2373*
X6963Y2370*
X6957Y2367*
X6945*
X6938Y2370*
X6935Y2373*
X6932Y2379*
Y2388*
X6935Y2395*
X6938Y2398*
X6970Y2442D02*
Y2417D01*
X6948Y2438*
X6941Y2442*
X6935Y2438*
X6932Y2432*
Y2423*
X6935Y2417*
X6966Y2470D02*
X6970Y2476D01*
Y2482*
X6966Y2488*
X6960Y2492*
X6954Y2488*
X6951Y2482*
Y2476*
Y2482D02*
X6948Y2488D01*
X6941Y2492*
X6935Y2488*
X6932Y2482*
Y2476*
X6935Y2470*
X7016Y1117D02*
G75*
G03X7117Y1016I100D01*
G01*
Y1117*
X7016*
G36*
G75*
G03X7117Y1016I100*
G01*
Y1117*
X7016*
G37*
Y2267D02*
Y1866D01*
Y2317D02*
Y2717D01*
Y4667D02*
G75*
G03X7117Y4566I100D01*
G01*
Y4667*
X7016*
G36*
G75*
G03X7117Y4566I100*
G01*
Y4667*
X7016*
G37*
X7117Y1126D02*
Y1163D01*
X7132Y1145*
X7148Y1163*
Y1126*
X7173Y1151D02*
X7185D01*
X7179Y1157D02*
Y1129D01*
X7182Y1126*
X7185*
X7188Y1129*
X7232Y1126D02*
Y1163D01*
X7216Y1138*
X7242*
X7117Y1217D02*
G75*
G03Y1016J-100D01*
G01*
G75*
G03Y1217J100*
G01*
Y4676D02*
Y4713D01*
X7132Y4695*
X7148Y4713*
Y4676*
X7173Y4701D02*
X7185D01*
X7179Y4707D02*
Y4679D01*
X7182Y4676*
X7185*
X7188Y4679*
X7220D02*
X7226Y4676D01*
X7232*
X7238Y4679*
X7242Y4685*
X7238Y4691*
X7232Y4695*
X7226*
X7232D02*
X7238Y4698D01*
X7242Y4704*
X7238Y4710*
X7232Y4713*
X7226*
X7220Y4710*
X7117Y4767D02*
G75*
G03Y4566J-100D01*
G01*
G75*
G03Y4767J100*
G01*
X7182Y1454D02*
X7145D01*
Y1476*
X7148Y1482*
X7154Y1485*
X7160Y1482*
X7163Y1476*
Y1454*
X7145Y1504D02*
X7182D01*
Y1535*
Y1560D02*
Y1573D01*
Y1566D02*
X7145D01*
X7151Y1560*
X7182Y1620D02*
X7145D01*
X7170Y1604*
Y1629*
X7242Y1454D02*
X7205Y1470D01*
X7242Y1485*
X7227Y1460D02*
Y1479D01*
X7182Y2842D02*
X7145D01*
Y2863*
X7148Y2870*
X7154Y2873*
X7160Y2870*
X7163Y2863*
Y2842*
X7145Y2892D02*
X7182D01*
Y2923*
Y2948D02*
Y2960D01*
Y2954D02*
X7145D01*
X7151Y2948*
X7179Y2995D02*
X7182Y3001D01*
Y3007*
X7179Y3013*
X7173Y3017*
X7167Y3013*
X7163Y3007*
Y3001*
Y3007D02*
X7160Y3013D01*
X7154Y3017*
X7148Y3013*
X7145Y3007*
Y3001*
X7148Y2995*
X7227Y2863D02*
Y2873D01*
X7230*
X7236Y2870*
X7239Y2867*
X7242Y2860*
Y2854*
X7239Y2848*
X7236Y2845*
X7230Y2842*
X7217*
X7211Y2845*
X7208Y2848*
X7205Y2854*
Y2860*
X7208Y2867*
X7211Y2870*
X7217Y2873*
X7239Y2895D02*
X7242Y2901D01*
Y2907*
X7239Y2913*
X7233Y2917*
X7227Y2913*
X7223Y2907*
Y2901*
Y2907D02*
X7220Y2913D01*
X7214Y2917*
X7208Y2913*
X7205Y2907*
Y2901*
X7208Y2895*
X7182Y3079D02*
X7145D01*
Y3101*
X7148Y3107*
X7154Y3110*
X7160Y3107*
X7163Y3101*
Y3079*
X7145Y3129D02*
X7182D01*
Y3160*
Y3185D02*
Y3198D01*
Y3192D02*
X7145D01*
X7151Y3185*
X7182Y3254D02*
Y3229D01*
X7160Y3251*
X7154Y3254*
X7148Y3251*
X7145Y3245*
Y3235*
X7148Y3229*
X7242Y3079D02*
X7205D01*
X7223D02*
Y3088D01*
X7205Y3110*
X7223Y3088D02*
X7242Y3110D01*
X7182Y3292D02*
X7145D01*
Y3313*
X7148Y3320*
X7154Y3323*
X7160Y3320*
X7163Y3313*
Y3292*
X7145Y3342D02*
X7182D01*
Y3373*
Y3398D02*
Y3410D01*
Y3404D02*
X7145D01*
X7151Y3398*
X7182Y3448D02*
Y3460D01*
Y3454D02*
X7145D01*
X7151Y3448*
X7227Y3313D02*
Y3323D01*
X7230*
X7236Y3320*
X7239Y3317*
X7242Y3310*
Y3304*
X7239Y3298*
X7236Y3295*
X7230Y3292*
X7217*
X7211Y3295*
X7208Y3298*
X7205Y3304*
Y3310*
X7208Y3317*
X7211Y3320*
X7217Y3323*
X7242Y3348D02*
Y3360D01*
Y3354D02*
X7205D01*
X7211Y3348*
X7182Y3679D02*
X7145D01*
Y3701*
X7148Y3707*
X7154Y3710*
X7160Y3707*
X7163Y3701*
Y3679*
X7145Y3729D02*
X7182D01*
Y3760*
Y3788D02*
X7179Y3795D01*
X7173Y3801*
X7163Y3804*
X7154*
X7148Y3801*
X7145Y3795*
Y3788*
X7148Y3782*
X7154Y3779*
X7160Y3782*
X7163Y3788*
Y3795*
X7160Y3801*
X7154Y3804*
X7242Y3679D02*
X7205D01*
Y3710*
X7223Y3704D02*
Y3679D01*
X7242Y3735D02*
Y3748D01*
Y3742D02*
X7205D01*
X7211Y3735*
X7185Y3429D02*
X7147D01*
Y3451*
X7150Y3457*
X7157Y3460*
X7163Y3457*
X7166Y3451*
Y3429*
X7147Y3479D02*
X7185D01*
Y3510*
Y3535D02*
Y3548D01*
Y3542D02*
X7147D01*
X7153Y3535*
X7182Y3582D02*
X7185Y3588D01*
Y3595*
X7182Y3601*
X7175Y3604*
X7157*
X7150Y3601*
X7147Y3595*
Y3588*
X7150Y3582*
X7157Y3579*
X7175*
X7182Y3582*
X7150Y3601*
X7245Y3429D02*
X7207D01*
Y3460*
X7226Y3454D02*
Y3429D01*
X7245Y3504D02*
Y3479D01*
X7223Y3501*
X7216Y3504*
X7210Y3501*
X7207Y3495*
Y3485*
X7210Y3479*
X7216Y1117D02*
G75*
G03X7117Y1217I-100D01*
G01*
Y1117*
X7216*
G36*
G75*
G03X7117Y1217I-100*
G01*
Y1117*
X7216*
G37*
Y4667D02*
G75*
G03X7117Y4767I-100D01*
G01*
Y4667*
X7216*
G36*
G75*
G03X7117Y4767I-100*
G01*
Y4667*
X7216*
G37*
D02*
D27*
X6891Y4154D02*
X7091Y4054D01*
X7042Y4154*
X7242Y4054*
X7167Y4066*
X7191Y4104*
X7242Y4054*
D02*
D28*
X2942Y2260D02*
Y2320D01*
X2917D02*
X2967D01*
X2997D02*
Y2275D01*
X3002Y2265*
X3012Y2260*
X3032*
X3042Y2265*
X3047Y2275*
Y2320*
X3112Y2290D02*
X3122Y2285D01*
X3127Y2275*
X3122Y2265*
X3112Y2260*
X3077*
Y2320*
X3112*
X3122Y2315*
X3127Y2305*
X3122Y2295*
X3112Y2290*
X3077*
X3157Y2260D02*
Y2320D01*
X3207*
X3197Y2290D02*
X3157D01*
Y2260D02*
X3207D01*
X3237D02*
Y2320D01*
X3272*
X3282Y2315*
X3287Y2305*
X3282Y2295*
X3272Y2290*
X3237*
X3272D02*
X3287Y2260D01*
X3317Y2280D02*
Y2300D01*
X3322Y2310*
X3327Y2315*
X3337Y2320*
X3347*
X3357Y2315*
X3362Y2310*
X3367Y2300*
Y2280*
X3362Y2270*
X3357Y2265*
X3347Y2260*
X3337*
X3327Y2265*
X3322Y2270*
X3317Y2280*
X3412Y2260D02*
X3432D01*
X3422D02*
Y2320D01*
X3412D02*
X3432D01*
X3477Y2260D02*
Y2320D01*
X3507*
X3517Y2315*
X3522Y2310*
X3527Y2300*
Y2280*
X3522Y2270*
X3517Y2265*
X3507Y2260*
X3477*
X3557Y2275D02*
X3562Y2265D01*
X3572Y2260*
X3592*
X3602Y2265*
X3607Y2275*
X3602Y2285*
X3592Y2290*
X3572*
X3562Y2295*
X3557Y2305*
X3562Y2315*
X3572Y2320*
X3592*
X3602Y2315*
X3607Y2305*
X2952Y2194D02*
X2962Y2189D01*
X2967Y2179*
X2962Y2169*
X2952Y2164*
X2917*
Y2224*
X2952*
X2962Y2219*
X2967Y2209*
X2962Y2199*
X2952Y2194*
X2917*
X3022Y2164D02*
Y2194D01*
X2997Y2224*
X3022Y2194D02*
X3047Y2224D01*
X3207Y2174D02*
X3202Y2169D01*
X3192Y2164*
X3177*
X3167Y2169*
X3162Y2174*
X3157Y2184*
Y2204*
X3162Y2214*
X3167Y2219*
X3177Y2224*
X3192*
X3202Y2219*
X3207Y2214*
X3237Y2164D02*
Y2224D01*
X3262Y2194*
X3287Y2224*
Y2164*
X3437D02*
X3397D01*
X3432Y2199*
X3437Y2209*
X3432Y2219*
X3422Y2224*
X3407*
X3397Y2219*
X3482Y2169D02*
X3492Y2164D01*
X3502*
X3512Y2169*
X3517Y2179*
Y2209*
X3512Y2219*
X3502Y2224*
X3492*
X3482Y2219*
X3477Y2209*
Y2179*
X3482Y2169*
X3512Y2219*
X3562Y2169D02*
X3572Y2164D01*
X3582*
X3592Y2169*
X3597Y2179*
Y2209*
X3592Y2219*
X3582Y2224*
X3572*
X3562Y2219*
X3557Y2209*
Y2179*
X3562Y2169*
X3592Y2219*
X3637Y2164D02*
X3677Y2224D01*
X3637*
X6852Y3979D02*
X6792D01*
Y4009*
X6797Y4019*
X6802Y4024*
X6812Y4029*
X6832*
X6841Y4024*
X6847Y4019*
X6852Y4009*
Y3979*
Y4059D02*
X6792Y4084D01*
X6852Y4109*
X6827Y4069D02*
Y4099D01*
X6852Y4139D02*
X6792D01*
X6852Y4189*
X6792*
X6827Y4254D02*
Y4269D01*
X6832*
X6841Y4264*
X6847Y4259*
X6852Y4249*
Y4239*
X6847Y4229*
X6841Y4224*
X6832Y4219*
X6812*
X6802Y4224*
X6797Y4229*
X6792Y4239*
Y4249*
X6797Y4259*
X6802Y4264*
X6812Y4269*
X6852Y4299D02*
X6792D01*
Y4349*
X6822Y4339D02*
Y4299D01*
X6852D02*
Y4349D01*
Y4379D02*
X6792D01*
Y4414*
X6797Y4424*
X6807Y4429*
X6816Y4424*
X6822Y4414*
Y4379*
Y4414D02*
X6852Y4429D01*
X6948Y3979D02*
X6888D01*
X6918D02*
Y4029D01*
X6948D02*
X6888D01*
X6948Y4074D02*
Y4094D01*
Y4084D02*
X6888D01*
Y4074D02*
Y4094D01*
Y4219D02*
X6948Y4244D01*
X6888Y4269*
X6928Y4299D02*
X6908D01*
X6898Y4304*
X6893Y4309*
X6888Y4319*
Y4329*
X6893Y4339*
X6898Y4344*
X6908Y4349*
X6928*
X6938Y4344*
X6943Y4339*
X6948Y4329*
Y4319*
X6943Y4309*
X6938Y4304*
X6928Y4299*
X6888Y4379D02*
X6948D01*
Y4429*
Y4484D02*
X6888D01*
Y4459D02*
Y4509D01*
D02*
D29*
X4767Y1542D02*
Y1441D01*
X4867*
Y1542*
X4767*
Y2792D02*
Y2692D01*
X4867*
Y2792*
X4767*
X5867Y1542D02*
Y1441D01*
X5967*
Y1542*
X5867*
Y2792D02*
Y2692D01*
X5967*
Y2792*
X5867*
X7016Y1591D02*
Y1492D01*
X7117*
Y1591*
X7016*
Y2992D02*
Y2892D01*
X7117*
Y2992*
X7016*
Y3092D02*
X7117D01*
Y3192*
X7016*
Y3092*
Y3304D02*
X7117D01*
Y3404*
X7016*
Y3304*
Y3792D02*
Y3692D01*
X7117*
Y3792*
X7016*
X7117Y3592D02*
X7016D01*
Y3492*
X7117*
Y3592*
D02*
D72*
X1204Y1304D02*
G75*
G03Y929J-188D01*
G01*
G75*
G03Y1304J188*
G01*
Y4854D02*
G75*
G03Y4479J-188D01*
G01*
G75*
G03Y4854J188*
G01*
X2292Y4612D02*
X4941Y3322*
X7117Y1304*
G75*
G03Y929J-188D01*
G01*
G75*
G03Y1304J188*
G01*
Y4854D02*
G75*
G03Y4479J-188D01*
G01*
G75*
G03Y4854J188*
G01*
X0Y0D02*
M02*
