%FSLAX23Y23*%
%MOIN*%
G04 EasyPC Gerber Version 14.0.2 Build 2922 *
%ADD25C,0.00500*%
%ADD24C,0.10000*%
X0Y0D02*
D02*
D24*
X1204Y1117D03*
Y4667D03*
X1217Y4242D03*
X1229Y3304D03*
Y3704D03*
X1316Y1341D03*
Y1441D03*
Y1741D03*
Y1841D03*
Y1941D03*
Y2041D03*
Y2142D03*
Y2442D03*
Y2542D03*
Y4042D03*
X1417Y1341D03*
Y1441D03*
Y1741D03*
Y1841D03*
Y1941D03*
Y2041D03*
Y2142D03*
Y2442D03*
Y2542D03*
Y2942D03*
Y3142D03*
X1479Y3504D03*
X1516Y1341D03*
Y1441D03*
Y2442D03*
Y2542D03*
Y4042D03*
X1616Y1341D03*
Y1441D03*
Y2442D03*
Y2542D03*
Y2942D03*
Y3142D03*
Y4242D03*
X1629Y3504D03*
X1716Y1341D03*
Y1441D03*
Y2442D03*
Y2542D03*
Y2942D03*
Y3042D03*
Y3142D03*
Y3842D03*
Y3942D03*
Y4042D03*
Y4142D03*
Y4242D03*
Y4441D03*
Y4642D03*
X1816Y1341D03*
Y1441D03*
Y1741D03*
Y2442D03*
Y2542D03*
Y3504D03*
X1916Y1142D03*
Y1341D03*
Y1441D03*
Y2442D03*
Y2542D03*
X2017Y1341D03*
Y1441D03*
Y1741D03*
Y2442D03*
Y2542D03*
Y3842D03*
Y3942D03*
Y4042D03*
Y4142D03*
X2117Y1142D03*
Y1341D03*
Y1441D03*
Y2442D03*
Y2542D03*
Y3504D03*
Y4242D03*
Y4542D03*
X2217Y1341D03*
Y1441D03*
Y1641D03*
Y1841D03*
Y2442D03*
Y2542D03*
Y3842D03*
Y3942D03*
Y4042D03*
X2317Y1142D03*
Y1341D03*
Y1441D03*
Y1741D03*
Y2041D03*
Y2142D03*
Y2242D03*
Y2342D03*
Y2442D03*
Y2542D03*
Y2642D03*
Y3504D03*
Y4542D03*
X2417Y1142D03*
Y1341D03*
Y1441D03*
Y1641D03*
Y1741D03*
Y2041D03*
Y2442D03*
Y2542D03*
X2517Y1341D03*
Y1441D03*
Y1741D03*
Y2041D03*
Y2442D03*
Y2542D03*
Y3042D03*
Y3842D03*
Y3942D03*
Y4042D03*
Y4542D03*
X2617Y1142D03*
Y1341D03*
Y1441D03*
Y1542D03*
Y1641D03*
Y1741D03*
Y2041D03*
Y2442D03*
Y2542D03*
X2717Y1142D03*
Y1341D03*
Y1441D03*
Y1641D03*
Y2041D03*
Y2142D03*
Y2242D03*
Y2342D03*
Y2442D03*
Y2542D03*
Y2642D03*
Y3504D03*
X2817Y1341D03*
Y1441D03*
Y1741D03*
Y2041D03*
Y2442D03*
Y2542D03*
X2917Y1341D03*
Y1441D03*
Y1741D03*
Y2041D03*
Y2442D03*
Y2542D03*
Y2642D03*
Y2742D03*
X3017Y1341D03*
Y1441D03*
Y1542D03*
Y1741D03*
Y2041D03*
Y2442D03*
Y2542D03*
Y3542D03*
Y4441D03*
X3117Y1341D03*
Y1441D03*
Y1741D03*
Y2041D03*
Y2442D03*
Y2542D03*
Y3042D03*
Y3142D03*
X3217Y1341D03*
Y1441D03*
Y1741D03*
Y2041D03*
Y2442D03*
Y2542D03*
Y3542D03*
Y4441D03*
X3317Y1142D03*
Y1341D03*
Y1441D03*
Y1741D03*
Y2041D03*
Y2442D03*
Y2542D03*
Y2642D03*
Y2742D03*
X3417Y1341D03*
Y1441D03*
Y1741D03*
Y2041D03*
Y2442D03*
Y2542D03*
Y2942D03*
Y3142D03*
Y3542D03*
Y4441D03*
X3517Y1341D03*
Y1441D03*
Y1741D03*
Y2041D03*
Y2442D03*
Y2542D03*
X3542Y2779D03*
X3617Y1341D03*
Y1441D03*
Y1741D03*
Y2041D03*
Y2442D03*
Y2542D03*
Y2704D03*
Y3542D03*
Y4441D03*
X3692Y2779D03*
X3717Y1142D03*
Y1341D03*
Y1441D03*
Y1741D03*
Y2041D03*
Y2442D03*
Y2542D03*
X3817Y2942D03*
Y3142D03*
Y3542D03*
Y4441D03*
X3942Y1816D03*
X4017Y1492D03*
Y2742D03*
Y3142D03*
Y3542D03*
Y4441D03*
X4117Y1142D03*
Y1242D03*
Y1341D03*
Y1741D03*
Y1841D03*
Y2041D03*
Y2142D03*
Y2342D03*
Y2442D03*
X4217Y3542D03*
Y4441D03*
X4316Y1142D03*
Y1341D03*
Y1641D03*
Y1841D03*
Y2342D03*
Y2542D03*
Y2842D03*
Y3042D03*
X4417Y1492D03*
X4492Y3142D03*
X4517Y3742D03*
Y4042D03*
Y4642D03*
X4592Y1641D03*
Y1741D03*
Y1841D03*
X4617Y1042D03*
X4717Y1242D03*
Y1741D03*
Y2442D03*
Y2942D03*
Y3392D03*
Y4242D03*
Y4441D03*
X4816Y1492D03*
Y2742D03*
X4917Y3392D03*
X4987Y1391D03*
Y1641D03*
Y2642D03*
Y2892D03*
X5117Y3742D03*
Y4042D03*
Y4242D03*
Y4441D03*
Y4642D03*
X5132Y1192D03*
Y1841D03*
Y2442D03*
Y3092D03*
X5217Y2041D03*
Y2242D03*
Y3342D03*
X5316Y4042D03*
Y4642D03*
X5367Y1117D03*
Y1516D03*
Y1916D03*
Y2367D03*
Y2767D03*
Y3167D03*
X5517Y3642D03*
Y3842D03*
Y4242D03*
Y4441D03*
X5602Y1192D03*
Y1841D03*
Y2442D03*
Y3092D03*
X5617Y2041D03*
Y2242D03*
Y3342D03*
X5747Y1641D03*
Y2892D03*
X5816Y1142D03*
X5917Y1492D03*
Y1641D03*
Y2041D03*
Y2242D03*
Y2642D03*
Y2742D03*
Y3642D03*
Y3842D03*
Y4042D03*
Y4242D03*
Y4441D03*
Y4642D03*
X6117Y1841D03*
Y2242D03*
Y2642D03*
Y3242D03*
Y3842D03*
Y4042D03*
Y4642D03*
X6217Y1142D03*
X6316D03*
Y1441D03*
Y1641D03*
Y1991D03*
Y2142D03*
Y2292D03*
Y2442D03*
Y2642D03*
Y2842D03*
Y3042D03*
Y3242D03*
Y3442D03*
Y3642D03*
Y4242D03*
Y4441D03*
X6516Y3842D03*
X6716Y1142D03*
Y1542D03*
Y1841D03*
Y1991D03*
Y2142D03*
Y2292D03*
Y2442D03*
Y2742D03*
Y3042D03*
Y3242D03*
Y3542D03*
Y3842D03*
Y4042D03*
Y4242D03*
Y4441D03*
Y4642D03*
X6816Y3142D03*
Y3542D03*
X6917Y3142D03*
Y3542D03*
X7016Y1841D03*
Y2142D03*
Y2742D03*
X7066Y1542D03*
Y2942D03*
Y3142D03*
Y3354D03*
Y3542D03*
Y3742D03*
X7117Y1117D03*
Y4667D03*
D02*
D25*
X1304Y1176D02*
X1320Y1213D01*
X1335Y1176*
X1310Y1192D02*
X1329D01*
X1304Y4726D02*
X1320Y4763D01*
X1335Y4726*
X1310Y4742D02*
X1329D01*
X1316Y4301D02*
Y4338D01*
X1348*
X1341Y4320D02*
X1316D01*
Y4301D02*
X1348D01*
X1360Y3370D02*
X1357Y3367D01*
X1351Y3363*
X1341*
X1335Y3367*
X1332Y3370*
X1329Y3376*
Y3388*
X1332Y3395*
X1335Y3398*
X1341Y3401*
X1351*
X1357Y3398*
X1360Y3395*
Y3770D02*
X1357Y3767D01*
X1351Y3763*
X1341*
X1335Y3767*
X1332Y3770*
X1329Y3776*
Y3788*
X1332Y3795*
X1335Y3798*
X1341Y3801*
X1351*
X1357Y3798*
X1360Y3795*
X1438Y1417D02*
X1448D01*
Y1413*
X1445Y1407*
X1441Y1404*
X1435Y1401*
X1429*
X1423Y1404*
X1420Y1407*
X1417Y1413*
Y1426*
X1420Y1432*
X1423Y1435*
X1429Y1438*
X1435*
X1441Y1435*
X1445Y1432*
X1448Y1426*
X1438Y1516D02*
X1448D01*
Y1513*
X1445Y1507*
X1441Y1504*
X1435Y1501*
X1429*
X1423Y1504*
X1420Y1507*
X1417Y1513*
Y1526*
X1420Y1532*
X1423Y1535*
X1429Y1538*
X1435*
X1441Y1535*
X1445Y1532*
X1448Y1526*
X1438Y1816D02*
X1448D01*
Y1813*
X1445Y1807*
X1441Y1804*
X1435Y1801*
X1429*
X1423Y1804*
X1420Y1807*
X1417Y1813*
Y1826*
X1420Y1832*
X1423Y1835*
X1429Y1838*
X1435*
X1441Y1835*
X1445Y1832*
X1448Y1826*
X1438Y1916D02*
X1448D01*
Y1913*
X1445Y1907*
X1441Y1904*
X1435Y1901*
X1429*
X1423Y1904*
X1420Y1907*
X1417Y1913*
Y1926*
X1420Y1932*
X1423Y1935*
X1429Y1938*
X1435*
X1441Y1935*
X1445Y1932*
X1448Y1926*
X1438Y2017D02*
X1448D01*
Y2013*
X1445Y2007*
X1441Y2004*
X1435Y2001*
X1429*
X1423Y2004*
X1420Y2007*
X1417Y2013*
Y2026*
X1420Y2032*
X1423Y2035*
X1429Y2038*
X1435*
X1441Y2035*
X1445Y2032*
X1448Y2026*
X1438Y2117D02*
X1448D01*
Y2113*
X1445Y2107*
X1441Y2104*
X1435Y2101*
X1429*
X1423Y2104*
X1420Y2107*
X1417Y2113*
Y2126*
X1420Y2132*
X1423Y2135*
X1429Y2138*
X1435*
X1441Y2135*
X1445Y2132*
X1448Y2126*
X1438Y2217D02*
X1448D01*
Y2213*
X1445Y2207*
X1441Y2204*
X1435Y2201*
X1429*
X1423Y2204*
X1420Y2207*
X1417Y2213*
Y2226*
X1420Y2232*
X1423Y2235*
X1429Y2238*
X1435*
X1441Y2235*
X1445Y2232*
X1448Y2226*
X1438Y2517D02*
X1448D01*
Y2513*
X1445Y2507*
X1441Y2504*
X1435Y2501*
X1429*
X1423Y2504*
X1420Y2507*
X1417Y2513*
Y2526*
X1420Y2532*
X1423Y2535*
X1429Y2538*
X1435*
X1441Y2535*
X1445Y2532*
X1448Y2526*
X1438Y2617D02*
X1448D01*
Y2613*
X1445Y2607*
X1441Y2604*
X1435Y2601*
X1429*
X1423Y2604*
X1420Y2607*
X1417Y2613*
Y2626*
X1420Y2632*
X1423Y2635*
X1429Y2638*
X1435*
X1441Y2635*
X1445Y2632*
X1448Y2626*
X1417Y4101D02*
Y4138D01*
X1448*
X1441Y4120D02*
X1417D01*
Y4101D02*
X1448D01*
X1538Y1417D02*
X1548D01*
Y1413*
X1545Y1407*
X1542Y1404*
X1535Y1401*
X1529*
X1523Y1404*
X1520Y1407*
X1516Y1413*
Y1426*
X1520Y1432*
X1523Y1435*
X1529Y1438*
X1535*
X1542Y1435*
X1545Y1432*
X1548Y1426*
X1538Y1516D02*
X1548D01*
Y1513*
X1545Y1507*
X1542Y1504*
X1535Y1501*
X1529*
X1523Y1504*
X1520Y1507*
X1516Y1513*
Y1526*
X1520Y1532*
X1523Y1535*
X1529Y1538*
X1535*
X1542Y1535*
X1545Y1532*
X1548Y1526*
X1538Y1816D02*
X1548D01*
Y1813*
X1545Y1807*
X1542Y1804*
X1535Y1801*
X1529*
X1523Y1804*
X1520Y1807*
X1516Y1813*
Y1826*
X1520Y1832*
X1523Y1835*
X1529Y1838*
X1535*
X1542Y1835*
X1545Y1832*
X1548Y1826*
X1538Y1916D02*
X1548D01*
Y1913*
X1545Y1907*
X1542Y1904*
X1535Y1901*
X1529*
X1523Y1904*
X1520Y1907*
X1516Y1913*
Y1926*
X1520Y1932*
X1523Y1935*
X1529Y1938*
X1535*
X1542Y1935*
X1545Y1932*
X1548Y1926*
X1538Y2017D02*
X1548D01*
Y2013*
X1545Y2007*
X1542Y2004*
X1535Y2001*
X1529*
X1523Y2004*
X1520Y2007*
X1516Y2013*
Y2026*
X1520Y2032*
X1523Y2035*
X1529Y2038*
X1535*
X1542Y2035*
X1545Y2032*
X1548Y2026*
X1538Y2117D02*
X1548D01*
Y2113*
X1545Y2107*
X1542Y2104*
X1535Y2101*
X1529*
X1523Y2104*
X1520Y2107*
X1516Y2113*
Y2126*
X1520Y2132*
X1523Y2135*
X1529Y2138*
X1535*
X1542Y2135*
X1545Y2132*
X1548Y2126*
X1538Y2217D02*
X1548D01*
Y2213*
X1545Y2207*
X1542Y2204*
X1535Y2201*
X1529*
X1523Y2204*
X1520Y2207*
X1516Y2213*
Y2226*
X1520Y2232*
X1523Y2235*
X1529Y2238*
X1535*
X1542Y2235*
X1545Y2232*
X1548Y2226*
X1538Y2517D02*
X1548D01*
Y2513*
X1545Y2507*
X1542Y2504*
X1535Y2501*
X1529*
X1523Y2504*
X1520Y2507*
X1516Y2513*
Y2526*
X1520Y2532*
X1523Y2535*
X1529Y2538*
X1535*
X1542Y2535*
X1545Y2532*
X1548Y2526*
X1538Y2617D02*
X1548D01*
Y2613*
X1545Y2607*
X1542Y2604*
X1535Y2601*
X1529*
X1523Y2604*
X1520Y2607*
X1516Y2613*
Y2626*
X1520Y2632*
X1523Y2635*
X1529Y2638*
X1535*
X1542Y2635*
X1545Y2632*
X1548Y2626*
X1516Y3001D02*
Y3038D01*
X1548*
X1542Y3020D02*
X1516D01*
Y3001D02*
X1548D01*
X1516Y3201D02*
Y3238D01*
X1548*
X1542Y3220D02*
X1516D01*
Y3201D02*
X1548D01*
X1610Y3570D02*
X1607Y3567D01*
X1601Y3563*
X1591*
X1585Y3567*
X1582Y3570*
X1579Y3576*
Y3588*
X1582Y3595*
X1585Y3598*
X1591Y3601*
X1601*
X1607Y3598*
X1610Y3595*
X1638Y1417D02*
X1648D01*
Y1413*
X1645Y1407*
X1641Y1404*
X1635Y1401*
X1629*
X1623Y1404*
X1620Y1407*
X1616Y1413*
Y1426*
X1620Y1432*
X1623Y1435*
X1629Y1438*
X1635*
X1641Y1435*
X1645Y1432*
X1648Y1426*
X1638Y1516D02*
X1648D01*
Y1513*
X1645Y1507*
X1641Y1504*
X1635Y1501*
X1629*
X1623Y1504*
X1620Y1507*
X1616Y1513*
Y1526*
X1620Y1532*
X1623Y1535*
X1629Y1538*
X1635*
X1641Y1535*
X1645Y1532*
X1648Y1526*
X1638Y2517D02*
X1648D01*
Y2513*
X1645Y2507*
X1641Y2504*
X1635Y2501*
X1629*
X1623Y2504*
X1620Y2507*
X1616Y2513*
Y2526*
X1620Y2532*
X1623Y2535*
X1629Y2538*
X1635*
X1641Y2535*
X1645Y2532*
X1648Y2526*
X1638Y2617D02*
X1648D01*
Y2613*
X1645Y2607*
X1641Y2604*
X1635Y2601*
X1629*
X1623Y2604*
X1620Y2607*
X1616Y2613*
Y2626*
X1620Y2632*
X1623Y2635*
X1629Y2638*
X1635*
X1641Y2635*
X1645Y2632*
X1648Y2626*
X1616Y4101D02*
Y4138D01*
X1648*
X1641Y4120D02*
X1616D01*
Y4101D02*
X1648D01*
X1738Y1417D02*
X1748D01*
Y1413*
X1745Y1407*
X1741Y1404*
X1735Y1401*
X1729*
X1723Y1404*
X1720Y1407*
X1716Y1413*
Y1426*
X1720Y1432*
X1723Y1435*
X1729Y1438*
X1735*
X1741Y1435*
X1745Y1432*
X1748Y1426*
X1738Y1516D02*
X1748D01*
Y1513*
X1745Y1507*
X1741Y1504*
X1735Y1501*
X1729*
X1723Y1504*
X1720Y1507*
X1716Y1513*
Y1526*
X1720Y1532*
X1723Y1535*
X1729Y1538*
X1735*
X1741Y1535*
X1745Y1532*
X1748Y1526*
X1738Y2517D02*
X1748D01*
Y2513*
X1745Y2507*
X1741Y2504*
X1735Y2501*
X1729*
X1723Y2504*
X1720Y2507*
X1716Y2513*
Y2526*
X1720Y2532*
X1723Y2535*
X1729Y2538*
X1735*
X1741Y2535*
X1745Y2532*
X1748Y2526*
X1738Y2617D02*
X1748D01*
Y2613*
X1745Y2607*
X1741Y2604*
X1735Y2601*
X1729*
X1723Y2604*
X1720Y2607*
X1716Y2613*
Y2626*
X1720Y2632*
X1723Y2635*
X1729Y2638*
X1735*
X1741Y2635*
X1745Y2632*
X1748Y2626*
X1716Y3001D02*
Y3038D01*
X1748*
X1741Y3020D02*
X1716D01*
Y3001D02*
X1748D01*
X1716Y3201D02*
Y3238D01*
X1748*
X1741Y3220D02*
X1716D01*
Y3201D02*
X1748D01*
X1716Y4301D02*
Y4338D01*
X1748*
X1741Y4320D02*
X1716D01*
Y4301D02*
X1748D01*
X1760Y3570D02*
X1757Y3567D01*
X1751Y3563*
X1741*
X1735Y3567*
X1732Y3570*
X1729Y3576*
Y3588*
X1732Y3595*
X1735Y3598*
X1741Y3601*
X1751*
X1757Y3598*
X1760Y3595*
X1838Y1417D02*
X1848D01*
Y1413*
X1845Y1407*
X1841Y1404*
X1835Y1401*
X1829*
X1823Y1404*
X1820Y1407*
X1816Y1413*
Y1426*
X1820Y1432*
X1823Y1435*
X1829Y1438*
X1835*
X1841Y1435*
X1845Y1432*
X1848Y1426*
X1838Y1516D02*
X1848D01*
Y1513*
X1845Y1507*
X1841Y1504*
X1835Y1501*
X1829*
X1823Y1504*
X1820Y1507*
X1816Y1513*
Y1526*
X1820Y1532*
X1823Y1535*
X1829Y1538*
X1835*
X1841Y1535*
X1845Y1532*
X1848Y1526*
X1838Y2517D02*
X1848D01*
Y2513*
X1845Y2507*
X1841Y2504*
X1835Y2501*
X1829*
X1823Y2504*
X1820Y2507*
X1816Y2513*
Y2526*
X1820Y2532*
X1823Y2535*
X1829Y2538*
X1835*
X1841Y2535*
X1845Y2532*
X1848Y2526*
X1838Y2617D02*
X1848D01*
Y2613*
X1845Y2607*
X1841Y2604*
X1835Y2601*
X1829*
X1823Y2604*
X1820Y2607*
X1816Y2613*
Y2626*
X1820Y2632*
X1823Y2635*
X1829Y2638*
X1835*
X1841Y2635*
X1845Y2632*
X1848Y2626*
X1816Y3001D02*
Y3038D01*
X1835*
X1841Y3035*
X1845Y3032*
X1848Y3026*
Y3013*
X1845Y3007*
X1841Y3004*
X1835Y3001*
X1816*
Y3101D02*
Y3138D01*
X1835*
X1841Y3135*
X1845Y3132*
X1848Y3126*
Y3113*
X1845Y3107*
X1841Y3104*
X1835Y3101*
X1816*
Y3201D02*
Y3238D01*
X1835*
X1841Y3235*
X1845Y3232*
X1848Y3226*
Y3213*
X1845Y3207*
X1841Y3204*
X1835Y3201*
X1816*
Y3901D02*
Y3938D01*
X1848*
X1841Y3920D02*
X1816D01*
Y3901D02*
X1848D01*
X1816Y4001D02*
Y4038D01*
X1848*
X1841Y4020D02*
X1816D01*
Y4001D02*
X1848D01*
X1816Y4101D02*
Y4138D01*
X1848*
X1841Y4120D02*
X1816D01*
Y4101D02*
X1848D01*
X1816Y4201D02*
Y4238D01*
X1848*
X1841Y4220D02*
X1816D01*
Y4201D02*
X1848D01*
X1816Y4301D02*
Y4338D01*
X1848*
X1841Y4320D02*
X1816D01*
Y4301D02*
X1848D01*
X1838Y4520D02*
X1845Y4517D01*
X1848Y4510*
X1845Y4504*
X1838Y4501*
X1816*
Y4538*
X1838*
X1845Y4535*
X1848Y4529*
X1845Y4523*
X1838Y4520*
X1816*
X1838Y4720D02*
X1845Y4717D01*
X1848Y4710*
X1845Y4704*
X1838Y4701*
X1816*
Y4738*
X1838*
X1845Y4735*
X1848Y4729*
X1845Y4723*
X1838Y4720*
X1816*
X1938Y1417D02*
X1948D01*
Y1413*
X1945Y1407*
X1941Y1404*
X1935Y1401*
X1929*
X1923Y1404*
X1920Y1407*
X1916Y1413*
Y1426*
X1920Y1432*
X1923Y1435*
X1929Y1438*
X1935*
X1941Y1435*
X1945Y1432*
X1948Y1426*
X1938Y1516D02*
X1948D01*
Y1513*
X1945Y1507*
X1941Y1504*
X1935Y1501*
X1929*
X1923Y1504*
X1920Y1507*
X1916Y1513*
Y1526*
X1920Y1532*
X1923Y1535*
X1929Y1538*
X1935*
X1941Y1535*
X1945Y1532*
X1948Y1526*
X1938Y1820D02*
X1945Y1816D01*
X1948Y1810*
X1945Y1804*
X1938Y1801*
X1916*
Y1838*
X1938*
X1945Y1835*
X1948Y1829*
X1945Y1823*
X1938Y1820*
X1916*
X1938Y2517D02*
X1948D01*
Y2513*
X1945Y2507*
X1941Y2504*
X1935Y2501*
X1929*
X1923Y2504*
X1920Y2507*
X1916Y2513*
Y2526*
X1920Y2532*
X1923Y2535*
X1929Y2538*
X1935*
X1941Y2535*
X1945Y2532*
X1948Y2526*
X1938Y2617D02*
X1948D01*
Y2613*
X1945Y2607*
X1941Y2604*
X1935Y2601*
X1929*
X1923Y2604*
X1920Y2607*
X1916Y2613*
Y2626*
X1920Y2632*
X1923Y2635*
X1929Y2638*
X1935*
X1941Y2635*
X1945Y2632*
X1948Y2626*
X1938Y3582D02*
X1945Y3579D01*
X1948Y3573*
X1945Y3567*
X1938Y3563*
X1916*
Y3601*
X1938*
X1945Y3598*
X1948Y3592*
X1945Y3585*
X1938Y3582*
X1916*
X2017Y1201D02*
Y1238D01*
X2048*
X2041Y1220D02*
X2017D01*
Y1201D02*
X2048D01*
X2038Y1417D02*
X2048D01*
Y1413*
X2045Y1407*
X2041Y1404*
X2035Y1401*
X2029*
X2023Y1404*
X2020Y1407*
X2017Y1413*
Y1426*
X2020Y1432*
X2023Y1435*
X2029Y1438*
X2035*
X2041Y1435*
X2045Y1432*
X2048Y1426*
X2038Y1516D02*
X2048D01*
Y1513*
X2045Y1507*
X2041Y1504*
X2035Y1501*
X2029*
X2023Y1504*
X2020Y1507*
X2017Y1513*
Y1526*
X2020Y1532*
X2023Y1535*
X2029Y1538*
X2035*
X2041Y1535*
X2045Y1532*
X2048Y1526*
X2038Y2517D02*
X2048D01*
Y2513*
X2045Y2507*
X2041Y2504*
X2035Y2501*
X2029*
X2023Y2504*
X2020Y2507*
X2017Y2513*
Y2526*
X2020Y2532*
X2023Y2535*
X2029Y2538*
X2035*
X2041Y2535*
X2045Y2532*
X2048Y2526*
X2038Y2617D02*
X2048D01*
Y2613*
X2045Y2607*
X2041Y2604*
X2035Y2601*
X2029*
X2023Y2604*
X2020Y2607*
X2017Y2613*
Y2626*
X2020Y2632*
X2023Y2635*
X2029Y2638*
X2035*
X2041Y2635*
X2045Y2632*
X2048Y2626*
X2138Y1417D02*
X2148D01*
Y1413*
X2145Y1407*
X2142Y1404*
X2135Y1401*
X2129*
X2123Y1404*
X2120Y1407*
X2117Y1413*
Y1426*
X2120Y1432*
X2123Y1435*
X2129Y1438*
X2135*
X2142Y1435*
X2145Y1432*
X2148Y1426*
X2138Y1516D02*
X2148D01*
Y1513*
X2145Y1507*
X2142Y1504*
X2135Y1501*
X2129*
X2123Y1504*
X2120Y1507*
X2117Y1513*
Y1526*
X2120Y1532*
X2123Y1535*
X2129Y1538*
X2135*
X2142Y1535*
X2145Y1532*
X2148Y1526*
X2117Y1801D02*
X2132Y1838D01*
X2148Y1801*
X2123Y1816D02*
X2142D01*
X2138Y2517D02*
X2148D01*
Y2513*
X2145Y2507*
X2142Y2504*
X2135Y2501*
X2129*
X2123Y2504*
X2120Y2507*
X2117Y2513*
Y2526*
X2120Y2532*
X2123Y2535*
X2129Y2538*
X2135*
X2142Y2535*
X2145Y2532*
X2148Y2526*
X2138Y2617D02*
X2148D01*
Y2613*
X2145Y2607*
X2142Y2604*
X2135Y2601*
X2129*
X2123Y2604*
X2120Y2607*
X2117Y2613*
Y2626*
X2120Y2632*
X2123Y2635*
X2129Y2638*
X2135*
X2142Y2635*
X2145Y2632*
X2148Y2626*
X2117Y3901D02*
Y3938D01*
X2148*
X2142Y3920D02*
X2117D01*
Y3901D02*
X2148D01*
X2117Y4001D02*
Y4038D01*
X2148*
X2142Y4020D02*
X2117D01*
Y4001D02*
X2148D01*
X2117Y4101D02*
Y4138D01*
X2148*
X2142Y4120D02*
X2117D01*
Y4101D02*
X2148D01*
X2117Y4201D02*
Y4238D01*
X2148*
X2142Y4220D02*
X2117D01*
Y4201D02*
X2148D01*
X2217Y1201D02*
Y1238D01*
X2248*
X2242Y1220D02*
X2217D01*
Y1201D02*
X2248D01*
X2238Y1417D02*
X2248D01*
Y1413*
X2245Y1407*
X2242Y1404*
X2235Y1401*
X2229*
X2223Y1404*
X2220Y1407*
X2217Y1413*
Y1426*
X2220Y1432*
X2223Y1435*
X2229Y1438*
X2235*
X2242Y1435*
X2245Y1432*
X2248Y1426*
X2238Y1516D02*
X2248D01*
Y1513*
X2245Y1507*
X2242Y1504*
X2235Y1501*
X2229*
X2223Y1504*
X2220Y1507*
X2217Y1513*
Y1526*
X2220Y1532*
X2223Y1535*
X2229Y1538*
X2235*
X2242Y1535*
X2245Y1532*
X2248Y1526*
X2238Y2517D02*
X2248D01*
Y2513*
X2245Y2507*
X2242Y2504*
X2235Y2501*
X2229*
X2223Y2504*
X2220Y2507*
X2217Y2513*
Y2526*
X2220Y2532*
X2223Y2535*
X2229Y2538*
X2235*
X2242Y2535*
X2245Y2532*
X2248Y2526*
X2238Y2617D02*
X2248D01*
Y2613*
X2245Y2607*
X2242Y2604*
X2235Y2601*
X2229*
X2223Y2604*
X2220Y2607*
X2217Y2613*
Y2626*
X2220Y2632*
X2223Y2635*
X2229Y2638*
X2235*
X2242Y2635*
X2245Y2632*
X2248Y2626*
X2238Y3582D02*
X2245Y3579D01*
X2248Y3573*
X2245Y3567*
X2238Y3563*
X2217*
Y3601*
X2238*
X2245Y3598*
X2248Y3592*
X2245Y3585*
X2238Y3582*
X2217*
Y4301D02*
Y4338D01*
X2248*
X2242Y4320D02*
X2217D01*
Y4301D02*
X2248D01*
X2238Y4620D02*
X2245Y4617D01*
X2248Y4610*
X2245Y4604*
X2238Y4601*
X2217*
Y4638*
X2238*
X2245Y4635*
X2248Y4629*
X2245Y4623*
X2238Y4620*
X2217*
X2338Y1417D02*
X2348D01*
Y1413*
X2345Y1407*
X2342Y1404*
X2335Y1401*
X2329*
X2323Y1404*
X2320Y1407*
X2317Y1413*
Y1426*
X2320Y1432*
X2323Y1435*
X2329Y1438*
X2335*
X2342Y1435*
X2345Y1432*
X2348Y1426*
X2338Y1516D02*
X2348D01*
Y1513*
X2345Y1507*
X2342Y1504*
X2335Y1501*
X2329*
X2323Y1504*
X2320Y1507*
X2317Y1513*
Y1526*
X2320Y1532*
X2323Y1535*
X2329Y1538*
X2335*
X2342Y1535*
X2345Y1532*
X2348Y1526*
X2338Y1720D02*
X2345Y1716D01*
X2348Y1710*
X2345Y1704*
X2338Y1701*
X2317*
Y1738*
X2338*
X2345Y1735*
X2348Y1729*
X2345Y1723*
X2338Y1720*
X2317*
X2338Y1920D02*
X2345Y1916D01*
X2348Y1910*
X2345Y1904*
X2338Y1901*
X2317*
Y1938*
X2338*
X2345Y1935*
X2348Y1929*
X2345Y1923*
X2338Y1920*
X2317*
X2338Y2517D02*
X2348D01*
Y2513*
X2345Y2507*
X2342Y2504*
X2335Y2501*
X2329*
X2323Y2504*
X2320Y2507*
X2317Y2513*
Y2526*
X2320Y2532*
X2323Y2535*
X2329Y2538*
X2335*
X2342Y2535*
X2345Y2532*
X2348Y2526*
X2338Y2617D02*
X2348D01*
Y2613*
X2345Y2607*
X2342Y2604*
X2335Y2601*
X2329*
X2323Y2604*
X2320Y2607*
X2317Y2613*
Y2626*
X2320Y2632*
X2323Y2635*
X2329Y2638*
X2335*
X2342Y2635*
X2345Y2632*
X2348Y2626*
X2317Y3901D02*
Y3938D01*
X2335*
X2342Y3935*
X2345Y3932*
X2348Y3926*
Y3913*
X2345Y3907*
X2342Y3904*
X2335Y3901*
X2317*
Y4001D02*
Y4038D01*
X2335*
X2342Y4035*
X2345Y4032*
X2348Y4026*
Y4013*
X2345Y4007*
X2342Y4004*
X2335Y4001*
X2317*
Y4101D02*
Y4138D01*
X2335*
X2342Y4135*
X2345Y4132*
X2348Y4126*
Y4113*
X2345Y4107*
X2342Y4104*
X2335Y4101*
X2317*
X2417Y1201D02*
Y1238D01*
X2448*
X2442Y1220D02*
X2417D01*
Y1201D02*
X2448D01*
X2438Y1417D02*
X2448D01*
Y1413*
X2445Y1407*
X2442Y1404*
X2435Y1401*
X2429*
X2423Y1404*
X2420Y1407*
X2417Y1413*
Y1426*
X2420Y1432*
X2423Y1435*
X2429Y1438*
X2435*
X2442Y1435*
X2445Y1432*
X2448Y1426*
X2438Y1516D02*
X2448D01*
Y1513*
X2445Y1507*
X2442Y1504*
X2435Y1501*
X2429*
X2423Y1504*
X2420Y1507*
X2417Y1513*
Y1526*
X2420Y1532*
X2423Y1535*
X2429Y1538*
X2435*
X2442Y1535*
X2445Y1532*
X2448Y1526*
X2417Y1801D02*
Y1838D01*
X2448*
X2442Y1820D02*
X2417D01*
Y1801D02*
X2448D01*
X2417Y2101D02*
Y2138D01*
X2448*
X2442Y2120D02*
X2417D01*
Y2101D02*
X2448D01*
X2417Y2201D02*
Y2238D01*
X2448*
X2442Y2220D02*
X2417D01*
Y2201D02*
X2448D01*
X2417Y2301D02*
Y2338D01*
X2448*
X2442Y2320D02*
X2417D01*
Y2301D02*
X2448D01*
X2417Y2401D02*
Y2438D01*
X2448*
X2442Y2420D02*
X2417D01*
Y2401D02*
X2448D01*
X2438Y2517D02*
X2448D01*
Y2513*
X2445Y2507*
X2442Y2504*
X2435Y2501*
X2429*
X2423Y2504*
X2420Y2507*
X2417Y2513*
Y2526*
X2420Y2532*
X2423Y2535*
X2429Y2538*
X2435*
X2442Y2535*
X2445Y2532*
X2448Y2526*
X2438Y2617D02*
X2448D01*
Y2613*
X2445Y2607*
X2442Y2604*
X2435Y2601*
X2429*
X2423Y2604*
X2420Y2607*
X2417Y2613*
Y2626*
X2420Y2632*
X2423Y2635*
X2429Y2638*
X2435*
X2442Y2635*
X2445Y2632*
X2448Y2626*
X2417Y2701D02*
Y2738D01*
X2448*
X2442Y2720D02*
X2417D01*
Y2701D02*
X2448D01*
X2438Y3582D02*
X2445Y3579D01*
X2448Y3573*
X2445Y3567*
X2438Y3563*
X2417*
Y3601*
X2438*
X2445Y3598*
X2448Y3592*
X2445Y3585*
X2438Y3582*
X2417*
Y4601D02*
Y4638D01*
X2435*
X2442Y4635*
X2445Y4632*
X2448Y4626*
Y4613*
X2445Y4607*
X2442Y4604*
X2435Y4601*
X2417*
X2517Y1201D02*
Y1238D01*
X2548*
X2542Y1220D02*
X2517D01*
Y1201D02*
X2548D01*
X2538Y1417D02*
X2548D01*
Y1413*
X2545Y1407*
X2542Y1404*
X2535Y1401*
X2529*
X2523Y1404*
X2520Y1407*
X2517Y1413*
Y1426*
X2520Y1432*
X2523Y1435*
X2529Y1438*
X2535*
X2542Y1435*
X2545Y1432*
X2548Y1426*
X2538Y1516D02*
X2548D01*
Y1513*
X2545Y1507*
X2542Y1504*
X2535Y1501*
X2529*
X2523Y1504*
X2520Y1507*
X2517Y1513*
Y1526*
X2520Y1532*
X2523Y1535*
X2529Y1538*
X2535*
X2542Y1535*
X2545Y1532*
X2548Y1526*
X2517Y1701D02*
Y1738D01*
X2548*
X2542Y1720D02*
X2517D01*
Y1701D02*
X2548D01*
X2517Y1801D02*
Y1838D01*
X2548*
X2542Y1820D02*
X2517D01*
Y1801D02*
X2548D01*
X2517Y2101D02*
Y2138D01*
X2548*
X2542Y2120D02*
X2517D01*
Y2101D02*
X2548D01*
X2538Y2517D02*
X2548D01*
Y2513*
X2545Y2507*
X2542Y2504*
X2535Y2501*
X2529*
X2523Y2504*
X2520Y2507*
X2517Y2513*
Y2526*
X2520Y2532*
X2523Y2535*
X2529Y2538*
X2535*
X2542Y2535*
X2545Y2532*
X2548Y2526*
X2538Y2617D02*
X2548D01*
Y2613*
X2545Y2607*
X2542Y2604*
X2535Y2601*
X2529*
X2523Y2604*
X2520Y2607*
X2517Y2613*
Y2626*
X2520Y2632*
X2523Y2635*
X2529Y2638*
X2535*
X2542Y2635*
X2545Y2632*
X2548Y2626*
X2638Y1417D02*
X2648D01*
Y1413*
X2645Y1407*
X2642Y1404*
X2635Y1401*
X2629*
X2623Y1404*
X2620Y1407*
X2617Y1413*
Y1426*
X2620Y1432*
X2623Y1435*
X2629Y1438*
X2635*
X2642Y1435*
X2645Y1432*
X2648Y1426*
X2638Y1516D02*
X2648D01*
Y1513*
X2645Y1507*
X2642Y1504*
X2635Y1501*
X2629*
X2623Y1504*
X2620Y1507*
X2617Y1513*
Y1526*
X2620Y1532*
X2623Y1535*
X2629Y1538*
X2635*
X2642Y1535*
X2645Y1532*
X2648Y1526*
X2617Y1801D02*
Y1838D01*
X2648*
X2642Y1820D02*
X2617D01*
Y1801D02*
X2648D01*
X2617Y2101D02*
Y2138D01*
X2648*
X2642Y2120D02*
X2617D01*
Y2101D02*
X2648D01*
X2638Y2517D02*
X2648D01*
Y2513*
X2645Y2507*
X2642Y2504*
X2635Y2501*
X2629*
X2623Y2504*
X2620Y2507*
X2617Y2513*
Y2526*
X2620Y2532*
X2623Y2535*
X2629Y2538*
X2635*
X2642Y2535*
X2645Y2532*
X2648Y2526*
X2638Y2617D02*
X2648D01*
Y2613*
X2645Y2607*
X2642Y2604*
X2635Y2601*
X2629*
X2623Y2604*
X2620Y2607*
X2617Y2613*
Y2626*
X2620Y2632*
X2623Y2635*
X2629Y2638*
X2635*
X2642Y2635*
X2645Y2632*
X2648Y2626*
X2617Y3101D02*
X2632Y3138D01*
X2648Y3101*
X2623Y3117D02*
X2642D01*
X2617Y3901D02*
Y3938D01*
X2635*
X2642Y3935*
X2645Y3932*
X2648Y3926*
Y3913*
X2645Y3907*
X2642Y3904*
X2635Y3901*
X2617*
Y4001D02*
Y4038D01*
X2635*
X2642Y4035*
X2645Y4032*
X2648Y4026*
Y4013*
X2645Y4007*
X2642Y4004*
X2635Y4001*
X2617*
Y4101D02*
Y4138D01*
X2635*
X2642Y4135*
X2645Y4132*
X2648Y4126*
Y4113*
X2645Y4107*
X2642Y4104*
X2635Y4101*
X2617*
X2638Y4620D02*
X2645Y4617D01*
X2648Y4610*
X2645Y4604*
X2638Y4601*
X2617*
Y4638*
X2638*
X2645Y4635*
X2648Y4629*
X2645Y4623*
X2638Y4620*
X2617*
X2717Y1201D02*
Y1238D01*
X2748*
X2742Y1220D02*
X2717D01*
Y1201D02*
X2748D01*
X2738Y1417D02*
X2748D01*
Y1413*
X2745Y1407*
X2742Y1404*
X2735Y1401*
X2729*
X2723Y1404*
X2720Y1407*
X2717Y1413*
Y1426*
X2720Y1432*
X2723Y1435*
X2729Y1438*
X2735*
X2742Y1435*
X2745Y1432*
X2748Y1426*
X2738Y1516D02*
X2748D01*
Y1513*
X2745Y1507*
X2742Y1504*
X2735Y1501*
X2729*
X2723Y1504*
X2720Y1507*
X2717Y1513*
Y1526*
X2720Y1532*
X2723Y1535*
X2729Y1538*
X2735*
X2742Y1535*
X2745Y1532*
X2748Y1526*
X2717Y1601D02*
Y1638D01*
X2748*
X2742Y1620D02*
X2717D01*
Y1601D02*
X2748D01*
X2717Y1701D02*
Y1738D01*
X2748*
X2742Y1720D02*
X2717D01*
Y1701D02*
X2748D01*
X2717Y1801D02*
Y1838D01*
X2748*
X2742Y1820D02*
X2717D01*
Y1801D02*
X2748D01*
X2717Y2101D02*
Y2138D01*
X2748*
X2742Y2120D02*
X2717D01*
Y2101D02*
X2748D01*
X2738Y2517D02*
X2748D01*
Y2513*
X2745Y2507*
X2742Y2504*
X2735Y2501*
X2729*
X2723Y2504*
X2720Y2507*
X2717Y2513*
Y2526*
X2720Y2532*
X2723Y2535*
X2729Y2538*
X2735*
X2742Y2535*
X2745Y2532*
X2748Y2526*
X2738Y2617D02*
X2748D01*
Y2613*
X2745Y2607*
X2742Y2604*
X2735Y2601*
X2729*
X2723Y2604*
X2720Y2607*
X2717Y2613*
Y2626*
X2720Y2632*
X2723Y2635*
X2729Y2638*
X2735*
X2742Y2635*
X2745Y2632*
X2748Y2626*
X2817Y1201D02*
Y1238D01*
X2848*
X2842Y1220D02*
X2817D01*
Y1201D02*
X2848D01*
X2838Y1417D02*
X2848D01*
Y1413*
X2845Y1407*
X2842Y1404*
X2835Y1401*
X2829*
X2823Y1404*
X2820Y1407*
X2817Y1413*
Y1426*
X2820Y1432*
X2823Y1435*
X2829Y1438*
X2835*
X2842Y1435*
X2845Y1432*
X2848Y1426*
X2838Y1516D02*
X2848D01*
Y1513*
X2845Y1507*
X2842Y1504*
X2835Y1501*
X2829*
X2823Y1504*
X2820Y1507*
X2817Y1513*
Y1526*
X2820Y1532*
X2823Y1535*
X2829Y1538*
X2835*
X2842Y1535*
X2845Y1532*
X2848Y1526*
X2817Y1701D02*
Y1738D01*
X2848*
X2842Y1720D02*
X2817D01*
Y1701D02*
X2848D01*
X2817Y2101D02*
Y2138D01*
X2848*
X2842Y2120D02*
X2817D01*
Y2101D02*
X2848D01*
X2817Y2201D02*
Y2238D01*
X2848*
X2842Y2220D02*
X2817D01*
Y2201D02*
X2848D01*
X2817Y2301D02*
Y2338D01*
X2848*
X2842Y2320D02*
X2817D01*
Y2301D02*
X2848D01*
X2817Y2401D02*
Y2438D01*
X2848*
X2842Y2420D02*
X2817D01*
Y2401D02*
X2848D01*
X2838Y2517D02*
X2848D01*
Y2513*
X2845Y2507*
X2842Y2504*
X2835Y2501*
X2829*
X2823Y2504*
X2820Y2507*
X2817Y2513*
Y2526*
X2820Y2532*
X2823Y2535*
X2829Y2538*
X2835*
X2842Y2535*
X2845Y2532*
X2848Y2526*
X2838Y2617D02*
X2848D01*
Y2613*
X2845Y2607*
X2842Y2604*
X2835Y2601*
X2829*
X2823Y2604*
X2820Y2607*
X2817Y2613*
Y2626*
X2820Y2632*
X2823Y2635*
X2829Y2638*
X2835*
X2842Y2635*
X2845Y2632*
X2848Y2626*
X2817Y2701D02*
Y2738D01*
X2848*
X2842Y2720D02*
X2817D01*
Y2701D02*
X2848D01*
X2838Y3582D02*
X2845Y3579D01*
X2848Y3573*
X2845Y3567*
X2838Y3563*
X2817*
Y3601*
X2838*
X2845Y3598*
X2848Y3592*
X2845Y3585*
X2838Y3582*
X2817*
X2938Y1417D02*
X2948D01*
Y1413*
X2945Y1407*
X2942Y1404*
X2935Y1401*
X2929*
X2923Y1404*
X2920Y1407*
X2917Y1413*
Y1426*
X2920Y1432*
X2923Y1435*
X2929Y1438*
X2935*
X2942Y1435*
X2945Y1432*
X2948Y1426*
X2938Y1516D02*
X2948D01*
Y1513*
X2945Y1507*
X2942Y1504*
X2935Y1501*
X2929*
X2923Y1504*
X2920Y1507*
X2917Y1513*
Y1526*
X2920Y1532*
X2923Y1535*
X2929Y1538*
X2935*
X2942Y1535*
X2945Y1532*
X2948Y1526*
X2917Y1801D02*
Y1838D01*
X2948*
X2942Y1820D02*
X2917D01*
Y1801D02*
X2948D01*
X2917Y2101D02*
Y2138D01*
X2948*
X2942Y2120D02*
X2917D01*
Y2101D02*
X2948D01*
X2938Y2517D02*
X2948D01*
Y2513*
X2945Y2507*
X2942Y2504*
X2935Y2501*
X2929*
X2923Y2504*
X2920Y2507*
X2917Y2513*
Y2526*
X2920Y2532*
X2923Y2535*
X2929Y2538*
X2935*
X2942Y2535*
X2945Y2532*
X2948Y2526*
X2938Y2617D02*
X2948D01*
Y2613*
X2945Y2607*
X2942Y2604*
X2935Y2601*
X2929*
X2923Y2604*
X2920Y2607*
X2917Y2613*
Y2626*
X2920Y2632*
X2923Y2635*
X2929Y2638*
X2935*
X2942Y2635*
X2945Y2632*
X2948Y2626*
X3038Y1417D02*
X3048D01*
Y1413*
X3045Y1407*
X3042Y1404*
X3035Y1401*
X3029*
X3023Y1404*
X3020Y1407*
X3017Y1413*
Y1426*
X3020Y1432*
X3023Y1435*
X3029Y1438*
X3035*
X3042Y1435*
X3045Y1432*
X3048Y1426*
X3038Y1516D02*
X3048D01*
Y1513*
X3045Y1507*
X3042Y1504*
X3035Y1501*
X3029*
X3023Y1504*
X3020Y1507*
X3017Y1513*
Y1526*
X3020Y1532*
X3023Y1535*
X3029Y1538*
X3035*
X3042Y1535*
X3045Y1532*
X3048Y1526*
X3017Y1801D02*
Y1838D01*
X3048*
X3042Y1820D02*
X3017D01*
Y1801D02*
X3048D01*
X3017Y2101D02*
Y2138D01*
X3048*
X3042Y2120D02*
X3017D01*
Y2101D02*
X3048D01*
X3038Y2517D02*
X3048D01*
Y2513*
X3045Y2507*
X3042Y2504*
X3035Y2501*
X3029*
X3023Y2504*
X3020Y2507*
X3017Y2513*
Y2526*
X3020Y2532*
X3023Y2535*
X3029Y2538*
X3035*
X3042Y2535*
X3045Y2532*
X3048Y2526*
X3038Y2617D02*
X3048D01*
Y2613*
X3045Y2607*
X3042Y2604*
X3035Y2601*
X3029*
X3023Y2604*
X3020Y2607*
X3017Y2613*
Y2626*
X3020Y2632*
X3023Y2635*
X3029Y2638*
X3035*
X3042Y2635*
X3045Y2632*
X3048Y2626*
X3017Y2701D02*
Y2738D01*
X3048*
X3042Y2720D02*
X3017D01*
Y2701D02*
X3048D01*
X3017Y2801D02*
Y2838D01*
X3048*
X3042Y2820D02*
X3017D01*
Y2801D02*
X3048D01*
X3138Y1417D02*
X3148D01*
Y1413*
X3145Y1407*
X3142Y1404*
X3135Y1401*
X3129*
X3123Y1404*
X3120Y1407*
X3117Y1413*
Y1426*
X3120Y1432*
X3123Y1435*
X3129Y1438*
X3135*
X3142Y1435*
X3145Y1432*
X3148Y1426*
X3138Y1516D02*
X3148D01*
Y1513*
X3145Y1507*
X3142Y1504*
X3135Y1501*
X3129*
X3123Y1504*
X3120Y1507*
X3117Y1513*
Y1526*
X3120Y1532*
X3123Y1535*
X3129Y1538*
X3135*
X3142Y1535*
X3145Y1532*
X3148Y1526*
X3117Y1601D02*
Y1638D01*
X3148*
X3142Y1620D02*
X3117D01*
Y1601D02*
X3148D01*
X3117Y1801D02*
Y1838D01*
X3148*
X3142Y1820D02*
X3117D01*
Y1801D02*
X3148D01*
X3117Y2101D02*
Y2138D01*
X3148*
X3142Y2120D02*
X3117D01*
Y2101D02*
X3148D01*
X3138Y2517D02*
X3148D01*
Y2513*
X3145Y2507*
X3142Y2504*
X3135Y2501*
X3129*
X3123Y2504*
X3120Y2507*
X3117Y2513*
Y2526*
X3120Y2532*
X3123Y2535*
X3129Y2538*
X3135*
X3142Y2535*
X3145Y2532*
X3148Y2526*
X3138Y2617D02*
X3148D01*
Y2613*
X3145Y2607*
X3142Y2604*
X3135Y2601*
X3129*
X3123Y2604*
X3120Y2607*
X3117Y2613*
Y2626*
X3120Y2632*
X3123Y2635*
X3129Y2638*
X3135*
X3142Y2635*
X3145Y2632*
X3148Y2626*
X3117Y3601D02*
Y3638D01*
Y3620D02*
X3148D01*
Y3601D02*
Y3638D01*
X3117Y4501D02*
Y4538D01*
Y4520D02*
X3148D01*
Y4501D02*
Y4538D01*
X3238Y1417D02*
X3248D01*
Y1413*
X3245Y1407*
X3242Y1404*
X3235Y1401*
X3229*
X3223Y1404*
X3220Y1407*
X3217Y1413*
Y1426*
X3220Y1432*
X3223Y1435*
X3229Y1438*
X3235*
X3242Y1435*
X3245Y1432*
X3248Y1426*
X3238Y1516D02*
X3248D01*
Y1513*
X3245Y1507*
X3242Y1504*
X3235Y1501*
X3229*
X3223Y1504*
X3220Y1507*
X3217Y1513*
Y1526*
X3220Y1532*
X3223Y1535*
X3229Y1538*
X3235*
X3242Y1535*
X3245Y1532*
X3248Y1526*
X3217Y1801D02*
Y1838D01*
X3248*
X3242Y1820D02*
X3217D01*
Y1801D02*
X3248D01*
X3217Y2101D02*
Y2138D01*
X3248*
X3242Y2120D02*
X3217D01*
Y2101D02*
X3248D01*
X3238Y2517D02*
X3248D01*
Y2513*
X3245Y2507*
X3242Y2504*
X3235Y2501*
X3229*
X3223Y2504*
X3220Y2507*
X3217Y2513*
Y2526*
X3220Y2532*
X3223Y2535*
X3229Y2538*
X3235*
X3242Y2535*
X3245Y2532*
X3248Y2526*
X3238Y2617D02*
X3248D01*
Y2613*
X3245Y2607*
X3242Y2604*
X3235Y2601*
X3229*
X3223Y2604*
X3220Y2607*
X3217Y2613*
Y2626*
X3220Y2632*
X3223Y2635*
X3229Y2638*
X3235*
X3242Y2635*
X3245Y2632*
X3248Y2626*
X3217Y3101D02*
Y3138D01*
X3248*
X3242Y3120D02*
X3217D01*
Y3101D02*
X3248D01*
X3217Y3201D02*
Y3238D01*
X3248*
X3242Y3220D02*
X3217D01*
Y3201D02*
X3248D01*
X3338Y1417D02*
X3348D01*
Y1413*
X3345Y1407*
X3342Y1404*
X3335Y1401*
X3329*
X3323Y1404*
X3320Y1407*
X3317Y1413*
Y1426*
X3320Y1432*
X3323Y1435*
X3329Y1438*
X3335*
X3342Y1435*
X3345Y1432*
X3348Y1426*
X3338Y1516D02*
X3348D01*
Y1513*
X3345Y1507*
X3342Y1504*
X3335Y1501*
X3329*
X3323Y1504*
X3320Y1507*
X3317Y1513*
Y1526*
X3320Y1532*
X3323Y1535*
X3329Y1538*
X3335*
X3342Y1535*
X3345Y1532*
X3348Y1526*
X3317Y1801D02*
Y1838D01*
X3348*
X3342Y1820D02*
X3317D01*
Y1801D02*
X3348D01*
X3317Y2101D02*
Y2138D01*
X3348*
X3342Y2120D02*
X3317D01*
Y2101D02*
X3348D01*
X3338Y2517D02*
X3348D01*
Y2513*
X3345Y2507*
X3342Y2504*
X3335Y2501*
X3329*
X3323Y2504*
X3320Y2507*
X3317Y2513*
Y2526*
X3320Y2532*
X3323Y2535*
X3329Y2538*
X3335*
X3342Y2535*
X3345Y2532*
X3348Y2526*
X3338Y2617D02*
X3348D01*
Y2613*
X3345Y2607*
X3342Y2604*
X3335Y2601*
X3329*
X3323Y2604*
X3320Y2607*
X3317Y2613*
Y2626*
X3320Y2632*
X3323Y2635*
X3329Y2638*
X3335*
X3342Y2635*
X3345Y2632*
X3348Y2626*
X3317Y3601D02*
Y3638D01*
Y3620D02*
X3348D01*
Y3601D02*
Y3638D01*
X3317Y4501D02*
Y4538D01*
Y4520D02*
X3348D01*
Y4501D02*
Y4538D01*
X3417Y1201D02*
Y1238D01*
X3448*
X3442Y1220D02*
X3417D01*
Y1201D02*
X3448D01*
X3438Y1417D02*
X3448D01*
Y1413*
X3445Y1407*
X3442Y1404*
X3435Y1401*
X3429*
X3423Y1404*
X3420Y1407*
X3417Y1413*
Y1426*
X3420Y1432*
X3423Y1435*
X3429Y1438*
X3435*
X3442Y1435*
X3445Y1432*
X3448Y1426*
X3438Y1516D02*
X3448D01*
Y1513*
X3445Y1507*
X3442Y1504*
X3435Y1501*
X3429*
X3423Y1504*
X3420Y1507*
X3417Y1513*
Y1526*
X3420Y1532*
X3423Y1535*
X3429Y1538*
X3435*
X3442Y1535*
X3445Y1532*
X3448Y1526*
X3417Y1801D02*
Y1838D01*
X3448*
X3442Y1820D02*
X3417D01*
Y1801D02*
X3448D01*
X3417Y2101D02*
Y2138D01*
X3448*
X3442Y2120D02*
X3417D01*
Y2101D02*
X3448D01*
X3438Y2517D02*
X3448D01*
Y2513*
X3445Y2507*
X3442Y2504*
X3435Y2501*
X3429*
X3423Y2504*
X3420Y2507*
X3417Y2513*
Y2526*
X3420Y2532*
X3423Y2535*
X3429Y2538*
X3435*
X3442Y2535*
X3445Y2532*
X3448Y2526*
X3438Y2617D02*
X3448D01*
Y2613*
X3445Y2607*
X3442Y2604*
X3435Y2601*
X3429*
X3423Y2604*
X3420Y2607*
X3417Y2613*
Y2626*
X3420Y2632*
X3423Y2635*
X3429Y2638*
X3435*
X3442Y2635*
X3445Y2632*
X3448Y2626*
X3417Y2701D02*
Y2738D01*
X3448*
X3442Y2720D02*
X3417D01*
Y2701D02*
X3448D01*
X3417Y2801D02*
Y2838D01*
X3448*
X3442Y2820D02*
X3417D01*
Y2801D02*
X3448D01*
X3538Y1417D02*
X3548D01*
Y1413*
X3545Y1407*
X3542Y1404*
X3535Y1401*
X3529*
X3523Y1404*
X3520Y1407*
X3517Y1413*
Y1426*
X3520Y1432*
X3523Y1435*
X3529Y1438*
X3535*
X3542Y1435*
X3545Y1432*
X3548Y1426*
X3538Y1516D02*
X3548D01*
Y1513*
X3545Y1507*
X3542Y1504*
X3535Y1501*
X3529*
X3523Y1504*
X3520Y1507*
X3517Y1513*
Y1526*
X3520Y1532*
X3523Y1535*
X3529Y1538*
X3535*
X3542Y1535*
X3545Y1532*
X3548Y1526*
X3517Y1801D02*
Y1838D01*
X3548*
X3542Y1820D02*
X3517D01*
Y1801D02*
X3548D01*
X3517Y2101D02*
Y2138D01*
X3548*
X3542Y2120D02*
X3517D01*
Y2101D02*
X3548D01*
X3538Y2517D02*
X3548D01*
Y2513*
X3545Y2507*
X3542Y2504*
X3535Y2501*
X3529*
X3523Y2504*
X3520Y2507*
X3517Y2513*
Y2526*
X3520Y2532*
X3523Y2535*
X3529Y2538*
X3535*
X3542Y2535*
X3545Y2532*
X3548Y2526*
X3538Y2617D02*
X3548D01*
Y2613*
X3545Y2607*
X3542Y2604*
X3535Y2601*
X3529*
X3523Y2604*
X3520Y2607*
X3517Y2613*
Y2626*
X3520Y2632*
X3523Y2635*
X3529Y2638*
X3535*
X3542Y2635*
X3545Y2632*
X3548Y2626*
X3517Y3001D02*
Y3038D01*
X3548*
X3542Y3020D02*
X3517D01*
Y3001D02*
X3548D01*
X3517Y3201D02*
Y3238D01*
X3535*
X3542Y3235*
X3545Y3232*
X3548Y3226*
Y3213*
X3545Y3207*
X3542Y3204*
X3535Y3201*
X3517*
Y3601D02*
Y3638D01*
Y3620D02*
X3548D01*
Y3601D02*
Y3638D01*
X3517Y4501D02*
Y4538D01*
Y4520D02*
X3548D01*
Y4501D02*
Y4538D01*
X3638Y1417D02*
X3648D01*
Y1413*
X3645Y1407*
X3642Y1404*
X3635Y1401*
X3629*
X3623Y1404*
X3620Y1407*
X3617Y1413*
Y1426*
X3620Y1432*
X3623Y1435*
X3629Y1438*
X3635*
X3642Y1435*
X3645Y1432*
X3648Y1426*
X3638Y1516D02*
X3648D01*
Y1513*
X3645Y1507*
X3642Y1504*
X3635Y1501*
X3629*
X3623Y1504*
X3620Y1507*
X3617Y1513*
Y1526*
X3620Y1532*
X3623Y1535*
X3629Y1538*
X3635*
X3642Y1535*
X3645Y1532*
X3648Y1526*
X3617Y1801D02*
Y1838D01*
X3648*
X3642Y1820D02*
X3617D01*
Y1801D02*
X3648D01*
X3617Y2101D02*
Y2138D01*
X3648*
X3642Y2120D02*
X3617D01*
Y2101D02*
X3648D01*
X3638Y2517D02*
X3648D01*
Y2513*
X3645Y2507*
X3642Y2504*
X3635Y2501*
X3629*
X3623Y2504*
X3620Y2507*
X3617Y2513*
Y2526*
X3620Y2532*
X3623Y2535*
X3629Y2538*
X3635*
X3642Y2535*
X3645Y2532*
X3648Y2526*
X3638Y2617D02*
X3648D01*
Y2613*
X3645Y2607*
X3642Y2604*
X3635Y2601*
X3629*
X3623Y2604*
X3620Y2607*
X3617Y2613*
Y2626*
X3620Y2632*
X3623Y2635*
X3629Y2638*
X3635*
X3642Y2635*
X3645Y2632*
X3648Y2626*
X3642Y2838D02*
Y2876D01*
X3673*
X3667Y2857D02*
X3642D01*
Y2838D02*
X3673D01*
X3738Y1417D02*
X3748D01*
Y1413*
X3745Y1407*
X3742Y1404*
X3735Y1401*
X3729*
X3723Y1404*
X3720Y1407*
X3717Y1413*
Y1426*
X3720Y1432*
X3723Y1435*
X3729Y1438*
X3735*
X3742Y1435*
X3745Y1432*
X3748Y1426*
X3738Y1516D02*
X3748D01*
Y1513*
X3745Y1507*
X3742Y1504*
X3735Y1501*
X3729*
X3723Y1504*
X3720Y1507*
X3717Y1513*
Y1526*
X3720Y1532*
X3723Y1535*
X3729Y1538*
X3735*
X3742Y1535*
X3745Y1532*
X3748Y1526*
X3717Y1801D02*
Y1838D01*
X3748*
X3742Y1820D02*
X3717D01*
Y1801D02*
X3748D01*
X3717Y2101D02*
Y2138D01*
X3748*
X3742Y2120D02*
X3717D01*
Y2101D02*
X3748D01*
X3738Y2517D02*
X3748D01*
Y2513*
X3745Y2507*
X3742Y2504*
X3735Y2501*
X3729*
X3723Y2504*
X3720Y2507*
X3717Y2513*
Y2526*
X3720Y2532*
X3723Y2535*
X3729Y2538*
X3735*
X3742Y2535*
X3745Y2532*
X3748Y2526*
X3738Y2617D02*
X3748D01*
Y2613*
X3745Y2607*
X3742Y2604*
X3735Y2601*
X3729*
X3723Y2604*
X3720Y2607*
X3717Y2613*
Y2626*
X3720Y2632*
X3723Y2635*
X3729Y2638*
X3735*
X3742Y2635*
X3745Y2632*
X3748Y2626*
X3717Y2763D02*
Y2801D01*
X3748*
X3742Y2782D02*
X3717D01*
Y2763D02*
X3748D01*
X3717Y3601D02*
Y3638D01*
Y3620D02*
X3748D01*
Y3601D02*
Y3638D01*
X3717Y4501D02*
Y4538D01*
Y4520D02*
X3748D01*
Y4501D02*
Y4538D01*
X3792Y2838D02*
Y2876D01*
X3823*
X3817Y2857D02*
X3792D01*
Y2838D02*
X3823D01*
X3817Y1201D02*
Y1238D01*
X3848*
X3842Y1220D02*
X3817D01*
Y1201D02*
X3848D01*
X3838Y1417D02*
X3848D01*
Y1413*
X3845Y1407*
X3842Y1404*
X3835Y1401*
X3829*
X3823Y1404*
X3820Y1407*
X3817Y1413*
Y1426*
X3820Y1432*
X3823Y1435*
X3829Y1438*
X3835*
X3842Y1435*
X3845Y1432*
X3848Y1426*
X3838Y1516D02*
X3848D01*
Y1513*
X3845Y1507*
X3842Y1504*
X3835Y1501*
X3829*
X3823Y1504*
X3820Y1507*
X3817Y1513*
Y1526*
X3820Y1532*
X3823Y1535*
X3829Y1538*
X3835*
X3842Y1535*
X3845Y1532*
X3848Y1526*
X3817Y1801D02*
Y1838D01*
X3848*
X3842Y1820D02*
X3817D01*
Y1801D02*
X3848D01*
X3817Y2101D02*
Y2138D01*
X3848*
X3842Y2120D02*
X3817D01*
Y2101D02*
X3848D01*
X3838Y2517D02*
X3848D01*
Y2513*
X3845Y2507*
X3842Y2504*
X3835Y2501*
X3829*
X3823Y2504*
X3820Y2507*
X3817Y2513*
Y2526*
X3820Y2532*
X3823Y2535*
X3829Y2538*
X3835*
X3842Y2535*
X3845Y2532*
X3848Y2526*
X3838Y2617D02*
X3848D01*
Y2613*
X3845Y2607*
X3842Y2604*
X3835Y2601*
X3829*
X3823Y2604*
X3820Y2607*
X3817Y2613*
Y2626*
X3820Y2632*
X3823Y2635*
X3829Y2638*
X3835*
X3842Y2635*
X3845Y2632*
X3848Y2626*
X3917Y3001D02*
Y3038D01*
X3948*
X3942Y3020D02*
X3917D01*
Y3001D02*
X3948D01*
X3917Y3201D02*
Y3238D01*
X3935*
X3942Y3235*
X3945Y3232*
X3948Y3226*
Y3213*
X3945Y3207*
X3942Y3204*
X3935Y3201*
X3917*
Y3601D02*
Y3638D01*
Y3620D02*
X3948D01*
Y3601D02*
Y3638D01*
X3917Y4501D02*
Y4538D01*
Y4520D02*
X3948D01*
Y4501D02*
Y4538D01*
X4042Y1876D02*
Y1913D01*
X4073*
X4066Y1895D02*
X4042D01*
Y1876D02*
X4073D01*
X4117Y1551D02*
Y1588D01*
X4148*
X4142Y1570D02*
X4117D01*
Y1551D02*
X4148D01*
X4117Y2801D02*
Y2838D01*
X4148*
X4142Y2820D02*
X4117D01*
Y2801D02*
X4148D01*
X4117Y3201D02*
Y3238D01*
X4148*
X4142Y3220D02*
X4117D01*
Y3201D02*
X4148D01*
X4117Y3601D02*
Y3638D01*
Y3620D02*
X4148D01*
Y3601D02*
Y3638D01*
X4117Y4501D02*
Y4538D01*
Y4520D02*
X4148D01*
Y4501D02*
Y4538D01*
X4217Y1201D02*
Y1238D01*
X4235*
X4242Y1235*
X4245Y1232*
X4248Y1226*
Y1213*
X4245Y1207*
X4242Y1204*
X4235Y1201*
X4217*
Y1301D02*
Y1338D01*
X4235*
X4242Y1335*
X4245Y1332*
X4248Y1326*
Y1313*
X4245Y1307*
X4242Y1304*
X4235Y1301*
X4217*
Y1401D02*
Y1438D01*
X4235*
X4242Y1435*
X4245Y1432*
X4248Y1426*
Y1413*
X4245Y1407*
X4242Y1404*
X4235Y1401*
X4217*
Y1801D02*
Y1838D01*
X4248*
X4242Y1820D02*
X4217D01*
Y1801D02*
X4248D01*
X4217Y1901D02*
Y1938D01*
X4248*
X4242Y1920D02*
X4217D01*
Y1901D02*
X4248D01*
X4217Y2101D02*
Y2138D01*
X4248*
X4242Y2120D02*
X4217D01*
Y2101D02*
X4248D01*
X4217Y2201D02*
Y2238D01*
X4248*
X4242Y2220D02*
X4217D01*
Y2201D02*
X4248D01*
X4217Y2401D02*
Y2438D01*
X4235*
X4242Y2435*
X4245Y2432*
X4248Y2426*
Y2413*
X4245Y2407*
X4242Y2404*
X4235Y2401*
X4217*
Y2501D02*
Y2538D01*
X4235*
X4242Y2535*
X4245Y2532*
X4248Y2526*
Y2513*
X4245Y2507*
X4242Y2504*
X4235Y2501*
X4217*
X4316Y3601D02*
Y3638D01*
Y3620D02*
X4348D01*
Y3601D02*
Y3638D01*
X4316Y4501D02*
Y4538D01*
Y4520D02*
X4348D01*
Y4501D02*
Y4538D01*
X4438Y1220D02*
X4445Y1217D01*
X4448Y1210*
X4445Y1204*
X4438Y1201*
X4417*
Y1238*
X4438*
X4445Y1235*
X4448Y1229*
X4445Y1223*
X4438Y1220*
X4417*
X4438Y1420D02*
X4445Y1417D01*
X4448Y1410*
X4445Y1404*
X4438Y1401*
X4417*
Y1438*
X4438*
X4445Y1435*
X4448Y1429*
X4445Y1423*
X4438Y1420*
X4417*
X4438Y1720D02*
X4445Y1716D01*
X4448Y1710*
X4445Y1704*
X4438Y1701*
X4417*
Y1738*
X4438*
X4445Y1735*
X4448Y1729*
X4445Y1723*
X4438Y1720*
X4417*
X4438Y1920D02*
X4445Y1916D01*
X4448Y1910*
X4445Y1904*
X4438Y1901*
X4417*
Y1938*
X4438*
X4445Y1935*
X4448Y1929*
X4445Y1923*
X4438Y1920*
X4417*
X4438Y2420D02*
X4445Y2417D01*
X4448Y2410*
X4445Y2404*
X4438Y2401*
X4417*
Y2438*
X4438*
X4445Y2435*
X4448Y2429*
X4445Y2423*
X4438Y2420*
X4417*
X4438Y2620D02*
X4445Y2617D01*
X4448Y2610*
X4445Y2604*
X4438Y2601*
X4417*
Y2638*
X4438*
X4445Y2635*
X4448Y2629*
X4445Y2623*
X4438Y2620*
X4417*
X4438Y2920D02*
X4445Y2917D01*
X4448Y2910*
X4445Y2904*
X4438Y2901*
X4417*
Y2938*
X4438*
X4445Y2935*
X4448Y2929*
X4445Y2923*
X4438Y2920*
X4417*
X4438Y3120D02*
X4445Y3117D01*
X4448Y3110*
X4445Y3104*
X4438Y3101*
X4417*
Y3138*
X4438*
X4445Y3135*
X4448Y3129*
X4445Y3123*
X4438Y3120*
X4417*
X4517Y1551D02*
Y1588D01*
X4548*
X4542Y1570D02*
X4517D01*
Y1551D02*
X4548D01*
X4592Y3201D02*
Y3238D01*
X4623*
X4617Y3220D02*
X4592D01*
Y3201D02*
X4623D01*
X4638Y3820D02*
X4645Y3817D01*
X4648Y3810*
X4645Y3804*
X4638Y3801*
X4617*
Y3838*
X4638*
X4645Y3835*
X4648Y3829*
X4645Y3823*
X4638Y3820*
X4617*
X4638Y4120D02*
X4645Y4117D01*
X4648Y4110*
X4645Y4104*
X4638Y4101*
X4617*
Y4138*
X4638*
X4645Y4135*
X4648Y4129*
X4645Y4123*
X4638Y4120*
X4617*
X4638Y4720D02*
X4645Y4717D01*
X4648Y4710*
X4645Y4704*
X4638Y4701*
X4617*
Y4738*
X4638*
X4645Y4735*
X4648Y4729*
X4645Y4723*
X4638Y4720*
X4617*
X4691Y1701D02*
Y1738D01*
X4723*
X4717Y1720D02*
X4691D01*
Y1701D02*
X4723D01*
X4691Y1801D02*
Y1838D01*
X4723*
X4717Y1820D02*
X4691D01*
Y1801D02*
X4723D01*
X4691Y1901D02*
Y1938D01*
X4723*
X4717Y1920D02*
X4691D01*
Y1901D02*
X4723D01*
X4717Y1101D02*
Y1138D01*
X4748*
X4742Y1120D02*
X4717D01*
Y1101D02*
X4748D01*
X4838Y1320D02*
X4845Y1316D01*
X4848Y1310*
X4845Y1304*
X4838Y1301*
X4816*
Y1338*
X4838*
X4845Y1335*
X4848Y1329*
X4845Y1323*
X4838Y1320*
X4816*
X4838Y1820D02*
X4845Y1816D01*
X4848Y1810*
X4845Y1804*
X4838Y1801*
X4816*
Y1838*
X4838*
X4845Y1835*
X4848Y1829*
X4845Y1823*
X4838Y1820*
X4816*
X4838Y2520D02*
X4845Y2517D01*
X4848Y2510*
X4845Y2504*
X4838Y2501*
X4816*
Y2538*
X4838*
X4845Y2535*
X4848Y2529*
X4845Y2523*
X4838Y2520*
X4816*
X4838Y3020D02*
X4845Y3017D01*
X4848Y3010*
X4845Y3004*
X4838Y3001*
X4816*
Y3038*
X4838*
X4845Y3035*
X4848Y3029*
X4845Y3023*
X4838Y3020*
X4816*
X4838Y3470D02*
X4845Y3467D01*
X4848Y3460*
X4845Y3454*
X4838Y3451*
X4816*
Y3488*
X4838*
X4845Y3485*
X4848Y3479*
X4845Y3473*
X4838Y3470*
X4816*
Y4301D02*
Y4338D01*
X4835*
X4842Y4335*
X4845Y4332*
X4848Y4326*
Y4313*
X4845Y4307*
X4842Y4304*
X4835Y4301*
X4816*
Y4501D02*
Y4538D01*
X4835*
X4842Y4535*
X4845Y4532*
X4848Y4526*
Y4513*
X4845Y4507*
X4842Y4504*
X4835Y4501*
X4816*
X4948Y1557D02*
X4945Y1554D01*
X4938Y1551*
X4929*
X4923Y1554*
X4920Y1557*
X4917Y1563*
Y1576*
X4920Y1582*
X4923Y1585*
X4929Y1588*
X4938*
X4945Y1585*
X4948Y1582*
Y2807D02*
X4945Y2804D01*
X4938Y2801*
X4929*
X4923Y2804*
X4920Y2807*
X4917Y2813*
Y2826*
X4920Y2832*
X4923Y2835*
X4929Y2838*
X4938*
X4945Y2835*
X4948Y2832*
X5017Y3451D02*
Y3488D01*
X5035*
X5042Y3485*
X5045Y3482*
X5048Y3476*
Y3463*
X5045Y3457*
X5042Y3454*
X5035Y3451*
X5017*
X5087Y1451D02*
Y1488D01*
X5118*
X5112Y1470D02*
X5087D01*
Y1701D02*
Y1738D01*
X5118*
X5112Y1720D02*
X5087D01*
Y2701D02*
Y2738D01*
X5118*
X5112Y2720D02*
X5087D01*
Y2951D02*
Y2988D01*
X5118*
X5112Y2970D02*
X5087D01*
X5238Y3820D02*
X5245Y3817D01*
X5248Y3810*
X5245Y3804*
X5238Y3801*
X5217*
Y3838*
X5238*
X5245Y3835*
X5248Y3829*
X5245Y3823*
X5238Y3820*
X5217*
X5238Y4120D02*
X5245Y4117D01*
X5248Y4110*
X5245Y4104*
X5238Y4101*
X5217*
Y4138*
X5238*
X5245Y4135*
X5248Y4129*
X5245Y4123*
X5238Y4120*
X5217*
Y4301D02*
Y4338D01*
X5235*
X5242Y4335*
X5245Y4332*
X5248Y4326*
Y4313*
X5245Y4307*
X5242Y4304*
X5235Y4301*
X5217*
Y4501D02*
Y4538D01*
X5235*
X5242Y4535*
X5245Y4532*
X5248Y4526*
Y4513*
X5245Y4507*
X5242Y4504*
X5235Y4501*
X5217*
X5238Y4720D02*
X5245Y4717D01*
X5248Y4710*
X5245Y4704*
X5238Y4701*
X5217*
Y4738*
X5238*
X5245Y4735*
X5248Y4729*
X5245Y4723*
X5238Y4720*
X5217*
X5232Y1251D02*
Y1288D01*
X5263*
X5257Y1270D02*
X5232D01*
Y1901D02*
Y1938D01*
X5263*
X5257Y1920D02*
X5232D01*
Y2501D02*
Y2538D01*
X5263*
X5257Y2520D02*
X5232D01*
Y3151D02*
Y3188D01*
X5263*
X5257Y3170D02*
X5232D01*
X5316Y2101D02*
Y2138D01*
X5348*
X5342Y2120D02*
X5316D01*
Y2101D02*
X5348D01*
X5316Y2301D02*
Y2338D01*
X5348*
X5342Y2320D02*
X5316D01*
Y2301D02*
X5348D01*
X5316Y3401D02*
Y3438D01*
X5348*
X5342Y3420D02*
X5316D01*
Y3401D02*
X5348D01*
X5438Y4120D02*
X5445Y4117D01*
X5448Y4110*
X5445Y4104*
X5438Y4101*
X5417*
Y4138*
X5438*
X5445Y4135*
X5448Y4129*
X5445Y4123*
X5438Y4120*
X5417*
X5438Y4720D02*
X5445Y4717D01*
X5448Y4710*
X5445Y4704*
X5438Y4701*
X5417*
Y4738*
X5438*
X5445Y4735*
X5448Y4729*
X5445Y4723*
X5438Y4720*
X5417*
X5467Y1176D02*
Y1213D01*
X5498*
X5492Y1195D02*
X5467D01*
Y1576D02*
X5482Y1613D01*
X5498Y1576*
X5473Y1591D02*
X5492D01*
X5467Y1976D02*
Y2013D01*
X5498*
X5492Y1995D02*
X5467D01*
Y2426D02*
Y2463D01*
X5498*
X5492Y2445D02*
X5467D01*
Y2826D02*
X5482Y2863D01*
X5498Y2826*
X5473Y2842D02*
X5492D01*
X5467Y3226D02*
Y3263D01*
X5498*
X5492Y3245D02*
X5467D01*
X5617Y3701D02*
Y3738D01*
X5635*
X5642Y3735*
X5645Y3732*
X5648Y3726*
Y3713*
X5645Y3707*
X5642Y3704*
X5635Y3701*
X5617*
Y3901D02*
Y3938D01*
X5635*
X5642Y3935*
X5645Y3932*
X5648Y3926*
Y3913*
X5645Y3907*
X5642Y3904*
X5635Y3901*
X5617*
Y4301D02*
Y4338D01*
X5635*
X5642Y4335*
X5645Y4332*
X5648Y4326*
Y4313*
X5645Y4307*
X5642Y4304*
X5635Y4301*
X5617*
Y4501D02*
Y4538D01*
X5635*
X5642Y4535*
X5645Y4532*
X5648Y4526*
Y4513*
X5645Y4507*
X5642Y4504*
X5635Y4501*
X5617*
X5702Y1251D02*
Y1288D01*
X5733*
X5727Y1270D02*
X5702D01*
Y1901D02*
Y1938D01*
X5733*
X5727Y1920D02*
X5702D01*
Y2501D02*
Y2538D01*
X5733*
X5727Y2520D02*
X5702D01*
Y3151D02*
Y3188D01*
X5733*
X5727Y3170D02*
X5702D01*
X5717Y2101D02*
Y2138D01*
X5748*
X5742Y2120D02*
X5717D01*
Y2101D02*
X5748D01*
X5717Y2301D02*
Y2338D01*
X5748*
X5742Y2320D02*
X5717D01*
Y2301D02*
X5748D01*
X5717Y3401D02*
Y3438D01*
X5748*
X5742Y3420D02*
X5717D01*
Y3401D02*
X5748D01*
X5847Y1701D02*
Y1738D01*
X5878*
X5872Y1720D02*
X5847D01*
Y2951D02*
Y2988D01*
X5878*
X5872Y2970D02*
X5847D01*
X5917Y1201D02*
Y1238D01*
X5948*
X5941Y1220D02*
X5917D01*
Y1201D02*
X5948D01*
X6048Y1557D02*
X6045Y1554D01*
X6038Y1551*
X6029*
X6023Y1554*
X6020Y1557*
X6017Y1563*
Y1576*
X6020Y1582*
X6023Y1585*
X6029Y1588*
X6038*
X6045Y1585*
X6048Y1582*
X6017Y1701D02*
Y1738D01*
X6048*
X6042Y1720D02*
X6017D01*
Y1701D02*
X6048D01*
X6017Y2101D02*
Y2138D01*
X6048*
X6042Y2120D02*
X6017D01*
Y2101D02*
X6048D01*
X6017Y2301D02*
Y2338D01*
X6048*
X6042Y2320D02*
X6017D01*
Y2301D02*
X6048D01*
X6017Y2701D02*
Y2738D01*
X6048*
X6042Y2720D02*
X6017D01*
Y2701D02*
X6048D01*
Y2807D02*
X6045Y2804D01*
X6038Y2801*
X6029*
X6023Y2804*
X6020Y2807*
X6017Y2813*
Y2826*
X6020Y2832*
X6023Y2835*
X6029Y2838*
X6038*
X6045Y2835*
X6048Y2832*
X6017Y3701D02*
Y3738D01*
X6035*
X6042Y3735*
X6045Y3732*
X6048Y3726*
Y3713*
X6045Y3707*
X6042Y3704*
X6035Y3701*
X6017*
Y3901D02*
Y3938D01*
X6035*
X6042Y3935*
X6045Y3932*
X6048Y3926*
Y3913*
X6045Y3907*
X6042Y3904*
X6035Y3901*
X6017*
X6038Y4120D02*
X6045Y4117D01*
X6048Y4110*
X6045Y4104*
X6038Y4101*
X6017*
Y4138*
X6038*
X6045Y4135*
X6048Y4129*
X6045Y4123*
X6038Y4120*
X6017*
Y4301D02*
Y4338D01*
X6035*
X6042Y4335*
X6045Y4332*
X6048Y4326*
Y4313*
X6045Y4307*
X6042Y4304*
X6035Y4301*
X6017*
Y4501D02*
Y4538D01*
X6035*
X6042Y4535*
X6045Y4532*
X6048Y4526*
Y4513*
X6045Y4507*
X6042Y4504*
X6035Y4501*
X6017*
X6038Y4720D02*
X6045Y4717D01*
X6048Y4710*
X6045Y4704*
X6038Y4701*
X6017*
Y4738*
X6038*
X6045Y4735*
X6048Y4729*
X6045Y4723*
X6038Y4720*
X6017*
X6238Y1920D02*
X6245Y1916D01*
X6248Y1910*
X6245Y1904*
X6238Y1901*
X6217*
Y1938*
X6238*
X6245Y1935*
X6248Y1929*
X6245Y1923*
X6238Y1920*
X6217*
Y2301D02*
Y2338D01*
X6248*
X6242Y2320D02*
X6217D01*
Y2301D02*
X6248D01*
X6217Y2701D02*
Y2738D01*
X6248*
X6242Y2720D02*
X6217D01*
Y2701D02*
X6248D01*
X6238Y3320D02*
X6245Y3317D01*
X6248Y3310*
X6245Y3304*
X6238Y3301*
X6217*
Y3338*
X6238*
X6245Y3335*
X6248Y3329*
X6245Y3323*
X6238Y3320*
X6217*
X6238Y3920D02*
X6245Y3917D01*
X6248Y3910*
X6245Y3904*
X6238Y3901*
X6217*
Y3938*
X6238*
X6245Y3935*
X6248Y3929*
X6245Y3923*
X6238Y3920*
X6217*
X6238Y4120D02*
X6245Y4117D01*
X6248Y4110*
X6245Y4104*
X6238Y4101*
X6217*
Y4138*
X6238*
X6245Y4135*
X6248Y4129*
X6245Y4123*
X6238Y4120*
X6217*
X6238Y4720D02*
X6245Y4717D01*
X6248Y4710*
X6245Y4704*
X6238Y4701*
X6217*
Y4738*
X6238*
X6245Y4735*
X6248Y4729*
X6245Y4723*
X6238Y4720*
X6217*
X6316Y1201D02*
Y1238D01*
X6348*
X6342Y1220D02*
X6316D01*
Y1201D02*
X6348D01*
X6417D02*
Y1238D01*
X6448*
X6441Y1220D02*
X6417D01*
Y1201D02*
X6448D01*
X6438Y1520D02*
X6445Y1516D01*
X6448Y1510*
X6445Y1504*
X6438Y1501*
X6417*
Y1538*
X6438*
X6445Y1535*
X6448Y1529*
X6445Y1523*
X6438Y1520*
X6417*
X6438Y1720D02*
X6445Y1716D01*
X6448Y1710*
X6445Y1704*
X6438Y1701*
X6417*
Y1738*
X6438*
X6445Y1735*
X6448Y1729*
X6445Y1723*
X6438Y1720*
X6417*
Y2051D02*
Y2088D01*
X6448*
X6441Y2070D02*
X6417D01*
Y2051D02*
X6448D01*
X6417Y2201D02*
Y2238D01*
X6448*
X6441Y2220D02*
X6417D01*
Y2201D02*
X6448D01*
X6417Y2351D02*
Y2388D01*
X6448*
X6441Y2370D02*
X6417D01*
Y2351D02*
X6448D01*
X6417Y2501D02*
Y2538D01*
X6448*
X6441Y2520D02*
X6417D01*
Y2501D02*
X6448D01*
X6438Y2720D02*
X6445Y2717D01*
X6448Y2710*
X6445Y2704*
X6438Y2701*
X6417*
Y2738*
X6438*
X6445Y2735*
X6448Y2729*
X6445Y2723*
X6438Y2720*
X6417*
X6438Y2920D02*
X6445Y2917D01*
X6448Y2910*
X6445Y2904*
X6438Y2901*
X6417*
Y2938*
X6438*
X6445Y2935*
X6448Y2929*
X6445Y2923*
X6438Y2920*
X6417*
Y3101D02*
Y3138D01*
X6448*
X6441Y3120D02*
X6417D01*
Y3101D02*
X6448D01*
X6417Y3301D02*
Y3338D01*
X6448*
X6441Y3320D02*
X6417D01*
Y3301D02*
X6448D01*
X6438Y3520D02*
X6445Y3517D01*
X6448Y3510*
X6445Y3504*
X6438Y3501*
X6417*
Y3538*
X6438*
X6445Y3535*
X6448Y3529*
X6445Y3523*
X6438Y3520*
X6417*
X6438Y3720D02*
X6445Y3717D01*
X6448Y3710*
X6445Y3704*
X6438Y3701*
X6417*
Y3738*
X6438*
X6445Y3735*
X6448Y3729*
X6445Y3723*
X6438Y3720*
X6417*
Y4301D02*
Y4338D01*
X6435*
X6441Y4335*
X6445Y4332*
X6448Y4326*
Y4313*
X6445Y4307*
X6441Y4304*
X6435Y4301*
X6417*
Y4501D02*
Y4538D01*
X6435*
X6441Y4535*
X6445Y4532*
X6448Y4526*
Y4513*
X6445Y4507*
X6441Y4504*
X6435Y4501*
X6417*
X6638Y3920D02*
X6645Y3917D01*
X6648Y3910*
X6645Y3904*
X6638Y3901*
X6617*
Y3938*
X6638*
X6645Y3935*
X6648Y3929*
X6645Y3923*
X6638Y3920*
X6617*
X6816Y1201D02*
Y1238D01*
X6848*
X6841Y1220D02*
X6816D01*
Y1201D02*
X6848D01*
X6838Y1620D02*
X6845Y1616D01*
X6848Y1610*
X6845Y1604*
X6838Y1601*
X6816*
Y1638*
X6838*
X6845Y1635*
X6848Y1629*
X6845Y1623*
X6838Y1620*
X6816*
X6838Y1920D02*
X6845Y1916D01*
X6848Y1910*
X6845Y1904*
X6838Y1901*
X6816*
Y1938*
X6838*
X6845Y1935*
X6848Y1929*
X6845Y1923*
X6838Y1920*
X6816*
Y2051D02*
Y2088D01*
X6848*
X6841Y2070D02*
X6816D01*
Y2051D02*
X6848D01*
X6816Y2201D02*
Y2238D01*
X6848*
X6841Y2220D02*
X6816D01*
Y2201D02*
X6848D01*
X6816Y2351D02*
Y2388D01*
X6848*
X6841Y2370D02*
X6816D01*
Y2351D02*
X6848D01*
X6816Y2501D02*
Y2538D01*
X6848*
X6841Y2520D02*
X6816D01*
Y2501D02*
X6848D01*
X6838Y2820D02*
X6845Y2817D01*
X6848Y2810*
X6845Y2804*
X6838Y2801*
X6816*
Y2838*
X6838*
X6845Y2835*
X6848Y2829*
X6845Y2823*
X6838Y2820*
X6816*
Y3101D02*
Y3138D01*
X6848*
X6841Y3120D02*
X6816D01*
Y3101D02*
X6848D01*
X6816Y3301D02*
Y3338D01*
X6848*
X6841Y3320D02*
X6816D01*
Y3301D02*
X6848D01*
X6838Y3620D02*
X6845Y3617D01*
X6848Y3610*
X6845Y3604*
X6838Y3601*
X6816*
Y3638*
X6838*
X6845Y3635*
X6848Y3629*
X6845Y3623*
X6838Y3620*
X6816*
X6838Y3920D02*
X6845Y3917D01*
X6848Y3910*
X6845Y3904*
X6838Y3901*
X6816*
Y3938*
X6838*
X6845Y3935*
X6848Y3929*
X6845Y3923*
X6838Y3920*
X6816*
X6838Y4120D02*
X6845Y4117D01*
X6848Y4110*
X6845Y4104*
X6838Y4101*
X6816*
Y4138*
X6838*
X6845Y4135*
X6848Y4129*
X6845Y4123*
X6838Y4120*
X6816*
Y4301D02*
Y4338D01*
X6835*
X6841Y4335*
X6845Y4332*
X6848Y4326*
Y4313*
X6845Y4307*
X6841Y4304*
X6835Y4301*
X6816*
Y4501D02*
Y4538D01*
X6835*
X6841Y4535*
X6845Y4532*
X6848Y4526*
Y4513*
X6845Y4507*
X6841Y4504*
X6835Y4501*
X6816*
X6838Y4720D02*
X6845Y4717D01*
X6848Y4710*
X6845Y4704*
X6838Y4701*
X6816*
Y4738*
X6838*
X6845Y4735*
X6848Y4729*
X6845Y4723*
X6838Y4720*
X6816*
X6917Y3201D02*
Y3238D01*
X6948*
X6941Y3220D02*
X6917D01*
Y3201D02*
X6948D01*
X6917Y3601D02*
Y3638D01*
X6948*
X6941Y3620D02*
X6917D01*
Y3601D02*
X6948D01*
X7016Y3201D02*
Y3238D01*
X7035*
X7042Y3235*
X7045Y3232*
X7048Y3226*
Y3213*
X7045Y3207*
X7042Y3204*
X7035Y3201*
X7016*
Y3601D02*
Y3638D01*
X7035*
X7042Y3635*
X7045Y3632*
X7048Y3626*
Y3613*
X7045Y3607*
X7042Y3604*
X7035Y3601*
X7016*
X7138Y1920D02*
X7145Y1916D01*
X7148Y1910*
X7145Y1904*
X7138Y1901*
X7117*
Y1938*
X7138*
X7145Y1935*
X7148Y1929*
X7145Y1923*
X7138Y1920*
X7117*
X7138Y2220D02*
X7145Y2217D01*
X7148Y2210*
X7145Y2204*
X7138Y2201*
X7117*
Y2238*
X7138*
X7145Y2235*
X7148Y2229*
X7145Y2223*
X7138Y2220*
X7117*
X7138Y2820D02*
X7145Y2817D01*
X7148Y2810*
X7145Y2804*
X7138Y2801*
X7117*
Y2838*
X7138*
X7145Y2835*
X7148Y2829*
X7145Y2823*
X7138Y2820*
X7117*
X7198Y1607D02*
X7195Y1604D01*
X7188Y1601*
X7179*
X7173Y1604*
X7170Y1607*
X7167Y1613*
Y1626*
X7170Y1632*
X7173Y1635*
X7179Y1638*
X7188*
X7195Y1635*
X7198Y1632*
Y3007D02*
X7195Y3004D01*
X7188Y3001*
X7179*
X7173Y3004*
X7170Y3007*
X7167Y3013*
Y3026*
X7170Y3032*
X7173Y3035*
X7179Y3038*
X7188*
X7195Y3035*
X7198Y3032*
Y3207D02*
X7195Y3204D01*
X7188Y3201*
X7179*
X7173Y3204*
X7170Y3207*
X7167Y3213*
Y3226*
X7170Y3232*
X7173Y3235*
X7179Y3238*
X7188*
X7195Y3235*
X7198Y3232*
Y3420D02*
X7195Y3417D01*
X7188Y3413*
X7179*
X7173Y3417*
X7170Y3420*
X7167Y3426*
Y3438*
X7170Y3445*
X7173Y3448*
X7179Y3451*
X7188*
X7195Y3448*
X7198Y3445*
Y3607D02*
X7195Y3604D01*
X7188Y3601*
X7179*
X7173Y3604*
X7170Y3607*
X7167Y3613*
Y3626*
X7170Y3632*
X7173Y3635*
X7179Y3638*
X7188*
X7195Y3635*
X7198Y3632*
Y3807D02*
X7195Y3804D01*
X7188Y3801*
X7179*
X7173Y3804*
X7170Y3807*
X7167Y3813*
Y3826*
X7170Y3832*
X7173Y3835*
X7179Y3838*
X7188*
X7195Y3835*
X7198Y3832*
X7216Y1176D02*
X7232Y1213D01*
X7248Y1176*
X7223Y1192D02*
X7242D01*
X7216Y4726D02*
X7232Y4763D01*
X7248Y4726*
X7223Y4742D02*
X7242D01*
X0Y0D02*
M02*
