%FSLAX23Y23*%
%MOIN*%
G04 EasyPC Gerber Version 14.0.2 Build 2922 *
%ADD86R,0.06000X0.06000*%
%ADD87R,0.06000X0.06000*%
%ADD85R,0.06500X0.06500*%
%ADD82R,0.08000X0.08000*%
%ADD79R,0.10000X0.10000*%
%ADD26C,0.00800*%
%ADD27C,0.01200*%
%ADD90C,0.01500*%
%ADD91C,0.02000*%
%ADD89C,0.03500*%
%ADD88C,0.05000*%
%ADD83C,0.06000*%
%ADD81C,0.06500*%
%ADD133C,0.07000*%
%ADD80C,0.08000*%
%ADD74C,0.08500*%
%ADD24C,0.10000*%
%ADD75C,0.11000*%
%ADD78C,0.14000*%
%ADD76C,0.15000*%
%ADD73C,0.25000*%
%ADD84R,0.06000X0.06000*%
X0Y0D02*
D02*
D24*
X6516Y3842D03*
X6716D03*
D02*
D26*
X1038Y1704D02*
Y951D01*
X4645*
X4618Y978*
G75*
G02X4553Y1042I-2J64*
G01*
G75*
G02X4681I64*
G01*
G75*
G02X4680Y1040I-64J0*
G01*
X4697Y1023*
X5321*
G75*
G02X5323Y1211I46J94*
G01*
Y1242*
G75*
G02X5335Y1273I44J0*
G01*
X5435Y1373*
G75*
G02X5467Y1386I31J-31*
G01*
X5498*
Y1586*
X5335Y1748*
G75*
G02X5323Y1779I31J31*
G01*
Y1822*
G75*
G02X5367Y2021I44J94*
G01*
G75*
G02X5460Y1962J-104*
G01*
Y1998*
X5361Y2098*
X5276*
G75*
G02X5217Y1960I-59J-56*
G01*
G75*
G02X5157Y2098J82*
G01*
X4947*
X4761Y1911*
Y1804*
G75*
G02X4791Y1725I-44J-63*
G01*
X4950Y1883*
G75*
G02X4992Y1901I42J-42*
G01*
X5046*
G75*
G02X5230Y1809I86J-59*
G01*
G75*
G02X5046Y1783I-99J32*
G01*
X5016*
X4960Y1726*
G75*
G02X5039Y1569I27J-85*
G01*
G75*
G02X4902Y1668I-52J72*
G01*
X4841Y1608*
G75*
G02X4935Y1499I-25J-116*
G01*
G75*
G02X4987Y1511I51J-107*
G01*
G75*
G02Y1273J-119*
G01*
G75*
G02X4878Y1343J119*
G01*
G75*
G02X4857Y1357I26J61*
G01*
X4839Y1375*
G75*
G02X4740Y1583I-23J117*
G01*
X4616*
G75*
G02X4532Y1666I-25J59*
G01*
Y1717*
G75*
G02Y1766I59J25*
G01*
Y1817*
X4455Y1895*
X4347*
G75*
G02X4316Y1780I-30J-54*
G01*
G75*
G02X4286Y1895J62*
G01*
X4088*
Y1884*
G75*
G02X4153Y1806I29J-43*
G01*
X4181*
Y1686*
X4254*
G75*
G02X4316Y1718I63J-44*
G01*
G75*
G02Y1565J-77*
G01*
G75*
G02X4254Y1598J77*
G01*
X3052*
G75*
G02X3072Y1506I-36J-56*
G01*
X3081*
Y1490*
X3153*
Y1506*
X3281*
Y1490*
X3353*
Y1506*
X3481*
Y1490*
X3553*
Y1506*
X3681*
Y1490*
X3766*
Y1406*
X3781*
Y1300*
X3892*
X3958Y1366*
Y1461*
G75*
G02X4017Y1558I59J31*
G01*
G75*
G02X4075Y1461J-67*
G01*
Y1408*
X4183*
Y1175*
X4168*
Y1090*
X4065*
Y1175*
X4050*
Y1188*
X3973Y1110*
G75*
G02X3942Y1098I-31J31*
G01*
X3766*
G75*
G02X3664Y1183I-50J44*
G01*
X3631*
G75*
G02X3602I-14J59*
G01*
X3431*
G75*
G02X3402I-14J59*
G01*
X3369*
G75*
G02X3317Y1075I-52J-41*
G01*
G75*
G02X3264Y1183J67*
G01*
X3231*
G75*
G02X3202I-14J59*
G01*
X3031*
G75*
G02X3002I-14J59*
G01*
X2831*
G75*
G02X2802I-14J59*
G01*
X2781*
Y1077*
X2653*
Y1086*
G75*
G02X2564Y1183I-36J56*
G01*
X2481*
Y1077*
X2353*
Y1105*
G75*
G02X2317Y1090I-36J37*
G01*
G75*
G02X2285Y1183J52*
G01*
X2241*
X2180Y1121*
G75*
G02X2117Y1075I-63J20*
G01*
G75*
G02X2096Y1205J67*
G01*
X2158Y1266*
Y1278*
X1252*
Y1406*
X1268*
Y1490*
X1353*
Y1506*
X1481*
Y1490*
X1553*
Y1506*
X1681*
Y1490*
X1753*
Y1506*
X1881*
Y1490*
X1953*
Y1506*
X2081*
Y1490*
X2153*
Y1506*
X2281*
Y1490*
X2353*
Y1506*
X2481*
Y1490*
X2553*
Y1506*
X2561*
G75*
G02X2573Y1591I56J36*
G01*
G75*
G02X2588Y1702I44J50*
G01*
G75*
G02X2575Y1715I28J40*
G01*
G75*
G02X2458I-58J26*
G01*
G75*
G02X2422Y1693I-42J26*
G01*
G75*
G02X2417Y1590I-5J-51*
G01*
G75*
G02X2411Y1693J52*
G01*
G75*
G02X2375Y1715I5J49*
G01*
G75*
G02X2260Y1711I-58J26*
G01*
X2260Y1710*
G75*
G02X2239Y1699I-31J31*
G01*
G75*
G02X2217Y1580I-23J-57*
G01*
G75*
G02X2155Y1643J62*
G01*
X2098Y1585*
G75*
G02X2067Y1573I-31J31*
G01*
X1941*
G75*
G02X1910Y1585I0J44*
G01*
X1830Y1666*
G75*
G02X1750Y1779I-13J75*
G01*
X1558Y1587*
G75*
G02X1516Y1570I-42J42*
G01*
X1192*
G75*
G02X1150Y1587I0J59*
G01*
X1050Y1687*
G75*
G02X1038Y1704I42J42*
G01*
X1095Y1117D02*
G75*
G02X1313I109D01*
G01*
G75*
G02X1095I-109*
G01*
X1916Y1090D02*
G75*
G02Y1193J52D01*
G01*
G75*
G02Y1090J-52*
G01*
X4316Y1203D02*
G75*
G02Y1080J-62D01*
G01*
G75*
G02Y1203J62*
G01*
X4333Y1416D02*
X4365Y1449D01*
G75*
G02X4417Y1558I51J42*
G01*
G75*
G02X4458Y1440J-67*
G01*
G75*
G02X4446Y1412I-41J2*
G01*
X4391Y1358*
G75*
G02X4316Y1265I-75J-16*
G01*
G75*
G02Y1418J77*
G01*
G75*
G02X4333Y1416I0J-77*
G01*
X4779Y1198D02*
G75*
G02X4717Y1165I-63J44D01*
G01*
G75*
G02Y1318J77*
G01*
G75*
G02X4779Y1286J-77*
G01*
X4829*
G75*
G02X4860Y1273I0J-44*
G01*
X4897Y1236*
X5037*
G75*
G02X5132Y1296I94J-44*
G01*
G75*
G02Y1088J-104*
G01*
G75*
G02X5037Y1148J104*
G01*
X4879*
G75*
G02X4848Y1160I0J44*
G01*
X4811Y1198*
X4779*
X5367Y1408D02*
G75*
G02Y1625J109D01*
G01*
G75*
G02Y1408J-109*
G01*
X1038Y1117D02*
G36*
Y951D01*
X4645*
X4618Y978*
G75*
G02X4553Y1042I-2J64*
G01*
G75*
G02X4681I64*
G01*
G75*
G02X4680Y1040I-64J0*
G01*
X4697Y1023*
X5321*
G75*
G02X5263Y1117I46J94*
G01*
X5204*
G75*
G02X5132Y1088I-72J75*
G01*
G75*
G02X5059Y1117J104*
G01*
X4373*
G75*
G02X4316Y1080I-56J25*
G01*
G75*
G02X4260Y1117J62*
G01*
X4168*
Y1090*
X4065*
Y1175*
X4050*
Y1188*
X3973Y1110*
G75*
G02X3942Y1098I-31J31*
G01*
X3766*
G75*
G02X3664Y1183I-50J44*
G01*
X3631*
G75*
G02X3602I-14J59*
G01*
X3431*
G75*
G02X3402I-14J59*
G01*
X3369*
G75*
G02X3317Y1075I-52J-41*
G01*
G75*
G02X3264Y1183J67*
G01*
X3231*
G75*
G02X3202I-14J59*
G01*
X3031*
G75*
G02X3002I-14J59*
G01*
X2831*
G75*
G02X2802I-14J59*
G01*
X2781*
Y1077*
X2653*
Y1086*
G75*
G02X2564Y1183I-36J56*
G01*
X2481*
Y1077*
X2353*
Y1105*
G75*
G02X2317Y1090I-36J37*
G01*
G75*
G02X2285Y1183J52*
G01*
X2241*
X2180Y1121*
G75*
G02X2117Y1075I-63J20*
G01*
G75*
G02X2055Y1117J67*
G01*
X1962*
G75*
G02X1916Y1090I-45J25*
G01*
G75*
G02X1871Y1117J52*
G01*
X1313*
G75*
G02X1095I-109*
G01*
X1038*
G37*
X1095D02*
G36*
G75*
G02X1313I109D01*
G01*
X1871*
G75*
G02X1916Y1193I45J25*
G01*
G75*
G02X1962Y1117J-52*
G01*
X2055*
G75*
G02X2096Y1205I62J25*
G01*
X2158Y1266*
Y1278*
X1252*
Y1406*
X1268*
Y1490*
X1353*
Y1506*
X1481*
Y1490*
X1553*
Y1506*
X1681*
Y1490*
X1753*
Y1506*
X1881*
Y1490*
X1953*
Y1506*
X2081*
Y1490*
X2153*
Y1506*
X2281*
Y1490*
X2353*
Y1506*
X2481*
Y1490*
X2553*
Y1506*
X2561*
G75*
G02X2573Y1591I56J36*
G01*
G75*
G02X2588Y1702I44J50*
G01*
G75*
G02X2575Y1715I28J40*
G01*
G75*
G02X2458I-58J26*
G01*
G75*
G02X2422Y1693I-42J26*
G01*
G75*
G02X2417Y1590I-5J-51*
G01*
G75*
G02X2411Y1693J52*
G01*
G75*
G02X2375Y1715I5J49*
G01*
G75*
G02X2260Y1711I-58J26*
G01*
X2260Y1710*
G75*
G02X2239Y1699I-31J31*
G01*
G75*
G02X2217Y1580I-23J-57*
G01*
G75*
G02X2155Y1643J62*
G01*
X2098Y1585*
G75*
G02X2067Y1573I-31J31*
G01*
X1941*
G75*
G02X1910Y1585I0J44*
G01*
X1830Y1666*
G75*
G02X1750Y1779I-13J75*
G01*
X1558Y1587*
G75*
G02X1516Y1570I-42J42*
G01*
X1192*
G75*
G02X1150Y1587I0J59*
G01*
X1050Y1687*
G75*
G02X1038Y1704I42J42*
G01*
Y1117*
X1095*
G37*
X4260D02*
G36*
G75*
G02X4316Y1203I56J25D01*
G01*
G75*
G02X4373Y1117J-62*
G01*
X5059*
G75*
G02X5037Y1148I72J75*
G01*
X4879*
G75*
G02X4848Y1160I0J44*
G01*
X4811Y1198*
X4779*
G75*
G02X4717Y1165I-63J44*
G01*
G75*
G02Y1318J77*
G01*
G75*
G02X4779Y1286J-77*
G01*
X4829*
G75*
G02X4860Y1273I0J-44*
G01*
X4897Y1236*
X5037*
G75*
G02X5132Y1296I94J-44*
G01*
G75*
G02X5204Y1117J-104*
G01*
X5263*
G75*
G02X5323Y1211I104*
G01*
Y1242*
G75*
G02X5335Y1273I44J0*
G01*
X5435Y1373*
G75*
G02X5467Y1386I31J-31*
G01*
X5498*
Y1412*
X5396*
G75*
G02X5367Y1408I-29J105*
G01*
G75*
G02X5337Y1412J109*
G01*
X5104*
G75*
G02X4987Y1273I-117J-20*
G01*
G75*
G02X4878Y1343J119*
G01*
G75*
G02X4857Y1357I26J61*
G01*
X4839Y1375*
G75*
G02X4728Y1412I-23J117*
G01*
X4445*
X4391Y1358*
G75*
G02X4316Y1265I-75J-16*
G01*
G75*
G02X4286Y1412J77*
G01*
X4075*
Y1408*
X4183*
Y1175*
X4168*
Y1117*
X4260*
G37*
X4286Y1412D02*
G36*
G75*
G02X4316Y1418I31J-70D01*
G01*
G75*
G02X4333Y1416I0J-77*
G01*
X4365Y1449*
G75*
G02X4417Y1558I51J42*
G01*
G75*
G02X4458Y1440J-67*
G01*
G75*
G02X4446Y1412I-41J2*
G01*
X4445Y1412*
X4728*
G75*
G02X4740Y1583I88J80*
G01*
X4616*
G75*
G02X4532Y1666I-25J59*
G01*
Y1717*
G75*
G02Y1766I59J25*
G01*
Y1817*
X4455Y1895*
X4347*
G75*
G02X4316Y1780I-30J-54*
G01*
G75*
G02X4286Y1895J62*
G01*
X4088*
Y1884*
G75*
G02X4153Y1806I29J-43*
G01*
X4181*
Y1686*
X4254*
G75*
G02X4316Y1718I63J-44*
G01*
G75*
G02Y1565J-77*
G01*
G75*
G02X4254Y1598J77*
G01*
X3052*
G75*
G02X3072Y1506I-36J-56*
G01*
X3081*
Y1490*
X3153*
Y1506*
X3281*
Y1490*
X3353*
Y1506*
X3481*
Y1490*
X3553*
Y1506*
X3681*
Y1490*
X3766*
Y1406*
X3781*
Y1300*
X3892*
X3958Y1366*
Y1461*
G75*
G02X4017Y1558I59J31*
G01*
G75*
G02X4075Y1461J-67*
G01*
Y1412*
X4286*
G37*
X5337D02*
G36*
G75*
G02X5367Y1625I29J105D01*
G01*
G75*
G02X5396Y1412J-109*
G01*
X5498*
Y1586*
X5335Y1748*
G75*
G02X5323Y1779I31J31*
G01*
Y1822*
G75*
G02X5367Y2021I44J94*
G01*
G75*
G02X5460Y1962J-104*
G01*
Y1998*
X5361Y2098*
X5276*
G75*
G02X5217Y1960I-59J-56*
G01*
G75*
G02X5157Y2098J82*
G01*
X4947*
X4761Y1911*
Y1804*
G75*
G02X4791Y1725I-44J-63*
G01*
X4950Y1883*
G75*
G02X4992Y1901I42J-42*
G01*
X5046*
G75*
G02X5230Y1809I86J-59*
G01*
G75*
G02X5046Y1783I-99J32*
G01*
X5016*
X4960Y1726*
G75*
G02X5039Y1569I27J-85*
G01*
G75*
G02X4902Y1668I-52J72*
G01*
X4841Y1608*
G75*
G02X4935Y1499I-25J-116*
G01*
G75*
G02X4987Y1511I51J-107*
G01*
G75*
G02X5104Y1412J-119*
G01*
X5337*
G37*
X1151Y2659D02*
X1212Y2721D01*
G75*
G02X1254Y2738I42J-42*
G01*
X1402*
G75*
G02X1431I14J-59*
G01*
X1558*
Y2911*
G75*
G02X1647Y3001I59J31*
G01*
X1672*
G75*
G02X1673Y3001I45J-59*
G01*
G75*
G02Y3082I43J40*
G01*
G75*
G02X1672Y3083I43J60*
G01*
X1647*
G75*
G02X1553Y3121I-31J59*
G01*
X1430Y3245*
X1315*
G75*
G02X1229Y3200I-86J59*
G01*
G75*
G02X1210Y3202I0J104*
G01*
X1151Y3142*
Y2659*
X1417Y2993D02*
G75*
G02Y2890J-52D01*
G01*
G75*
G02Y2993J52*
G01*
Y3090D02*
G75*
G02Y3193J52D01*
G01*
G75*
G02Y3090J-52*
G01*
X1151Y2942D02*
G36*
Y2659D01*
X1212Y2721*
G75*
G02X1254Y2738I42J-42*
G01*
X1402*
G75*
G02X1431I14J-59*
G01*
X1558*
Y2911*
G75*
G02X1550Y2942I59J31*
G01*
X1468*
G75*
G02X1417Y2890I-52*
G01*
G75*
G02X1365Y2942J52*
G01*
X1151*
G37*
X1365D02*
G36*
G75*
G02X1417Y2993I52D01*
G01*
G75*
G02X1468Y2942J-52*
G01*
X1550*
G75*
G02X1647Y3001I67*
G01*
X1672*
G75*
G02X1673Y3001I45J-59*
G01*
G75*
G02Y3082I43J40*
G01*
G75*
G02X1672Y3083I43J60*
G01*
X1647*
G75*
G02X1553Y3121I-31J59*
G01*
X1533Y3142*
X1468*
G75*
G02X1417Y3090I-52*
G01*
G75*
G02X1365Y3142J52*
G01*
X1151*
Y2942*
X1365*
G37*
Y3142D02*
G36*
G75*
G02X1417Y3193I52D01*
G01*
G75*
G02X1468Y3142J-52*
G01*
X1533*
X1430Y3245*
X1315*
G75*
G02X1229Y3200I-86J59*
G01*
G75*
G02X1210Y3202I0J104*
G01*
X1151Y3142*
Y3142*
X1365*
G37*
X1252Y2594D02*
X1250Y2592D01*
Y2216*
X1261Y2206*
X1381*
Y2191*
X1466*
Y2106*
X1481*
Y1688*
X1492*
X1800Y1996*
G75*
G02X1841Y2013I42J-42*
G01*
X2259*
G75*
G02X2275Y2090I57J29*
G01*
G75*
G02X2273Y2192I42J52*
G01*
G75*
G02Y2292I44J50*
G01*
G75*
G02X2261Y2378I44J50*
G01*
X2153*
Y2393*
X2081*
Y2378*
X1953*
Y2393*
X1881*
Y2378*
X1753*
Y2393*
X1681*
Y2378*
X1553*
Y2393*
X1481*
Y2378*
X1353*
Y2393*
X1268*
Y2478*
X1252*
Y2594*
G36*
X1250Y2592*
Y2216*
X1261Y2206*
X1381*
Y2191*
X1466*
Y2106*
X1481*
Y1688*
X1492*
X1800Y1996*
G75*
G02X1841Y2013I42J-42*
G01*
X2259*
G75*
G02X2275Y2090I57J29*
G01*
G75*
G02X2273Y2192I42J52*
G01*
G75*
G02Y2292I44J50*
G01*
G75*
G02X2261Y2378I44J50*
G01*
X2153*
Y2393*
X2081*
Y2378*
X1953*
Y2393*
X1881*
Y2378*
X1753*
Y2393*
X1681*
Y2378*
X1553*
Y2393*
X1481*
Y2378*
X1353*
Y2393*
X1268*
Y2478*
X1252*
Y2594*
G37*
X2271Y1895D02*
G75*
G02X2293Y1848I-55J-54D01*
G01*
X2454*
G75*
G02X2485Y1835I0J-44*
G01*
X2515Y1805*
G75*
G02X2575Y1768I2J-64*
G01*
G75*
G02X2666Y1741I42J-26*
G01*
G75*
G02X2645Y1702I-49*
G01*
G75*
G02X2667Y1685I-28J-60*
G01*
G75*
G02X2783Y1641I50J-44*
G01*
G75*
G02X2667Y1598I-67*
G01*
G75*
G02X2660Y1591I-50J44*
G01*
G75*
G02X2672Y1506I-44J-50*
G01*
X2681*
Y1490*
X2753*
Y1506*
X2881*
Y1490*
X2953*
Y1506*
X2961*
G75*
G02X2981Y1598I56J36*
G01*
X2954*
G75*
G02X2923Y1610I0J44*
G01*
X2885Y1648*
G75*
G02X2873Y1679I31J31*
G01*
Y1695*
G75*
G02X2867Y1702I44J46*
G01*
G75*
G02X2753Y1741I-50J40*
G01*
G75*
G02X2773Y1788I64*
G01*
Y1816*
G75*
G02X2785Y1848I44J0*
G01*
X2833Y1895*
X2531*
G75*
G02X2502I-14J59*
G01*
X2271*
G36*
G75*
G02X2293Y1848I-55J-54*
G01*
X2454*
G75*
G02X2485Y1835I0J-44*
G01*
X2515Y1805*
G75*
G02X2575Y1768I2J-64*
G01*
G75*
G02X2666Y1741I42J-26*
G01*
G75*
G02X2645Y1702I-49*
G01*
G75*
G02X2667Y1685I-28J-60*
G01*
G75*
G02X2783Y1641I50J-44*
G01*
G75*
G02X2667Y1598I-67*
G01*
G75*
G02X2660Y1591I-50J44*
G01*
G75*
G02X2672Y1506I-44J-50*
G01*
X2681*
Y1490*
X2753*
Y1506*
X2881*
Y1490*
X2953*
Y1506*
X2961*
G75*
G02X2981Y1598I56J36*
G01*
X2954*
G75*
G02X2923Y1610I0J44*
G01*
X2885Y1648*
G75*
G02X2873Y1679I31J31*
G01*
Y1695*
G75*
G02X2867Y1702I44J46*
G01*
G75*
G02X2753Y1741I-50J40*
G01*
G75*
G02X2773Y1788I64*
G01*
Y1816*
G75*
G02X2785Y1848I44J0*
G01*
X2833Y1895*
X2531*
G75*
G02X2502I-14J59*
G01*
X2271*
G37*
X2358Y2090D02*
G75*
G02X2367Y2081I-42J-48D01*
G01*
G75*
G02X2467I50J-40*
G01*
G75*
G02X2567I50J-40*
G01*
G75*
G02X2663Y2086I50J-40*
G01*
X2667*
G75*
G02X2673Y2092I50J-44*
G01*
G75*
G02Y2192I44J50*
G01*
G75*
G02Y2292I44J50*
G01*
G75*
G02X2661Y2378I44J50*
G01*
X2553*
Y2393*
X2481*
Y2378*
X2372*
G75*
G02X2360Y2292I-56J-36*
G01*
G75*
G02Y2192I-44J-50*
G01*
G75*
G02X2358Y2090I-44J-50*
G01*
G36*
G75*
G02X2367Y2081I-42J-48*
G01*
G75*
G02X2467I50J-40*
G01*
G75*
G02X2567I50J-40*
G01*
G75*
G02X2663Y2086I50J-40*
G01*
X2667*
G75*
G02X2673Y2092I50J-44*
G01*
G75*
G02Y2192I44J50*
G01*
G75*
G02Y2292I44J50*
G01*
G75*
G02X2661Y2378I44J50*
G01*
X2553*
Y2393*
X2481*
Y2378*
X2372*
G75*
G02X2360Y2292I-56J-36*
G01*
G75*
G02Y2192I-44J-50*
G01*
G75*
G02X2358Y2090I-44J-50*
G01*
G37*
X2861Y1788D02*
G75*
G02X2867Y1781I-44J-46D01*
G01*
G75*
G02X2975Y1768I50J-40*
G01*
G75*
G02X3058I42J-26*
G01*
G75*
G02X3175I58J-26*
G01*
G75*
G02X3266Y1741I42J-26*
G01*
G75*
G02X3175Y1715I-49*
G01*
G75*
G02X3147Y1686I-58J26*
G01*
X3386*
G75*
G02X3358Y1715I31J56*
G01*
G75*
G02X3268Y1741I-42J26*
G01*
G75*
G02X3358Y1768I49*
G01*
G75*
G02X3467Y1781I58J-26*
G01*
G75*
G02X3567I50J-40*
G01*
G75*
G02X3667I50J-40*
G01*
G75*
G02X3781Y1741I50J-40*
G01*
G75*
G02X3747Y1686I-64*
G01*
X4048*
G75*
G02X4025Y1700I19J56*
G01*
X3987Y1737*
G75*
G02X3973Y1761I42J42*
G01*
G75*
G02X3878Y1816I-31J56*
G01*
G75*
G02X3878Y1818I64J0*
G01*
X3848Y1847*
X2910*
X2861Y1798*
Y1788*
G36*
G75*
G02X2867Y1781I-44J-46*
G01*
G75*
G02X2975Y1768I50J-40*
G01*
G75*
G02X3058I42J-26*
G01*
G75*
G02X3175I58J-26*
G01*
G75*
G02X3266Y1741I42J-26*
G01*
G75*
G02X3175Y1715I-49*
G01*
G75*
G02X3147Y1686I-58J26*
G01*
X3386*
G75*
G02X3358Y1715I31J56*
G01*
G75*
G02X3268Y1741I-42J26*
G01*
G75*
G02X3358Y1768I49*
G01*
G75*
G02X3467Y1781I58J-26*
G01*
G75*
G02X3567I50J-40*
G01*
G75*
G02X3667I50J-40*
G01*
G75*
G02X3781Y1741I50J-40*
G01*
G75*
G02X3747Y1686I-64*
G01*
X4048*
G75*
G02X4025Y1700I19J56*
G01*
X3987Y1737*
G75*
G02X3973Y1761I42J42*
G01*
G75*
G02X3878Y1816I-31J56*
G01*
G75*
G02X3878Y1818I64J0*
G01*
X3848Y1847*
X2910*
X2861Y1798*
Y1788*
G37*
X3485Y3948D02*
X3473Y3942D01*
X3467Y3929*
X3473Y3917*
X3485Y3910*
X3529*
Y3985*
X3485*
X3473Y3979*
X3467Y3967*
X3473Y3954*
X3485Y3948*
X3529*
X3429Y3935D02*
Y3960D01*
X3423Y3973*
X3417Y3979*
X3404Y3985*
X3392*
X3379Y3979*
X3373Y3973*
X3367Y3960*
Y3935*
X3373Y3923*
X3379Y3917*
X3392Y3910*
X3404*
X3417Y3917*
X3423Y3923*
X3429Y3935*
X3298Y3910D02*
Y3985D01*
X3329D02*
X3267D01*
X3198Y3910D02*
Y3985D01*
X3229D02*
X3167D01*
X3129Y3935D02*
Y3960D01*
X3123Y3973*
X3117Y3979*
X3104Y3985*
X3092*
X3079Y3979*
X3073Y3973*
X3067Y3960*
Y3935*
X3073Y3923*
X3079Y3917*
X3092Y3910*
X3104*
X3117Y3917*
X3123Y3923*
X3129Y3935*
X3029Y3910D02*
Y3985D01*
X2998Y3948*
X2967Y3985*
Y3910*
X3860Y4085D02*
X3848Y4079D01*
X3842Y4066*
X3848Y4054*
X3860Y4048*
X3904*
Y4123*
X3860*
X3848Y4117*
X3842Y4104*
X3848Y4092*
X3860Y4085*
X3904*
X3773Y4048D02*
Y4085D01*
X3804Y4123*
X3773Y4085D02*
X3742Y4123D01*
X3542Y4060D02*
X3548Y4054D01*
X3560Y4048*
X3579*
X3592Y4054*
X3598Y4060*
X3604Y4073*
Y4098*
X3598Y4110*
X3592Y4117*
X3579Y4123*
X3560*
X3548Y4117*
X3542Y4110*
X3504Y4048D02*
Y4123D01*
X3473Y4085*
X3442Y4123*
Y4048*
X3254D02*
X3304D01*
X3260Y4092*
X3254Y4104*
X3260Y4117*
X3273Y4123*
X3292*
X3304Y4117*
X3198Y4054D02*
X3185Y4048D01*
X3173*
X3160Y4054*
X3154Y4066*
Y4104*
X3160Y4117*
X3173Y4123*
X3185*
X3198Y4117*
X3204Y4104*
Y4066*
X3198Y4054*
X3160Y4117*
X3098Y4054D02*
X3085Y4048D01*
X3073*
X3060Y4054*
X3054Y4066*
Y4104*
X3060Y4117*
X3073Y4123*
X3085*
X3098Y4117*
X3104Y4104*
Y4066*
X3098Y4054*
X3060Y4117*
X3004Y4048D02*
X2954Y4123D01*
X3004*
X4292Y4767D02*
X4304Y4773D01*
X4323*
X4335Y4767*
X4342Y4754*
Y4742*
X4335Y4729*
X4323Y4723*
X4304*
X4292Y4729*
X4217Y4785D02*
X4204Y4798D01*
X4129Y4773D02*
X4104D01*
X4117Y4785D02*
Y4729D01*
X4110Y4723*
X4104*
X4098Y4729*
X3942Y4723D02*
Y4798D01*
X3904*
X3892Y4792*
X3885Y4785*
X3879Y4773*
Y4748*
X3885Y4735*
X3892Y4729*
X3904Y4723*
X3942*
X3798Y4754D02*
X3779D01*
Y4748*
X3785Y4735*
X3792Y4729*
X3804Y4723*
X3817*
X3829Y4729*
X3835Y4735*
X3842Y4748*
Y4773*
X3835Y4785*
X3829Y4792*
X3817Y4798*
X3804*
X3792Y4792*
X3785Y4785*
X3779Y4773*
X3742Y4723D02*
X3692Y4798D01*
X3742*
X3642Y4748D02*
X3592D01*
X3529Y4723D02*
X3504D01*
X3517D02*
Y4798D01*
X3529Y4785*
X3442Y4742D02*
X3435Y4754D01*
X3423Y4760*
X3410*
X3398Y4754*
X3392Y4742*
X3398Y4729*
X3410Y4723*
X3423*
X3435Y4729*
X3442Y4742*
Y4760*
X3435Y4779*
X3423Y4792*
X3410Y4798*
X3210Y4723D02*
Y4798D01*
X3242D02*
X3179D01*
X3142D02*
Y4742D01*
X3135Y4729*
X3123Y4723*
X3098*
X3085Y4729*
X3079Y4742*
Y4798*
X2998Y4760D02*
X2985Y4754D01*
X2979Y4742*
X2985Y4729*
X2998Y4723*
X3042*
Y4798*
X2998*
X2985Y4792*
X2979Y4779*
X2985Y4767*
X2998Y4760*
X3042*
X2942Y4723D02*
Y4798D01*
X2879*
X2892Y4760D02*
X2942D01*
Y4723D02*
X2879D01*
X2842D02*
Y4798D01*
X2798*
X2785Y4792*
X2779Y4779*
X2785Y4767*
X2798Y4760*
X2842*
X2798D02*
X2779Y4723D01*
X2742Y4748D02*
Y4773D01*
X2735Y4785*
X2729Y4792*
X2717Y4798*
X2704*
X2692Y4792*
X2685Y4785*
X2679Y4773*
Y4748*
X2685Y4735*
X2692Y4729*
X2704Y4723*
X2717*
X2729Y4729*
X2735Y4735*
X2742Y4748*
X2623Y4723D02*
X2598D01*
X2610D02*
Y4798D01*
X2623D02*
X2598D01*
X2542Y4723D02*
Y4798D01*
X2504*
X2492Y4792*
X2485Y4785*
X2479Y4773*
Y4748*
X2485Y4735*
X2492Y4729*
X2504Y4723*
X2542*
X2442Y4742D02*
X2435Y4729D01*
X2423Y4723*
X2398*
X2385Y4729*
X2379Y4742*
X2385Y4754*
X2398Y4760*
X2423*
X2435Y4767*
X2442Y4779*
X2435Y4792*
X2423Y4798*
X2398*
X2385Y4792*
X2379Y4779*
X6654Y1023D02*
Y1075D01*
G75*
G02X6625Y1135I62J67*
G01*
X6389Y1371*
G75*
G02X6316Y1340I-73J71*
G01*
G75*
G02X6299Y1542J102*
G01*
G75*
G02X6248Y1716I17J100*
G01*
Y1775*
X6178Y1845*
G75*
G02X6117Y1780I-61J-4*
G01*
G75*
G02Y1903J62*
G01*
G75*
G02X6120Y1903I0J-61*
G01*
X6068Y1955*
G75*
G02X6048Y2004I49J49*
G01*
Y2181*
G75*
G02X6025Y2242I69J60*
G01*
G75*
G02X6026Y2253I91J0*
G01*
X6008Y2235*
G75*
G02X5986Y2181I-91J6*
G01*
Y2102*
G75*
G02X5856Y1972I-69J-60*
G01*
X5677*
G75*
G02X5548Y1981I-60J69*
G01*
Y1947*
X5559Y1936*
G75*
G02X5602Y1945I43J-95*
G01*
G75*
G02Y1738J-104*
G01*
G75*
G02X5501Y1869J104*
G01*
X5473Y1898*
G75*
G02X5469Y1902I31J31*
G01*
G75*
G02X5411Y1822I-103J15*
G01*
Y1797*
X5573Y1635*
G75*
G02X5586Y1604I-31J-31*
G01*
Y1386*
X5742*
G75*
G02X5773Y1373I0J-44*
G01*
X5848Y1298*
G75*
G02X5861Y1267I-31J-31*
G01*
Y1191*
G75*
G02X5816Y1075I-44J-50*
G01*
G75*
G02X5773Y1191J67*
G01*
Y1248*
X5723Y1298*
X5554*
G75*
G02X5529I-12J44*
G01*
X5485*
X5411Y1223*
Y1211*
G75*
G02X5412Y1023I-44J-94*
G01*
X6654*
X5663Y1107D02*
G75*
G02X5540Y1276I-61J84D01*
G01*
G75*
G02X5663Y1107I61J-84*
G01*
X5791Y1520D02*
G75*
G02X5747Y1513I-44J121D01*
G01*
G75*
G02Y1770J129*
G01*
G75*
G02X5855Y1711J-129*
G01*
X5856*
G75*
G02X6008Y1641I60J-69*
G01*
G75*
G02X5995Y1594I-92*
G01*
G75*
G02X5917Y1363I-78J-103*
G01*
G75*
G02X5791Y1520J129*
G01*
X6267Y1129D02*
G75*
G02X6217Y1090I-50J12D01*
G01*
G75*
G02Y1193J52*
G01*
G75*
G02X6267Y1154J-52*
G01*
G75*
G02X6316Y1193I50J-12*
G01*
G75*
G02Y1090J-52*
G01*
G75*
G02X6267Y1129J52*
G01*
X5439Y1192D02*
G36*
G75*
G02X5412Y1023I-72J-75D01*
G01*
X6654*
Y1075*
G75*
G02X6625Y1135I62J67*
G01*
X6569Y1192*
X6329*
G75*
G02X6316Y1090I-12J-50*
G01*
G75*
G02X6267Y1129J52*
G01*
G75*
G02X6217Y1090I-50J12*
G01*
G75*
G02X6204Y1192J52*
G01*
X5861*
Y1191*
G75*
G02X5816Y1075I-44J-50*
G01*
G75*
G02X5773Y1191J67*
G01*
Y1192*
X5706*
G75*
G02X5663Y1107I-104*
G01*
G75*
G02X5498Y1192I-61J84*
G01*
X5439*
G37*
X5498D02*
G36*
G75*
G02X5540Y1276I104D01*
G01*
G75*
G02X5706Y1192I61J-84*
G01*
X5773*
Y1248*
X5723Y1298*
X5554*
G75*
G02X5529I-12J44*
G01*
X5485*
X5411Y1223*
Y1211*
G75*
G02X5439Y1192I-44J-94*
G01*
X5498*
G37*
X6204D02*
G36*
G75*
G02X6217Y1193I12J-50D01*
G01*
G75*
G02X6267Y1154J-52*
G01*
G75*
G02X6316Y1193I50J-12*
G01*
G75*
G02X6329Y1192J-51*
G01*
X6569*
X6389Y1371*
G75*
G02X6316Y1340I-73J71*
G01*
G75*
G02X6299Y1542J102*
G01*
G75*
G02X6248Y1566I17J100*
G01*
X6021*
G75*
G02X5917Y1363I-105J-75*
G01*
G75*
G02X5791Y1520J129*
G01*
G75*
G02X5747Y1513I-44J121*
G01*
G75*
G02X5642Y1566J129*
G01*
X5586*
Y1386*
X5742*
G75*
G02X5773Y1373I0J-44*
G01*
X5848Y1298*
G75*
G02X5861Y1267I-31J-31*
G01*
Y1192*
X6204*
G37*
X5642Y1566D02*
G36*
G75*
G02X5747Y1770I105J75D01*
G01*
G75*
G02X5855Y1711J-129*
G01*
X5856*
G75*
G02X5995Y1594I60J-69*
G01*
G75*
G02X6021Y1566I-78J-103*
G01*
X6248*
G75*
G02X6248Y1716I68J75*
G01*
Y1775*
X6178Y1845*
G75*
G02X6117Y1780I-61J-4*
G01*
G75*
G02Y1903J62*
G01*
G75*
G02X6120Y1903I0J-61*
G01*
X6068Y1955*
G75*
G02X6048Y2004I49J49*
G01*
Y2181*
G75*
G02X6025Y2242I69J60*
G01*
G75*
G02X6026Y2253I91J0*
G01*
X6008Y2235*
G75*
G02X5986Y2181I-91J6*
G01*
Y2102*
G75*
G02X5856Y1972I-69J-60*
G01*
X5677*
G75*
G02X5548Y1981I-60J69*
G01*
Y1947*
X5559Y1936*
G75*
G02X5602Y1945I43J-95*
G01*
G75*
G02Y1738J-104*
G01*
G75*
G02X5501Y1869J104*
G01*
X5473Y1898*
G75*
G02X5469Y1902I31J31*
G01*
G75*
G02X5411Y1822I-103J15*
G01*
Y1797*
X5573Y1635*
G75*
G02X5586Y1604I-31J-31*
G01*
Y1566*
X5642*
G37*
X6654Y4784D02*
Y4835D01*
X4358*
G75*
G02X4360Y4828I-12J-7*
G01*
Y4700*
G75*
G02X4346Y4686I-14*
G01*
X2338*
G75*
G02X2324Y4700J14*
G01*
Y4828*
G75*
G02X2325Y4835I14*
G01*
X1038*
Y3191*
G75*
G02X1050Y3208I54J-25*
G01*
X1127Y3285*
G75*
G02X1170Y3390I102J19*
G01*
Y3618*
G75*
G02X1248Y3806I59J86*
G01*
X1325Y3883*
G75*
G02X1367Y3901I42J-42*
G01*
X1370*
Y4183*
X1247*
G75*
G02X1217Y4175I-31J59*
G01*
G75*
G02Y4308J67*
G01*
G75*
G02X1247Y4301J-67*
G01*
X1370*
Y4642*
G75*
G02X1387Y4683I59J0*
G01*
X1512Y4808*
G75*
G02X1554Y4826I42J-42*
G01*
X2092*
G75*
G02X2133Y4808I0J-59*
G01*
X2326Y4616*
X2391*
Y4468*
X2376*
Y4201*
X2579*
G75*
G02X2621Y4183I0J-59*
G01*
X2671Y4133*
G75*
G02X2688Y4092I-42J-42*
G01*
Y3879*
G75*
G02X2671Y3837I-59J0*
G01*
X2633Y3800*
G75*
G02X2592Y3783I-42J42*
G01*
X2561*
G75*
G02X2455Y3882I-45J59*
G01*
X2376*
Y3553*
G75*
G02X2268Y3445I-59J-49*
G01*
X2165*
G75*
G02X2068I-49J59*
G01*
X1865*
G75*
G02X1816Y3428I-49J59*
G01*
G75*
G02Y3581J77*
G01*
G75*
G02X1865Y3563J-77*
G01*
X2068*
G75*
G02X2165I49J-59*
G01*
X2258*
Y3799*
G75*
G02X2173Y3882I-41J42*
G01*
G75*
G02X2162Y3992I43J60*
G01*
G75*
G02X2157Y3998I55J50*
G01*
X2063*
G75*
G02X2056Y3992I-46J44*
G01*
G75*
G02X2043Y3883I-40J-50*
G01*
G75*
G02X2017Y3793I-26J-42*
G01*
G75*
G02X1990Y3883J49*
G01*
G75*
G02X1977Y3992I26J58*
G01*
G75*
G02Y4092I40J50*
G01*
G75*
G02X2041Y4201I40J50*
G01*
X2064*
G75*
G02X2072Y4291I52J41*
G01*
Y4479*
G75*
G02X2117Y4618I44J63*
G01*
G75*
G02X2160Y4479J-77*
G01*
Y4291*
G75*
G02X2169Y4201I-44J-50*
G01*
X2258*
Y4468*
X2243*
Y4532*
X2067Y4707*
X1755*
G75*
G02X1703Y4566I-39J-66*
G01*
X1661Y4523*
Y4494*
G75*
G02X1716Y4518I56J-52*
G01*
G75*
G02Y4365J-77*
G01*
G75*
G02X1661Y4389J77*
G01*
Y4291*
G75*
G02X1666Y4285I-44J-50*
G01*
G75*
G02X1766Y4286I50J-44*
G01*
X1779*
G75*
G02X1810Y4273I0J-44*
G01*
X1848Y4235*
G75*
G02X1861Y4204I-31J-31*
G01*
Y3979*
G75*
G02X1848Y3948I-44J0*
G01*
X1810Y3910*
G75*
G02X1779Y3898I-31J31*
G01*
X1763*
G75*
G02X1756Y3892I-46J44*
G01*
G75*
G02X1692Y3783I-40J-50*
G01*
X1443*
G75*
G02X1415I-14J59*
G01*
X1391*
X1331Y3723*
G75*
G02X1288Y3618I-102J-19*
G01*
Y3390*
G75*
G02X1315Y3363I-59J-86*
G01*
X1454*
G75*
G02X1496Y3346I0J-59*
G01*
X1637Y3205*
G75*
G02X1647Y3200I-20J-63*
G01*
X1672*
G75*
G02X1791Y3142I45J-59*
G01*
G75*
G02X1760Y3082I-74*
G01*
G75*
G02Y3001I-43J-40*
G01*
G75*
G02X1790Y2952I-43J-60*
G01*
X1858Y2883*
G75*
G02X1875Y2842I-42J-42*
G01*
Y2738*
X1966*
G75*
G02X2008Y2721I0J-59*
G01*
X2058Y2671*
G75*
G02X2076Y2629I-42J-42*
G01*
Y2620*
G75*
G02X2085Y2635I41J-16*
G01*
X2123Y2673*
G75*
G02X2154Y2686I31J-31*
G01*
X2267*
G75*
G02X2372Y2606I50J-44*
G01*
X2661*
G75*
G02X2766Y2686I56J36*
G01*
X2867*
G75*
G02X2886Y2700I50J-44*
G01*
G75*
G02X2917Y2793I31J41*
G01*
G75*
G02X2947Y2700J-52*
G01*
G75*
G02X2972Y2606I-31J-59*
G01*
X3261*
G75*
G02X3273Y2692I56J36*
G01*
G75*
G02X3317Y2808I44J50*
G01*
G75*
G02X3366Y2785J-67*
G01*
X3411*
X3435Y2810*
G75*
G02X3467Y2823I31J-31*
G01*
X3492*
G75*
G02X3607Y2770I50J-44*
G01*
G75*
G02X3626I9J-66*
G01*
G75*
G02X3650Y2831I66J9*
G01*
G75*
G02X3660Y2848I42J-14*
G01*
X3750Y2937*
G75*
G02X3866Y2986I66J4*
G01*
X3911*
X3973Y3047*
Y3092*
G75*
G02X3950Y3142I44J50*
G01*
G75*
G02X4066Y3186I67*
G01*
X4445*
G75*
G02X4556Y3142I46J-44*
G01*
G75*
G02X4445Y3098I-64*
G01*
X4342*
G75*
G02X4316Y2980I-25J-56*
G01*
G75*
G02X4291Y3098J62*
G01*
X4066*
G75*
G02X4061Y3092I-50J44*
G01*
Y3029*
G75*
G02X4048Y2998I-44J0*
G01*
X3960Y2910*
G75*
G02X3929Y2898I-31J31*
G01*
X3866*
G75*
G02X3817Y2875I-50J44*
G01*
G75*
G02X3812Y2875I0J67*
G01*
X3749Y2812*
G75*
G02X3750Y2748I-58J-33*
G01*
X3823*
X3848Y2773*
G75*
G02X3879Y2785I31J-31*
G01*
X3967*
G75*
G02X4083Y2742I50J-44*
G01*
G75*
G02X3967Y2698I-67*
G01*
X3897*
X3873Y2673*
G75*
G02X3842Y2660I-31J31*
G01*
X3666*
G75*
G02X3612Y2638I-50J44*
G01*
X3585Y2610*
G75*
G02X3579Y2606I-31J31*
G01*
X3781*
Y2478*
X3766*
Y2393*
X3681*
Y2378*
X3553*
Y2393*
X3481*
Y2378*
X3353*
Y2393*
X3281*
Y2378*
X3153*
Y2393*
X3081*
Y2378*
X2953*
Y2393*
X2881*
Y2378*
X2772*
G75*
G02X2760Y2292I-56J-36*
G01*
G75*
G02Y2192I-44J-50*
G01*
G75*
G02X2778Y2166I-44J-50*
G01*
X2785Y2173*
G75*
G02X2817Y2186I31J-31*
G01*
X3879*
G75*
G02X3910Y2173I0J-44*
G01*
X3997Y2086*
X4053*
Y2106*
X4061*
G75*
G02X4050Y2142I56J36*
G01*
G75*
G02X4183I67*
G01*
G75*
G02X4172Y2106I-67*
G01*
X4181*
Y2013*
X4479*
G75*
G02X4521Y1996I0J-59*
G01*
X4616Y1901*
G75*
G02X4651Y1817I-24J-59*
G01*
Y1780*
G75*
G02X4673Y1804I66J-39*
G01*
Y1929*
G75*
G02X4685Y1960I44J0*
G01*
X4898Y2173*
G75*
G02X4929Y2186I31J-31*
G01*
X5157*
G75*
G02X5217Y2323I59J56*
G01*
G75*
G02X5276Y2186J-82*
G01*
X5379*
G75*
G02X5410Y2173I0J-44*
G01*
X5526Y2056*
G75*
G02X5677Y2111I90J-15*
G01*
X5848*
Y2172*
X5677*
G75*
G02X5617Y2150I-60J69*
G01*
G75*
G02Y2333J92*
G01*
G75*
G02X5677Y2311J-92*
G01*
X5856*
G75*
G02X5910Y2333I60J-69*
G01*
X6048Y2470*
Y2581*
G75*
G02Y2702I69J60*
G01*
Y2963*
X5868Y3143*
G75*
G02X5848Y3192I49J49*
G01*
Y3433*
X5820*
G75*
G02X5801Y3435I-3J71*
G01*
X5058*
X5016Y3393*
Y3293*
X4818*
Y3491*
X4918*
X4980Y3553*
G75*
G02X5029Y3573I49J-49*
G01*
X5452*
G75*
G02X5428Y3673I64J69*
G01*
X5191*
G75*
G02X5117Y3640I-74J69*
G01*
G75*
G02Y3843J102*
G01*
G75*
G02X5191Y3811J-102*
G01*
X5425*
Y3933*
X5608*
Y3750*
X5587*
G75*
G02X5587Y3742I-70J-8*
G01*
G75*
G02X5586Y3726I-71*
G01*
Y3705*
G75*
G02X5581Y3573I-69J-64*
G01*
X5801*
G75*
G02X5820Y3575I15J-69*
G01*
X5825*
Y3733*
X6005*
G75*
G02X5964Y3815I111J109*
G01*
G75*
G02X5917Y3788I-47J27*
G01*
G75*
G02Y3895J54*
G01*
G75*
G02X5964Y3868J-54*
G01*
G75*
G02X6003Y3947I153J-27*
G01*
X6001*
G75*
G02X5823Y4126I-85J94*
G01*
Y4169*
G75*
G02Y4314I94J73*
G01*
Y4325*
X5800*
Y4548*
X5755*
X5635Y4427*
G75*
G02X5565Y4333I-118J15*
G01*
X5608*
Y4150*
X5425*
Y4235*
X5268Y4393*
G75*
G02X5248Y4441I49J49*
G01*
Y4567*
G75*
G02X5242Y4572I69J74*
G01*
X5191*
G75*
G02X5042I-74J69*
G01*
X4945*
X4810Y4438*
G75*
G02X4717Y4348I-94J4*
G01*
G75*
G02X4713Y4535J94*
G01*
X4868Y4690*
G75*
G02X4917Y4711I49J-49*
G01*
X5042*
G75*
G02X5191I74J-69*
G01*
X5242*
G75*
G02X5316Y4743I74J-69*
G01*
G75*
G02X5386Y4567J-102*
G01*
Y4470*
X5399Y4457*
G75*
G02X5502Y4560I118J-16*
G01*
X5650Y4708*
G75*
G02X5717Y4736I66J-66*
G01*
X5832*
G75*
G02X6001I85J-94*
G01*
X6032*
G75*
G02X6211Y4557I85J-94*
G01*
Y4544*
G75*
G02X6394Y4567I106J-103*
G01*
Y4579*
G75*
G02X6430Y4666I123*
G01*
X6492Y4728*
G75*
G02X6579Y4764I87J-87*
G01*
X6621*
G75*
G02X6654Y4784I95J-123*
G01*
X1095Y4667D02*
G75*
G02X1313I109D01*
G01*
G75*
G02X1095I-109*
G01*
X1316Y3990D02*
G75*
G02Y4093J52D01*
G01*
G75*
G02Y3990J-52*
G01*
X1563Y3435D02*
Y3420D01*
X1395*
Y3588*
X1563*
Y3573*
X1698*
Y3435*
X1563*
X2373Y3042D02*
G75*
G02X2660I144D01*
G01*
G75*
G02X2373I-144*
G01*
X2517Y4603D02*
G75*
G02Y4480J-62D01*
G01*
G75*
G02Y4603J62*
G01*
X2709Y3580D02*
X2850Y3721D01*
G75*
G02X2892Y3738I42J-42*
G01*
X3479*
G75*
G02X3521Y3721I0J-59*
G01*
X3611Y3630*
G75*
G02X3706Y3542I5J-89*
G01*
G75*
G02X3528I-89*
G01*
G75*
G02X3528Y3547I89J0*
G01*
X3499Y3576*
G75*
G02X3506Y3542I-82J-35*
G01*
G75*
G02X3328I-89*
G01*
G75*
G02X3375Y3620I89*
G01*
X3258*
G75*
G02X3306Y3542I-42J-79*
G01*
G75*
G02X3128I-89*
G01*
G75*
G02X3175Y3620I89*
G01*
X3058*
G75*
G02X3106Y3542I-42J-79*
G01*
G75*
G02X2928I-89*
G01*
G75*
G02X2975Y3620I89*
G01*
X2916*
X2793Y3497*
G75*
G02X2717Y3428I-76J7*
G01*
G75*
G02X2709Y3580J77*
G01*
X2911Y4011D02*
X2900D01*
G75*
G02X2886Y4025J14*
G01*
Y4153*
G75*
G02X2900Y4167I14*
G01*
X3908*
G75*
G02X3922Y4153J-14*
G01*
Y4025*
G75*
G02X3908Y4011I-14*
G01*
X3547*
Y3888*
G75*
G02X3533Y3874I-14*
G01*
X2925*
G75*
G02X2911Y3888J14*
G01*
Y4011*
X2928Y4441D02*
G75*
G02X3106I89D01*
G01*
G75*
G02X2928I-89*
G01*
X3080Y3078D02*
X3053D01*
Y3206*
X3181*
Y3200*
X3350*
Y3208*
X3483*
Y3075*
X3475*
Y2972*
G75*
G02X3417Y2875I-59J-31*
G01*
G75*
G02X3358Y2972J67*
G01*
Y3075*
X3350*
Y3083*
X3181*
Y3078*
X3153*
G75*
G02X3168Y3042I-37J-36*
G01*
G75*
G02X3065I-52*
G01*
G75*
G02X3080Y3078I52*
G01*
X3128Y4441D02*
G75*
G02X3306I89D01*
G01*
G75*
G02X3128I-89*
G01*
X3328D02*
G75*
G02X3506I89D01*
G01*
G75*
G02X3328I-89*
G01*
X3543D02*
G75*
G02X3691I74D01*
G01*
G75*
G02X3543I-74*
G01*
X3728Y3542D02*
G75*
G02X3906I89D01*
G01*
G75*
G02X3728I-89*
G01*
X3817Y3073D02*
G75*
G02Y3211J69D01*
G01*
G75*
G02Y3073J-69*
G01*
X3904Y4424D02*
G75*
G02X3728Y4441I-87J17D01*
G01*
G75*
G02X3904Y4459I89*
G01*
G75*
G02X4117Y4496I113J-17*
G01*
G75*
G02X4331Y4441I100J-55*
G01*
G75*
G02X4286Y4351I-114*
G01*
Y4270*
X4444Y4112*
G75*
G02X4517Y4143I73J-71*
G01*
G75*
G02Y3940J-102*
G01*
G75*
G02X4442Y3973J102*
G01*
X4417*
G75*
G02X4368Y3993J69*
G01*
X4168Y4193*
G75*
G02X4148Y4242I49J49*
G01*
Y4351*
G75*
G02X4117Y4387I69J91*
G01*
G75*
G02X4085Y4351I-100J55*
G01*
Y4170*
X4444Y3812*
G75*
G02X4517Y3843I73J-71*
G01*
G75*
G02Y3640J-102*
G01*
G75*
G02X4442Y3673J102*
G01*
X4417*
G75*
G02X4368Y3693J69*
G01*
X3968Y4093*
G75*
G02X3947Y4142I49J49*
G01*
Y4351*
G75*
G02X3904Y4424I69J91*
G01*
X3928Y3542D02*
G75*
G02X4106I89D01*
G01*
G75*
G02X3928I-89*
G01*
X4065Y2375D02*
X4050D01*
Y2508*
X4183*
Y2375*
X4168*
Y2290*
X4065*
Y2375*
X4143Y3542D02*
G75*
G02X4291I74D01*
G01*
G75*
G02X4143I-74*
G01*
X4316Y2403D02*
G75*
G02Y2280J-62D01*
G01*
G75*
G02Y2403J62*
G01*
Y2618D02*
G75*
G02Y2465J-77D01*
G01*
G75*
G02Y2618J77*
G01*
Y2918D02*
G75*
G02Y2765J-77D01*
G01*
G75*
G02Y2918J77*
G01*
X4517Y4703D02*
G75*
G02Y4580J-62D01*
G01*
G75*
G02Y4703J62*
G01*
X4717Y3330D02*
G75*
G02Y3453J62D01*
G01*
G75*
G02Y3330J-62*
G01*
X4730Y3017D02*
X4748Y3035D01*
G75*
G02X4779Y3048I31J-31*
G01*
X5037*
G75*
G02X5033Y3124I94J44*
G01*
G75*
G02X5230Y3059I99J-32*
G01*
G75*
G02X5120Y2988I-99J32*
G01*
X5160Y2948*
X5411*
X5508Y3045*
G75*
G02X5602Y3195I93J46*
G01*
G75*
G02Y2988J-104*
G01*
G75*
G02X5578Y2990I0J104*
G01*
X5460Y2873*
G75*
G02X5429Y2860I-31J31*
G01*
X5423*
G75*
G02X5367Y2658I-56J-94*
G01*
G75*
G02X5310Y2860J109*
G01*
X5142*
G75*
G02X5110Y2873I0J44*
G01*
X5074Y2910*
G75*
G02X5039Y2819I-87J-18*
G01*
G75*
G02X4930Y2960I-52J72*
G01*
X4797*
X4792Y2955*
G75*
G02X4717Y2865I-75J-13*
G01*
G75*
G02Y3018J77*
G01*
G75*
G02X4730Y3017I0J-77*
G01*
X4768Y4190D02*
X4665D01*
Y4293*
X4768*
Y4190*
X4779Y2398D02*
G75*
G02X4717Y2365I-63J44D01*
G01*
G75*
G02Y2518J77*
G01*
G75*
G02X4779Y2486J-77*
G01*
X5037*
G75*
G02X5132Y2546I94J-44*
G01*
G75*
G02Y2338J-104*
G01*
G75*
G02X5037Y2398J104*
G01*
X4779*
X4868Y2634D02*
G75*
G02X4816Y2623I-51J107D01*
G01*
G75*
G02Y2861J119*
G01*
G75*
G02X4935Y2749J-119*
G01*
G75*
G02X4987Y2761I51J-107*
G01*
G75*
G02Y2523J-119*
G01*
G75*
G02X4868Y2634J119*
G01*
X5048Y4116D02*
Y4178D01*
G75*
G02Y4305I69J64*
G01*
Y4350*
X5025*
Y4533*
X5208*
Y4350*
X5186*
Y4305*
G75*
G02Y4178I-69J-64*
G01*
Y4116*
G75*
G02X5191Y4111I-69J-74*
G01*
X5242*
G75*
G02X5316Y4143I74J-69*
G01*
G75*
G02Y3940J-102*
G01*
G75*
G02X5242Y3973J102*
G01*
X5191*
G75*
G02X5117Y3940I-74J69*
G01*
G75*
G02X5048Y4116J102*
G01*
X5221Y3275D02*
G75*
G02X5217Y3275I-4J66D01*
G01*
G75*
G02Y3408J67*
G01*
G75*
G02X5283Y3337J-67*
G01*
X5351Y3269*
G75*
G02X5367Y3270I16J-103*
G01*
G75*
G02Y3063J-104*
G01*
G75*
G02X5277Y3219J104*
G01*
X5221Y3275*
X5367Y2263D02*
G75*
G02Y2471J104D01*
G01*
G75*
G02Y2263J-104*
G01*
X5617Y3290D02*
G75*
G02Y3393J52D01*
G01*
G75*
G02Y3290J-52*
G01*
X5663Y2357D02*
G75*
G02X5540Y2526I-61J84D01*
G01*
G75*
G02X5663Y2357I61J-84*
G01*
X5678Y2783D02*
G75*
G02X5747Y3021I69J109D01*
G01*
G75*
G02X5872Y2863J-129*
G01*
G75*
G02X5917Y2870I44J-121*
G01*
G75*
G02X6008Y2650I0J-129*
G01*
G75*
G02X6008Y2642I-91J-9*
G01*
G75*
G02X5856Y2573I-92*
G01*
X5804*
G75*
G02X5755Y2593J69*
G01*
X5698Y2650*
G75*
G02X5678Y2699I49J49*
G01*
Y2783*
X1038Y4667D02*
G36*
Y4042D01*
X1265*
G75*
G02X1316Y4093I52*
G01*
G75*
G02X1368Y4042J-52*
G01*
X1370*
Y4183*
X1247*
G75*
G02X1217Y4175I-31J59*
G01*
G75*
G02Y4308J67*
G01*
G75*
G02X1247Y4301J-67*
G01*
X1370*
Y4642*
G75*
G02X1376Y4667I59J0*
G01*
X1313*
G75*
G02X1095I-109*
G01*
X1038*
G37*
X1095D02*
G36*
G75*
G02X1313I109D01*
G01*
X1376*
G75*
G02X1387Y4683I53J-25*
G01*
X1512Y4808*
G75*
G02X1554Y4826I42J-42*
G01*
X2092*
G75*
G02X2133Y4808I0J-59*
G01*
X2275Y4667*
X4460*
G75*
G02X4517Y4703I56J-25*
G01*
G75*
G02X4573Y4667J-62*
G01*
X4844*
X4868Y4690*
G75*
G02X4917Y4711I49J-49*
G01*
X5042*
G75*
G02X5191I74J-69*
G01*
X5242*
G75*
G02X5316Y4743I74J-69*
G01*
G75*
G02X5386Y4567J-102*
G01*
Y4470*
X5399Y4457*
G75*
G02X5502Y4560I118J-16*
G01*
X5650Y4708*
G75*
G02X5717Y4736I66J-66*
G01*
X5832*
G75*
G02X6001I85J-94*
G01*
X6032*
G75*
G02X6211Y4557I85J-94*
G01*
Y4544*
G75*
G02X6394Y4567I106J-103*
G01*
Y4579*
G75*
G02X6430Y4666I123*
G01*
X6492Y4728*
G75*
G02X6579Y4764I87J-87*
G01*
X6621*
G75*
G02X6654Y4784I95J-123*
G01*
Y4835*
X4358*
G75*
G02X4360Y4828I-12J-7*
G01*
Y4700*
G75*
G02X4346Y4686I-14*
G01*
X2338*
G75*
G02X2324Y4700J14*
G01*
Y4828*
G75*
G02X2325Y4835I14*
G01*
X1038*
Y4667*
X1095*
G37*
X2275D02*
G36*
X2326Y4616D01*
X2391*
Y4542*
X2455*
G75*
G02X2517Y4603I62*
G01*
G75*
G02X2578Y4542J-62*
G01*
X3962*
G75*
G02X4117Y4496I55J-100*
G01*
G75*
G02X4271Y4542I100J-55*
G01*
X4719*
X4844Y4667*
X4573*
G75*
G02X4517Y4580I-56J-25*
G01*
G75*
G02X4460Y4667J62*
G01*
X2275*
G37*
X1038Y4042D02*
G36*
Y3191D01*
G75*
G02X1050Y3208I54J-25*
G01*
X1127Y3285*
G75*
G02X1170Y3390I102J19*
G01*
Y3618*
G75*
G02X1248Y3806I59J86*
G01*
X1325Y3883*
G75*
G02X1367Y3901I42J-42*
G01*
X1370*
Y4042*
X1368*
G75*
G02X1316Y3990I-52*
G01*
G75*
G02X1265Y4042J52*
G01*
X1038*
G37*
X2688D02*
G36*
Y3879D01*
G75*
G02X2671Y3837I-59J0*
G01*
X2633Y3800*
G75*
G02X2592Y3783I-42J42*
G01*
X2561*
G75*
G02X2455Y3882I-45J59*
G01*
X2376*
Y3553*
G75*
G02X2393Y3504I-59J-49*
G01*
X2640*
G75*
G02X2709Y3580I77*
G01*
X2850Y3721*
G75*
G02X2892Y3738I42J-42*
G01*
X3479*
G75*
G02X3521Y3721I0J-59*
G01*
X3611Y3630*
G75*
G02X3706Y3542I5J-89*
G01*
G75*
G02X3697Y3504I-89J0*
G01*
X3736*
G75*
G02X3728Y3542I81J38*
G01*
G75*
G02X3906I89*
G01*
G75*
G02X3897Y3504I-89J0*
G01*
X3936*
G75*
G02X3928Y3542I81J38*
G01*
G75*
G02X4106I89*
G01*
G75*
G02X4097Y3504I-89J0*
G01*
X4153*
G75*
G02X4143Y3542I64J38*
G01*
G75*
G02X4291I74*
G01*
G75*
G02X4280Y3504I-74*
G01*
X4931*
X4980Y3553*
G75*
G02X5029Y3573I49J-49*
G01*
X5452*
G75*
G02X5428Y3673I64J69*
G01*
X5191*
G75*
G02X5117Y3640I-74J69*
G01*
G75*
G02Y3843J102*
G01*
G75*
G02X5191Y3811J-102*
G01*
X5425*
Y3933*
X5608*
Y3750*
X5587*
G75*
G02X5587Y3742I-70J-8*
G01*
G75*
G02X5586Y3726I-71*
G01*
Y3705*
G75*
G02X5581Y3573I-69J-64*
G01*
X5801*
G75*
G02X5820Y3575I15J-69*
G01*
X5825*
Y3733*
X6005*
G75*
G02X5964Y3815I111J109*
G01*
G75*
G02X5917Y3788I-47J27*
G01*
G75*
G02Y3895J54*
G01*
G75*
G02X5964Y3868J-54*
G01*
G75*
G02X6003Y3947I153J-27*
G01*
X6001*
G75*
G02X5790Y4042I-85J94*
G01*
X5418*
G75*
G02X5316Y3940I-102*
G01*
G75*
G02X5242Y3973J102*
G01*
X5191*
G75*
G02X5117Y3940I-74J69*
G01*
G75*
G02X5015Y4042J102*
G01*
X4618*
G75*
G02X4517Y3940I-102*
G01*
G75*
G02X4442Y3973J102*
G01*
X4417*
G75*
G02X4368Y3993J69*
G01*
X4168Y4193*
G75*
G02X4148Y4242I49J49*
G01*
Y4351*
G75*
G02X4117Y4387I69J91*
G01*
G75*
G02X4085Y4351I-100J55*
G01*
Y4170*
X4444Y3812*
G75*
G02X4517Y3843I73J-71*
G01*
G75*
G02Y3640J-102*
G01*
G75*
G02X4442Y3673J102*
G01*
X4417*
G75*
G02X4368Y3693J69*
G01*
X4019Y4042*
X3922*
Y4025*
G75*
G02X3908Y4011I-14*
G01*
X3547*
Y3888*
G75*
G02X3533Y3874I-14*
G01*
X2925*
G75*
G02X2911Y3888J14*
G01*
Y4011*
X2900*
G75*
G02X2886Y4025J14*
G01*
Y4042*
X2688*
G37*
X2886D02*
G36*
Y4153D01*
G75*
G02X2900Y4167I14*
G01*
X3908*
G75*
G02X3922Y4153J-14*
G01*
Y4042*
X4019*
X3968Y4093*
G75*
G02X3947Y4142I49J49*
G01*
Y4242*
X2376*
Y4201*
X2579*
G75*
G02X2621Y4183I0J-59*
G01*
X2671Y4133*
G75*
G02X2688Y4092I-42J-42*
G01*
Y4042*
X2886*
G37*
X5015D02*
G36*
G75*
G02X5048Y4116I102D01*
G01*
Y4178*
G75*
G02X5023Y4242I69J64*
G01*
X4768*
Y4190*
X4665*
Y4242*
X4314*
X4444Y4112*
G75*
G02X4517Y4143I73J-71*
G01*
G75*
G02X4618Y4042J-102*
G01*
X5015*
G37*
X5790D02*
G36*
G75*
G02X5823Y4126I126D01*
G01*
Y4169*
G75*
G02Y4314I94J73*
G01*
Y4325*
X5800*
Y4548*
X5755*
X5635Y4427*
G75*
G02X5565Y4333I-118J15*
G01*
X5608*
Y4150*
X5425*
Y4235*
X5419Y4242*
X5211*
G75*
G02X5186Y4178I-94*
G01*
Y4116*
G75*
G02X5191Y4111I-69J-74*
G01*
X5242*
G75*
G02X5316Y4143I74J-69*
G01*
G75*
G02X5418Y4042J-102*
G01*
X5790*
G37*
X1288Y3504D02*
G36*
Y3392D01*
X4655*
G75*
G02X4717Y3453I62*
G01*
G75*
G02X4778Y3392J-62*
G01*
X4818*
Y3491*
X4918*
X4931Y3504*
X4280*
G75*
G02X4153I-64J38*
G01*
X4097*
G75*
G02X3936I-81J38*
G01*
X3897*
G75*
G02X3736I-81J38*
G01*
X3697*
G75*
G02X3528Y3542I-81J38*
G01*
G75*
G02X3528Y3547I89J0*
G01*
X3499Y3576*
G75*
G02X3506Y3542I-82J-35*
G01*
G75*
G02X3328I-89*
G01*
G75*
G02X3375Y3620I89*
G01*
X3258*
G75*
G02X3306Y3542I-42J-79*
G01*
G75*
G02X3128I-89*
G01*
G75*
G02X3175Y3620I89*
G01*
X3058*
G75*
G02X3106Y3542I-42J-79*
G01*
G75*
G02X2928I-89*
G01*
G75*
G02X2975Y3620I89*
G01*
X2916*
X2793Y3497*
G75*
G02X2717Y3428I-76J7*
G01*
G75*
G02X2640Y3504J77*
G01*
X2393*
G75*
G02X2268Y3445I-77*
G01*
X2165*
G75*
G02X2068I-49J59*
G01*
X1865*
G75*
G02X1816Y3428I-49J59*
G01*
G75*
G02X1740Y3504J77*
G01*
X1698*
Y3435*
X1563*
Y3420*
X1395*
Y3504*
X1288*
G37*
X1395D02*
G36*
Y3588D01*
X1563*
Y3573*
X1698*
Y3504*
X1740*
G75*
G02X1816Y3581I77*
G01*
G75*
G02X1865Y3563J-77*
G01*
X2068*
G75*
G02X2165I49J-59*
G01*
X2258*
Y3799*
G75*
G02X2173Y3882I-41J42*
G01*
G75*
G02X2162Y3992I43J60*
G01*
G75*
G02X2157Y3998I55J50*
G01*
X2063*
G75*
G02X2056Y3992I-46J44*
G01*
G75*
G02X2043Y3883I-40J-50*
G01*
G75*
G02X2017Y3793I-26J-42*
G01*
G75*
G02X1990Y3883J49*
G01*
G75*
G02X1977Y3992I26J58*
G01*
G75*
G02Y4092I40J50*
G01*
G75*
G02X2041Y4201I40J50*
G01*
X2064*
G75*
G02X2072Y4291I52J41*
G01*
Y4479*
G75*
G02X2117Y4618I44J63*
G01*
G75*
G02X2160Y4479J-77*
G01*
Y4291*
G75*
G02X2169Y4201I-44J-50*
G01*
X2258*
Y4468*
X2243*
Y4532*
X2067Y4707*
X1755*
G75*
G02X1703Y4566I-39J-66*
G01*
X1661Y4523*
Y4494*
G75*
G02X1716Y4518I56J-52*
G01*
G75*
G02Y4365J-77*
G01*
G75*
G02X1661Y4389J77*
G01*
Y4291*
G75*
G02X1666Y4285I-44J-50*
G01*
G75*
G02X1766Y4286I50J-44*
G01*
X1779*
G75*
G02X1810Y4273I0J-44*
G01*
X1848Y4235*
G75*
G02X1861Y4204I-31J-31*
G01*
Y3979*
G75*
G02X1848Y3948I-44J0*
G01*
X1810Y3910*
G75*
G02X1779Y3898I-31J31*
G01*
X1763*
G75*
G02X1756Y3892I-46J44*
G01*
G75*
G02X1692Y3783I-40J-50*
G01*
X1443*
G75*
G02X1415I-14J59*
G01*
X1391*
X1331Y3723*
G75*
G02X1288Y3618I-102J-19*
G01*
Y3504*
X1395*
G37*
X1776Y3042D02*
G36*
G75*
G02X1760Y3001I-59J0D01*
G01*
G75*
G02X1790Y2952I-43J-60*
G01*
X1858Y2883*
G75*
G02X1875Y2842I-42J-42*
G01*
Y2738*
X1966*
G75*
G02X2008Y2721I0J-59*
G01*
X2058Y2671*
G75*
G02X2076Y2629I-42J-42*
G01*
Y2620*
G75*
G02X2085Y2635I41J-16*
G01*
X2123Y2673*
G75*
G02X2154Y2686I31J-31*
G01*
X2267*
G75*
G02X2372Y2606I50J-44*
G01*
X2661*
G75*
G02X2766Y2686I56J36*
G01*
X2867*
G75*
G02X2886Y2700I50J-44*
G01*
G75*
G02X2917Y2793I31J41*
G01*
G75*
G02X2947Y2700J-52*
G01*
G75*
G02X2972Y2606I-31J-59*
G01*
X3261*
G75*
G02X3273Y2692I56J36*
G01*
G75*
G02X3317Y2808I44J50*
G01*
G75*
G02X3366Y2785J-67*
G01*
X3411*
X3435Y2810*
G75*
G02X3467Y2823I31J-31*
G01*
X3492*
G75*
G02X3607Y2770I50J-44*
G01*
G75*
G02X3626I9J-66*
G01*
G75*
G02X3650Y2831I66J9*
G01*
G75*
G02X3660Y2848I42J-14*
G01*
X3750Y2937*
G75*
G02X3866Y2986I66J4*
G01*
X3911*
X3967Y3042*
X3475*
Y2972*
G75*
G02X3417Y2875I-59J-31*
G01*
G75*
G02X3358Y2972J67*
G01*
Y3075*
X3350*
Y3083*
X3181*
Y3078*
X3153*
G75*
G02X3168Y3042I-37J-36*
G01*
G75*
G02X3065I-52*
G01*
X2660*
G75*
G02X2373I-144*
G01*
X1776*
G37*
X2373D02*
G36*
G75*
G02X2413Y3142I144D01*
G01*
X1791*
G75*
G02X1760Y3082I-74*
G01*
G75*
G02X1776Y3042I-43J-40*
G01*
X2373*
G37*
X3065D02*
G36*
G75*
G02X3080Y3078I52D01*
G01*
X3053*
Y3142*
X2620*
G75*
G02X2660Y3042I-104J-100*
G01*
X3065*
G37*
X3967D02*
G36*
X3973Y3047D01*
Y3092*
G75*
G02X3950Y3142I44J50*
G01*
X3885*
G75*
G02X3817Y3073I-69*
G01*
G75*
G02X3748Y3142J69*
G01*
X3483*
Y3075*
X3475*
Y3042*
X3967*
G37*
X4378D02*
G36*
G75*
G02X4316Y2980I-62D01*
G01*
G75*
G02X4291Y3098J62*
G01*
X4066*
G75*
G02X4061Y3092I-50J44*
G01*
Y3029*
G75*
G02X4048Y2998I-44J0*
G01*
X3960Y2910*
G75*
G02X3929Y2898I-31J31*
G01*
X3866*
G75*
G02X3817Y2875I-50J44*
G01*
G75*
G02X3812Y2875I0J67*
G01*
X3779Y2842*
X4240*
G75*
G02X4316Y2918I77*
G01*
G75*
G02X4393Y2842J-77*
G01*
X4752*
G75*
G02X4816Y2861I65J-100*
G01*
G75*
G02X4881Y2842J-119*
G01*
X4913*
G75*
G02X4930Y2960I74J50*
G01*
X4797*
X4792Y2955*
G75*
G02X4717Y2865I-75J-13*
G01*
G75*
G02Y3018J77*
G01*
G75*
G02X4730Y3017I0J-77*
G01*
X4748Y3035*
G75*
G02X4756Y3042I31J-31*
G01*
X4378*
G37*
X4756D02*
G36*
G75*
G02X4779Y3048I23J-38D01*
G01*
X5037*
G75*
G02X5033Y3124I94J44*
G01*
G75*
G02X5040Y3142I99J-32*
G01*
X4556*
G75*
G02X4445Y3098I-64*
G01*
X4342*
G75*
G02X4378Y3042I-25J-56*
G01*
X4756*
G37*
X5693D02*
G36*
G75*
G02X5602Y2988I-91J50D01*
G01*
G75*
G02X5578Y2990I0J104*
G01*
X5460Y2873*
G75*
G02X5429Y2860I-31J31*
G01*
X5423*
G75*
G02X5446Y2842I-56J-94*
G01*
X5628*
G75*
G02X5747Y3021I119J50*
G01*
G75*
G02X5872Y2863J-129*
G01*
G75*
G02X5998Y2842I44J-121*
G01*
X6048*
Y2963*
X5969Y3042*
X5693*
G37*
X5969D02*
G36*
X5869Y3142D01*
X5693*
G75*
G02Y3042I-91J-50*
G01*
X5969*
G37*
X2391Y4542D02*
G36*
Y4468D01*
X2376*
Y4441*
X2928*
G75*
G02X3106I89*
G01*
X3128*
G75*
G02X3306I89*
G01*
X3328*
G75*
G02X3506I89*
G01*
X3543*
G75*
G02X3691I74*
G01*
X3728*
G75*
G02X3904Y4459I89*
G01*
G75*
G02X3962Y4542I113J-17*
G01*
X2578*
G75*
G02X2517Y4480I-62*
G01*
G75*
G02X2455Y4542J62*
G01*
X2391*
G37*
X4271D02*
G36*
G75*
G02X4331Y4441I-55J-100D01*
G01*
X4622*
G75*
G02X4713Y4535I94*
G01*
X4719Y4542*
X4271*
G37*
X2376Y4441D02*
G36*
Y4242D01*
X3947*
Y4351*
G75*
G02X3904Y4424I69J91*
G01*
G75*
G02X3728Y4441I-87J17*
G01*
X3691*
G75*
G02X3543I-74*
G01*
X3506*
G75*
G02X3328I-89*
G01*
X3306*
G75*
G02X3128I-89*
G01*
X3106*
G75*
G02X2928I-89*
G01*
X2376*
G37*
X4331D02*
G36*
G75*
G02X4286Y4351I-114D01*
G01*
Y4270*
X4314Y4242*
X4665*
Y4293*
X4768*
Y4242*
X5023*
G75*
G02X5048Y4305I94*
G01*
Y4350*
X5025*
Y4441*
X4814*
X4810Y4438*
G75*
G02X4717Y4348I-94J4*
G01*
G75*
G02X4622Y4441J94*
G01*
X4331*
G37*
X5025D02*
G36*
Y4533D01*
X5208*
Y4441*
X5248*
Y4567*
G75*
G02X5242Y4572I69J74*
G01*
X5191*
G75*
G02X5042I-74J69*
G01*
X4945*
X4814Y4441*
X5025*
G37*
X5208D02*
G36*
Y4350D01*
X5186*
Y4305*
G75*
G02X5211Y4242I-69J-64*
G01*
X5419*
X5268Y4393*
G75*
G02X5248Y4441I49J49*
G01*
X5208*
G37*
X2413Y3142D02*
G36*
G75*
G02X2620I104J-100D01*
G01*
X3053*
Y3206*
X3181*
Y3200*
X3350*
Y3208*
X3483*
Y3142*
X3748*
G75*
G02X3817Y3211I69*
G01*
G75*
G02X3885Y3142J-69*
G01*
X3950*
G75*
G02X4066Y3186I67*
G01*
X4445*
G75*
G02X4556Y3142I46J-44*
G01*
X5040*
G75*
G02X5223I91J-50*
G01*
X5266*
G75*
G02X5277Y3219I101J25*
G01*
X5221Y3275*
G75*
G02X5217Y3275I-4J66*
G01*
G75*
G02X5173Y3392J67*
G01*
X5016*
Y3293*
X4818*
Y3392*
X4778*
G75*
G02X4717Y3330I-62*
G01*
G75*
G02X4655Y3392J62*
G01*
X1288*
Y3390*
G75*
G02X1315Y3363I-59J-86*
G01*
X1454*
G75*
G02X1496Y3346I0J-59*
G01*
X1637Y3205*
G75*
G02X1647Y3200I-20J-63*
G01*
X1672*
G75*
G02X1791Y3142I45J-59*
G01*
X2413*
G37*
X5223D02*
G36*
G75*
G02X5230Y3059I-91J-50D01*
G01*
G75*
G02X5120Y2988I-99J32*
G01*
X5160Y2948*
X5411*
X5508Y3045*
G75*
G02X5510Y3142I93J46*
G01*
X5467*
G75*
G02X5367Y3063I-101J25*
G01*
G75*
G02X5266Y3142J104*
G01*
X5223*
G37*
X5510D02*
G36*
G75*
G02X5602Y3195I91J-50D01*
G01*
G75*
G02X5693Y3142J-104*
G01*
X5869*
X5868Y3143*
G75*
G02X5848Y3192I49J49*
G01*
Y3392*
X5629*
G75*
G02X5617Y3290I-12J-50*
G01*
G75*
G02X5604Y3392J52*
G01*
X5260*
G75*
G02X5283Y3337I-44J-50*
G01*
X5351Y3269*
G75*
G02X5367Y3270I16J-103*
G01*
G75*
G02X5467Y3142J-104*
G01*
X5510*
G37*
X3766Y2399D02*
G36*
Y2393D01*
X3681*
Y2378*
X3553*
Y2393*
X3481*
Y2378*
X3353*
Y2393*
X3281*
Y2378*
X3153*
Y2393*
X3081*
Y2378*
X2953*
Y2393*
X2881*
Y2378*
X2772*
G75*
G02X2760Y2292I-56J-36*
G01*
G75*
G02Y2192I-44J-50*
G01*
G75*
G02X2778Y2166I-44J-50*
G01*
X2785Y2173*
G75*
G02X2817Y2186I31J-31*
G01*
X3879*
G75*
G02X3910Y2173I0J-44*
G01*
X3997Y2086*
X4053*
Y2106*
X4061*
G75*
G02X4050Y2142I56J36*
G01*
G75*
G02X4183I67*
G01*
G75*
G02X4172Y2106I-67*
G01*
X4181*
Y2013*
X4479*
G75*
G02X4521Y1996I0J-59*
G01*
X4616Y1901*
G75*
G02X4651Y1817I-24J-59*
G01*
Y1780*
G75*
G02X4673Y1804I66J-39*
G01*
Y1929*
G75*
G02X4685Y1960I44J0*
G01*
X4898Y2173*
G75*
G02X4929Y2186I31J-31*
G01*
X5157*
G75*
G02X5217Y2323I59J56*
G01*
G75*
G02X5276Y2186J-82*
G01*
X5379*
G75*
G02X5410Y2173I0J-44*
G01*
X5526Y2056*
G75*
G02X5677Y2111I90J-15*
G01*
X5848*
Y2172*
X5677*
G75*
G02X5617Y2150I-60J69*
G01*
G75*
G02Y2333J92*
G01*
G75*
G02X5677Y2311J-92*
G01*
X5856*
G75*
G02X5910Y2333I60J-69*
G01*
X5976Y2399*
X5696*
G75*
G02X5663Y2357I-95J43*
G01*
G75*
G02X5507Y2399I-61J84*
G01*
X5465*
G75*
G02X5367Y2263I-99J-33*
G01*
G75*
G02X5268Y2399J104*
G01*
X5226*
G75*
G02X5132Y2338I-95J43*
G01*
G75*
G02X5037Y2398J104*
G01*
X4779*
G75*
G02X4717Y2365I-63J44*
G01*
G75*
G02X4653Y2399J77*
G01*
X4338*
G75*
G02X4316Y2280I-22J-58*
G01*
G75*
G02X4295Y2399J62*
G01*
X4183*
Y2375*
X4168*
Y2290*
X4065*
Y2375*
X4050*
Y2399*
X3766*
G37*
X4050D02*
G36*
Y2508D01*
X4183*
Y2399*
X4295*
G75*
G02X4316Y2403I22J-58*
G01*
G75*
G02X4338Y2399J-62*
G01*
X4653*
G75*
G02X4717Y2518I64J43*
G01*
G75*
G02X4779Y2486J-77*
G01*
X5037*
G75*
G02X5103Y2542I94J-44*
G01*
X5051*
G75*
G02X4987Y2523I-65J100*
G01*
G75*
G02X4922Y2542J119*
G01*
X4393*
G75*
G02X4316Y2465I-77*
G01*
G75*
G02X4240Y2542J77*
G01*
X3781*
Y2478*
X3766*
Y2399*
X4050*
G37*
X5268D02*
G36*
G75*
G02X5367Y2471I99J-33D01*
G01*
G75*
G02X5465Y2399J-104*
G01*
X5507*
G75*
G02X5540Y2526I95J43*
G01*
G75*
G02X5573Y2542I61J-84*
G01*
X5160*
G75*
G02X5226Y2399I-29J-100*
G01*
X5268*
G37*
X5976D02*
G36*
X6048Y2470D01*
Y2542*
X5630*
G75*
G02X5696Y2399I-29J-100*
G01*
X5976*
G37*
X4240Y2542D02*
G36*
G75*
G02X4316Y2618I77D01*
G01*
G75*
G02X4393Y2542J-77*
G01*
X4922*
G75*
G02X4868Y2634I65J100*
G01*
G75*
G02X4816Y2623I-51J107*
G01*
G75*
G02X4752Y2842J119*
G01*
X4393*
G75*
G02X4316Y2765I-77*
G01*
G75*
G02X4240Y2842J77*
G01*
X3779*
X3749Y2812*
G75*
G02X3750Y2748I-58J-33*
G01*
X3823*
X3848Y2773*
G75*
G02X3879Y2785I31J-31*
G01*
X3967*
G75*
G02X4083Y2742I50J-44*
G01*
G75*
G02X3967Y2698I-67*
G01*
X3897*
X3873Y2673*
G75*
G02X3842Y2660I-31J31*
G01*
X3666*
G75*
G02X3612Y2638I-50J44*
G01*
X3585Y2610*
G75*
G02X3579Y2606I-31J31*
G01*
X3781*
Y2542*
X4240*
G37*
X5103D02*
G36*
G75*
G02X5132Y2546I29J-100D01*
G01*
G75*
G02X5160Y2542I0J-104*
G01*
X5573*
G75*
G02X5630I29J-100*
G01*
X6048*
Y2581*
G75*
G02Y2702I69J60*
G01*
Y2842*
X5998*
G75*
G02X6008Y2650I-81J-100*
G01*
G75*
G02X6008Y2642I-91J-9*
G01*
G75*
G02X5856Y2573I-92*
G01*
X5804*
G75*
G02X5755Y2593J69*
G01*
X5698Y2650*
G75*
G02X5678Y2699I49J49*
G01*
Y2783*
G75*
G02X5628Y2842I69J109*
G01*
X5446*
G75*
G02X5367Y2658I-79J-75*
G01*
G75*
G02X5310Y2860J109*
G01*
X5142*
G75*
G02X5110Y2873I0J44*
G01*
X5074Y2910*
G75*
G02X5039Y2819I-87J-18*
G01*
G75*
G02X4913Y2842I-52J72*
G01*
X4881*
G75*
G02X4935Y2749I-65J-100*
G01*
G75*
G02X4987Y2761I51J-107*
G01*
G75*
G02X5051Y2542J-119*
G01*
X5103*
G37*
X5173Y3392D02*
G36*
G75*
G02X5217Y3408I44J-50D01*
G01*
G75*
G02X5260Y3392J-67*
G01*
X5604*
G75*
G02X5617Y3393I12J-50*
G01*
G75*
G02X5629Y3392J-51*
G01*
X5848*
Y3433*
X5820*
G75*
G02X5801Y3435I-3J71*
G01*
X5058*
X5016Y3393*
Y3392*
X5173*
G37*
D02*
D27*
X1290Y4042D02*
X1263D01*
X1293Y1441D02*
X1266D01*
X1293Y2442D02*
X1266D01*
X1316Y1466D02*
Y1493D01*
Y2418D02*
Y2391D01*
Y4015D02*
Y3988D01*
Y4068D02*
Y4095D01*
X1390Y2942D02*
X1363D01*
X1390Y3142D02*
X1363D01*
X1417Y2166D02*
Y2192D01*
Y2915D02*
Y2888D01*
Y2968D02*
Y2995D01*
Y3115D02*
Y3088D01*
Y3168D02*
Y3195D01*
X1440Y2142D02*
X1468D01*
X1443Y2942D02*
X1470D01*
X1443Y3142D02*
X1470D01*
X1516Y1466D02*
Y1493D01*
Y2418D02*
Y2391D01*
X1629Y3460D02*
Y3433D01*
Y3548D02*
Y3575D01*
X1673Y3504D02*
X1700D01*
X1683Y3042D02*
X1656D01*
X1716Y1466D02*
Y1493D01*
Y2418D02*
Y2391D01*
X1750Y3042D02*
X1778D01*
X1890Y1142D02*
X1863D01*
X1916Y1115D02*
Y1088D01*
Y1168D02*
Y1195D01*
Y1466D02*
Y1493D01*
Y2418D02*
Y2391D01*
X1943Y1142D02*
X1970D01*
X1993Y3842D02*
X1966D01*
X2017Y3818D02*
Y3791D01*
X2041Y3842D02*
X2067D01*
X2117Y1466D02*
Y1493D01*
Y2418D02*
Y2391D01*
X2183Y3842D02*
X2156D01*
X2217Y1605D02*
Y1578D01*
Y3808D02*
Y3781D01*
X2253Y1641D02*
X2280D01*
X2290Y1142D02*
X2263D01*
X2317Y1115D02*
Y1088D01*
Y1466D02*
Y1493D01*
X2390Y1641D02*
X2363D01*
X2398Y3042D02*
X2371D01*
X2400Y1725D02*
X2380Y1705D01*
X2417Y1615D02*
Y1588D01*
X2433Y1725D02*
X2453Y1705D01*
X2443Y1641D02*
X2470D01*
X2480Y4542D02*
X2453D01*
X2517Y1466D02*
Y1493D01*
Y2418D02*
Y2391D01*
Y2923D02*
Y2896D01*
Y3160D02*
Y3188D01*
Y4505D02*
Y4478D01*
Y4578D02*
Y4605D01*
X2553Y4542D02*
X2580D01*
X2617Y1766D02*
Y1793D01*
X2636Y3042D02*
X2663D01*
X2640Y1741D02*
X2668D01*
X2717Y1466D02*
Y1493D01*
X2890Y2742D02*
X2863D01*
X2917Y1466D02*
Y1493D01*
Y2418D02*
Y2391D01*
Y2768D02*
Y2795D01*
X2943Y2742D02*
X2970D01*
X3000Y1758D02*
X2980Y1778D01*
X3033Y1758D02*
X3053Y1778D01*
X3090Y3042D02*
X3063D01*
X3117Y1466D02*
Y1493D01*
Y2418D02*
Y2391D01*
Y3015D02*
Y2988D01*
X3143Y3042D02*
X3170D01*
X3217Y1718D02*
Y1690D01*
Y1766D02*
Y1793D01*
X3317Y1466D02*
Y1493D01*
Y1718D02*
Y1690D01*
Y1766D02*
Y1793D01*
Y2418D02*
Y2391D01*
X3517Y1466D02*
Y1493D01*
Y2418D02*
Y2391D01*
X3568Y4441D02*
X3541D01*
X3617Y4393D02*
Y4366D01*
Y4491D02*
Y4518D01*
X3666Y4441D02*
X3693D01*
X3717Y1466D02*
Y1493D01*
Y2418D02*
Y2391D01*
X3741Y1441D02*
X3768D01*
X3741Y2442D02*
X3768D01*
X4090Y1142D02*
X4063D01*
X4090Y2342D02*
X4063D01*
X4117Y1115D02*
Y1088D01*
Y2315D02*
Y2288D01*
X4143Y1142D02*
X4170D01*
X4143Y1841D02*
X4170D01*
X4143Y2342D02*
X4170D01*
X4168Y3542D02*
X4141D01*
X4217Y3493D02*
Y3466D01*
Y3591D02*
Y3618D01*
X4266Y3542D02*
X4293D01*
X4280Y1142D02*
X4253D01*
X4280Y1841D02*
X4253D01*
X4280Y2342D02*
X4253D01*
X4280Y3042D02*
X4253D01*
X4316Y1105D02*
Y1078D01*
Y1178D02*
Y1205D01*
Y1805D02*
Y1778D01*
Y2305D02*
Y2278D01*
Y2378D02*
Y2405D01*
Y3005D02*
Y2978D01*
X4353Y1142D02*
X4380D01*
X4353Y1841D02*
X4380D01*
X4353Y2342D02*
X4380D01*
X4353Y3042D02*
X4380D01*
X4480Y4642D02*
X4453D01*
X4517Y4605D02*
Y4578D01*
Y4678D02*
Y4705D01*
X4553Y4642D02*
X4580D01*
X4680Y3392D02*
X4653D01*
X4690Y4242D02*
X4663D01*
X4717Y3355D02*
Y3328D01*
Y3428D02*
Y3455D01*
Y4215D02*
Y4188D01*
Y4268D02*
Y4295D01*
X4743Y4242D02*
X4770D01*
X4753Y3392D02*
X4780D01*
X4923Y1641D02*
X4896D01*
X4923Y2892D02*
X4896D01*
X4987Y1578D02*
Y1550D01*
Y1706D02*
Y1733D01*
Y2828D02*
Y2801D01*
X5051Y1641D02*
X5078D01*
X5051Y2892D02*
X5078D01*
X5590Y3342D02*
X5563D01*
X5617Y3315D02*
Y3288D01*
Y3368D02*
Y3395D01*
X5643Y3342D02*
X5670D01*
X5888Y3842D02*
X5861D01*
X5917Y3813D02*
Y3785D01*
Y3870D02*
Y3898D01*
X6080Y1841D02*
X6053D01*
X6117Y1805D02*
Y1778D01*
X6190Y1142D02*
X6163D01*
X6217Y1115D02*
Y1088D01*
Y1168D02*
Y1195D01*
X6316Y1115D02*
Y1088D01*
Y1168D02*
Y1195D01*
X6343Y1142D02*
X6370D01*
D02*
D73*
X2517Y3042D03*
D02*
D74*
X1716Y4441D03*
Y4642D03*
X1816Y1741D03*
Y3504D03*
X2117D03*
Y4542D03*
X2217Y1641D03*
Y1841D03*
X2317Y3504D03*
X2517Y4542D03*
X2717Y3504D03*
X4316Y1142D03*
Y1341D03*
Y1641D03*
Y1841D03*
Y2342D03*
Y2542D03*
Y2842D03*
Y3042D03*
X4517Y3742D03*
Y4042D03*
Y4642D03*
X4717Y1242D03*
Y1741D03*
Y2442D03*
Y2942D03*
Y3392D03*
X5117Y3742D03*
Y4042D03*
Y4642D03*
X5316Y4042D03*
Y4642D03*
X5917Y4042D03*
Y4642D03*
X6117Y1841D03*
Y3242D03*
Y3842D03*
Y4042D03*
Y4642D03*
X6316Y1441D03*
Y1641D03*
Y2642D03*
Y2842D03*
Y3442D03*
Y3642D03*
X6716Y1542D03*
Y1841D03*
Y2742D03*
Y3542D03*
Y4042D03*
Y4642D03*
X7016Y1841D03*
Y2142D03*
Y2742D03*
D02*
D75*
X3017Y3542D03*
Y4441D03*
X3217Y3542D03*
Y4441D03*
X3417Y3542D03*
Y4441D03*
X3617Y3542D03*
Y4441D03*
X3817Y3542D03*
Y4441D03*
X4017Y3542D03*
Y4441D03*
X4217Y3542D03*
Y4441D03*
D02*
D76*
X1204Y1117D03*
Y4667D03*
X2017Y1741D03*
X5367Y1516D03*
Y2767D03*
X7117Y1117D03*
Y4667D03*
D02*
D78*
X1229Y3304D03*
Y3704D03*
X4816Y1492D03*
Y2742D03*
X4987Y1391D03*
Y1641D03*
Y2642D03*
Y2892D03*
X5132Y1192D03*
Y1841D03*
Y2442D03*
Y3092D03*
X5367Y1117D03*
Y1916D03*
Y2367D03*
Y3167D03*
X5602Y1192D03*
Y1841D03*
Y2442D03*
Y3092D03*
X5747Y1641D03*
Y2892D03*
X5917Y1492D03*
Y2742D03*
X7066Y1542D03*
Y2942D03*
Y3142D03*
Y3354D03*
Y3542D03*
Y3742D03*
D02*
D79*
X1479Y3504D03*
X1629D03*
D02*
D80*
X1716Y2942D03*
Y3042D03*
Y3142D03*
X2217Y3842D03*
Y3942D03*
Y4042D03*
X2517Y3842D03*
Y3942D03*
Y4042D03*
D02*
D81*
X1217Y4242D03*
X1316Y4042D03*
X1417Y2942D03*
Y3142D03*
X1516Y4042D03*
X1616Y2942D03*
Y3142D03*
Y4242D03*
X1716D03*
X1916Y1142D03*
X2117D03*
Y4242D03*
X2317Y1142D03*
Y2142D03*
Y2242D03*
Y2342D03*
Y2642D03*
X2417Y1641D03*
X2617Y1142D03*
Y1542D03*
Y1641D03*
X2717D03*
Y2041D03*
Y2142D03*
Y2242D03*
Y2342D03*
Y2642D03*
X2917D03*
Y2742D03*
X3017Y1542D03*
X3117Y3042D03*
X3317Y1142D03*
Y2642D03*
Y2742D03*
X3417Y2942D03*
X3542Y2779D03*
X3617Y2704D03*
X3692Y2779D03*
X3717Y1142D03*
X3817Y2942D03*
X4017Y1492D03*
Y2742D03*
Y3142D03*
X4117Y1841D03*
Y2142D03*
X4417Y1492D03*
X5217Y2041D03*
Y2242D03*
Y3342D03*
X5617Y2041D03*
Y2242D03*
Y3342D03*
X5816Y1142D03*
X5917Y1641D03*
Y2041D03*
Y2242D03*
Y2642D03*
X6117Y2242D03*
Y2642D03*
X6217Y1142D03*
X6316D03*
Y1991D03*
Y2142D03*
Y2292D03*
Y2442D03*
Y3042D03*
Y3242D03*
X6716Y1142D03*
Y1991D03*
Y2142D03*
Y2292D03*
Y2442D03*
Y3042D03*
Y3242D03*
X6816Y3142D03*
Y3542D03*
D02*
D82*
X2317Y4542D03*
X4917Y3392D03*
D02*
D83*
X1716Y3842D03*
Y3942D03*
Y4042D03*
Y4142D03*
X2017Y3842D03*
Y3942D03*
Y4042D03*
Y4142D03*
X2317Y1741D03*
Y2041D03*
X2417Y1741D03*
Y2041D03*
X2517Y1741D03*
Y2041D03*
X2617Y1741D03*
Y2041D03*
X2817Y1741D03*
Y2041D03*
X2917Y1741D03*
Y2041D03*
X3017Y1741D03*
Y2041D03*
X3117Y1741D03*
Y2041D03*
X3217Y1741D03*
Y2041D03*
X3317Y1741D03*
Y2041D03*
X3417Y1741D03*
Y2041D03*
X3517Y1741D03*
Y2041D03*
X3617Y1741D03*
Y2041D03*
X3717Y1741D03*
Y2041D03*
X3942Y1816D03*
X4492Y3142D03*
X4592Y1641D03*
Y1741D03*
Y1841D03*
X4617Y1042D03*
D02*
D84*
X2417Y1142D03*
X2717D03*
D02*
D85*
X3417Y3142D03*
X4117Y1142D03*
Y1242D03*
Y1341D03*
Y2342D03*
Y2442D03*
X4717Y4242D03*
X5117Y4441D03*
X5517Y3842D03*
Y4242D03*
X5917Y3642D03*
Y4441D03*
X6316Y4242D03*
X6716Y4441D03*
X6917Y3142D03*
D02*
D86*
X3117D03*
X4117Y1741D03*
Y2041D03*
D02*
D87*
X1316Y1341D03*
Y1441D03*
Y1741D03*
Y1841D03*
Y1941D03*
Y2041D03*
Y2142D03*
Y2442D03*
Y2542D03*
X1417Y1341D03*
Y1441D03*
Y1741D03*
Y1841D03*
Y1941D03*
Y2041D03*
Y2142D03*
Y2442D03*
Y2542D03*
X1516Y1341D03*
Y1441D03*
Y2442D03*
Y2542D03*
X1616Y1341D03*
Y1441D03*
Y2442D03*
Y2542D03*
X1716Y1341D03*
Y1441D03*
Y2442D03*
Y2542D03*
X1816Y1341D03*
Y1441D03*
Y2442D03*
Y2542D03*
X1916Y1341D03*
Y1441D03*
Y2442D03*
Y2542D03*
X2017Y1341D03*
Y1441D03*
Y2442D03*
Y2542D03*
X2117Y1341D03*
Y1441D03*
Y2442D03*
Y2542D03*
X2217Y1341D03*
Y1441D03*
Y2442D03*
Y2542D03*
X2317Y1341D03*
Y1441D03*
Y2442D03*
Y2542D03*
X2417Y1341D03*
Y1441D03*
Y2442D03*
Y2542D03*
X2517Y1341D03*
Y1441D03*
Y2442D03*
Y2542D03*
X2617Y1341D03*
Y1441D03*
Y2442D03*
Y2542D03*
X2717Y1341D03*
Y1441D03*
Y2442D03*
Y2542D03*
X2817Y1341D03*
Y1441D03*
Y2442D03*
Y2542D03*
X2917Y1341D03*
Y1441D03*
Y2442D03*
Y2542D03*
X3017Y1341D03*
Y1441D03*
Y2442D03*
Y2542D03*
X3117Y1341D03*
Y1441D03*
Y2442D03*
Y2542D03*
X3217Y1341D03*
Y1441D03*
Y2442D03*
Y2542D03*
X3317Y1341D03*
Y1441D03*
Y2442D03*
Y2542D03*
X3417Y1341D03*
Y1441D03*
Y2442D03*
Y2542D03*
X3517Y1341D03*
Y1441D03*
Y2442D03*
Y2542D03*
X3617Y1341D03*
Y1441D03*
Y2442D03*
Y2542D03*
X3717Y1341D03*
Y1441D03*
Y2442D03*
Y2542D03*
D02*
D88*
X1217Y4242D02*
X1429D01*
X1229Y3304D02*
X1454D01*
X1616Y3142*
X1229Y3704D02*
Y3304D01*
X1092Y3167*
Y1729*
X1192Y1629*
X1516*
X1841Y1954*
X2517*
X1229Y3704D02*
X1367Y3842D01*
X1429*
X1316Y2142D02*
X1242D01*
X1192Y2192*
Y2617*
X1254Y2679*
X1417*
Y2142D02*
Y2267D01*
X1516Y2367*
Y2442*
X1417Y2542D02*
Y2679D01*
X1616*
X1417Y2942D02*
Y3042D01*
X1979*
X1417Y3142D02*
Y3042D01*
X1429Y4242D02*
Y3842D01*
X1616Y2542D02*
Y2679D01*
X1816*
X1616Y2942D02*
Y2679D01*
Y2942D02*
X1716D01*
X1616Y3142D02*
X1716D01*
Y3842D02*
X1429D01*
X1816Y2542D02*
Y2679D01*
Y2842*
X1716Y2942*
X1979Y3042D02*
X2917D01*
X2017Y2542D02*
Y2629D01*
X1966Y2679*
X1816*
X2017Y3842D02*
X2129D01*
X2017Y4142D02*
X2317D01*
X2117Y3504D02*
X2317D01*
X2117D02*
X1816D01*
X2129Y3842D02*
X2217D01*
Y1242D02*
X2117Y1142D01*
X2217Y1341D02*
Y1242D01*
Y1641D02*
X2329D01*
X2217Y3942D02*
X2317D01*
Y1441D02*
Y1629D01*
X2329Y1641*
X2317Y3504D02*
Y3942D01*
X2517*
X2317Y4142D02*
X2579D01*
X2629Y4092*
Y3879*
X2592Y3842*
X2517*
X2317Y4142D02*
Y4542D01*
X2092Y4767*
X1554*
X1429Y4642*
Y4242*
X2329Y1641D02*
X2417D01*
Y1142D02*
Y1242D01*
X2217*
X2417Y1341D02*
Y1242D01*
X2517Y1441D02*
Y1641D01*
Y1954D02*
X3017D01*
X2517Y2041D02*
Y1954D01*
X2617Y1242D02*
X2417D01*
X2617Y1341D02*
Y1242D01*
X2717Y3504D02*
X2892Y3679D01*
X3479*
X3617Y3542*
X2817Y1242D02*
X2617D01*
X2817Y1341D02*
Y1242D01*
X2917Y3042D02*
Y2742D01*
X3017Y1242D02*
X2817D01*
X3017Y1341D02*
Y1242D01*
Y1954D02*
Y2041D01*
X3117Y3042D02*
X2917D01*
X3117Y3142D02*
X3417D01*
X3217Y1242D02*
X3017D01*
X3217Y1341D02*
Y1242D01*
X3417D02*
X3217D01*
X3417Y1341D02*
Y1242D01*
Y2942D02*
Y3142D01*
X3617Y1242D02*
X3417D01*
X3617Y1341D02*
Y1242D01*
X4017Y1341D02*
X3917Y1242D01*
X3617*
X4017Y1492D02*
Y1341D01*
X4029Y1954D02*
X3017D01*
X4117Y1341D02*
X4017D01*
X4117Y1741D02*
X4066D01*
X4029Y1779*
Y1954*
X4592Y1641D02*
Y1741D01*
Y1841*
X4479Y1954*
X4029*
X5132Y1841D02*
X4992D01*
X4792Y1641*
X4592*
D02*
D89*
X1629Y3504D02*
Y3629D01*
X1691Y3692*
X2067*
X2117Y3742*
Y3829*
X2129Y3842*
X1629Y3504D02*
Y3367D01*
X1679Y3317*
X1916*
X1966Y3267*
Y3054*
X1979Y3042*
X2517Y1641D02*
X2417D01*
X2617Y1741D02*
X2517Y1641D01*
X2917Y2442D02*
Y2304D01*
X3117*
X3017Y1741D02*
Y1804D01*
X3042Y1829*
X3192*
X3217Y1804*
Y1741*
X3117Y1441D02*
Y1529D01*
X3154Y1566*
X3317*
X3117Y2304D02*
X3317D01*
X3117Y2442D02*
Y2304D01*
X3217Y1741D02*
X3317D01*
Y1441D02*
Y1566D01*
X3517*
X3317Y2304D02*
X3517D01*
X3317Y2442D02*
Y2304D01*
X3517Y1441D02*
Y1566D01*
X3679*
X3717Y1529*
Y1441*
X3517Y2304D02*
X3717D01*
Y2442*
X3517D02*
Y2304D01*
X4117Y1142D02*
X4316D01*
X4117Y1841D02*
X4316D01*
Y2342D02*
X4117D01*
X4517Y4642D02*
X4429D01*
X4404Y4667*
X2942*
X2917Y4642*
X2517*
Y4542*
X4987Y1391D02*
Y1404D01*
X4904*
X4816Y1492*
X5917Y2642D02*
Y2742D01*
D02*
D90*
X4417Y1492D02*
Y1441D01*
X4316Y1341*
D02*
D91*
X1516Y4042D02*
X1716D01*
X1616Y4242D02*
Y4042D01*
X1516*
X1716Y4242D02*
X1779D01*
X1816Y4204*
Y3979*
X1779Y3942*
X1716*
Y4642D02*
X1616Y4542D01*
Y4242*
X2117Y4542D02*
Y4242D01*
X2217Y4042D02*
X2017D01*
X2317Y2642D02*
X2154D01*
X2117Y2604*
Y2542*
X2517Y1741D02*
X2454Y1804D01*
X2292*
X2229Y1741*
X2192*
X2067Y1616*
X1941*
X1816Y1741*
X2517Y4042D02*
X2217D01*
X2617Y2041D02*
X2717D01*
X2817Y2142*
X3879*
X3979Y2041*
X4117*
X2817Y1741D02*
Y1816D01*
X2892Y1891*
X3867*
X3942Y1816*
X2917Y2642D02*
X2717D01*
X3542Y2779D02*
X3467D01*
X3429Y2742*
X3317*
X3617Y2704D02*
X3842D01*
X3879Y2742*
X4017*
X3617Y2704D02*
X3554Y2642D01*
X3317*
X3717Y1142D02*
X3942D01*
X4042Y1242*
X4117*
X3817Y2942D02*
X3692Y2817D01*
Y2779*
X4017Y3142D02*
Y3029D01*
X3929Y2942*
X3817*
X4217Y4441D02*
Y4242D01*
X4417Y4042*
X4517*
X4316Y1641D02*
X2954D01*
X2917Y1679*
Y1741*
X4492Y3142D02*
X4017D01*
X4517Y3742D02*
X4417D01*
X4017Y4142*
Y4441*
X4617Y1042D02*
X4679Y979D01*
X6766*
X6879Y1092*
Y1704*
X7016Y1841*
X4717Y1242D02*
X4829D01*
X4879Y1192*
X5132*
X4717Y2442D02*
X5132D01*
X4816Y2742D02*
Y2754D01*
X4842*
X4954Y2642*
X4987*
X5117Y3742D02*
X5517D01*
X5117Y4441D02*
Y4042D01*
Y4642D02*
X5316D01*
X5117D02*
X4917D01*
X4717Y4441*
X5316Y4042D02*
X5117D01*
X5367Y1117D02*
Y1242D01*
X5467Y1341*
X5542*
X5367Y1916D02*
Y1779D01*
X5542Y1604*
Y1341*
X5367Y3167D02*
Y3192D01*
X5217Y3342*
X5517Y3642D02*
Y3742D01*
Y3642D02*
X5529Y3654D01*
X5517Y3742D02*
Y3842D01*
Y4242D02*
X5316Y4441D01*
Y4642*
X5517Y4441D02*
X5717Y4642D01*
X5917*
X5542Y1341D02*
X5742D01*
X5816Y1267*
Y1142*
X5602Y1841D02*
X5580Y1828D01*
Y1853*
X5504Y1929*
Y2017*
X5379Y2142*
X4929*
X4717Y1929*
Y1741*
X5602Y3092D02*
X5579Y3048D01*
X5573*
X5429Y2904*
X5142*
X5042Y3004*
X4779*
X4717Y2942*
X5617Y2041D02*
X5917D01*
X5617Y2242D02*
X5917D01*
X5747Y1641D02*
X5917D01*
X5747Y2892D02*
Y2699D01*
X5804Y2642*
X5917*
X5816Y3504D02*
X5029D01*
X4917Y3392*
X5917Y1492D02*
Y1641D01*
Y2242D02*
X6117Y2442D01*
Y2642*
X5917Y2242D02*
Y2041D01*
Y2742D02*
Y2642D01*
Y3642D02*
Y3504D01*
X5816*
X5917Y4042D02*
Y4242D01*
Y4441D02*
Y4242D01*
X6117Y2242D02*
Y2004D01*
X6316Y1804*
Y1641*
X6117Y2642D02*
Y2992D01*
X5917Y3192*
Y3504*
X5816*
X6117Y3242D02*
Y3442D01*
X6217Y3542*
X6417*
X6716Y3242*
Y3042*
X6117Y3842D02*
X6316Y3642D01*
X6117Y4042D02*
X5917D01*
X6117Y4642D02*
X5917D01*
X6316Y1441D02*
X6417D01*
X6716Y1142*
X6316Y1991D02*
Y2142D01*
Y2292D02*
Y2442D01*
Y2642D02*
X6516D01*
X6716Y2442*
X6316Y2842D02*
Y3042D01*
Y3442D02*
Y3242D01*
Y4242D02*
X6117Y4441D01*
Y4642*
X6516Y3642D02*
X6316D01*
X6516Y3842D02*
Y4441D01*
Y3842D02*
Y3642D01*
Y4441D02*
X6316D01*
X6716Y1841D02*
Y1542D01*
Y2142D02*
Y2292D01*
Y2742D02*
X6917Y2942D01*
X7066*
X6716Y3042D02*
X6966D01*
X7066Y3142*
X6716Y3842D02*
X6966D01*
X7066Y3742*
X6716Y4042D02*
Y4242D01*
Y4441*
Y4642D02*
X6579D01*
X6516Y4579*
Y4441*
X6816Y3142D02*
Y3267D01*
X6904Y3354*
X7066*
X6816Y3542D02*
X6716D01*
X6917Y3142D02*
X6816D01*
X6917Y3542D02*
X6816D01*
X7016Y2142D02*
Y1841D01*
X7066Y3354D02*
X7179D01*
X7242Y3292*
Y2792*
X7191Y2742*
X7016*
X7066Y3542D02*
X6966Y3642D01*
X6516*
D02*
D133*
X3817Y3142D03*
X4717Y4441D03*
X5117Y4242D03*
X5517Y3642D03*
Y4441D03*
X5917Y3842D03*
Y4242D03*
X6316Y4441D03*
X6716Y4242D03*
X6917Y3542D03*
X0Y0D02*
M02*
