%FSLAX23Y23*%
%MOIN*%
G04 EasyPC Gerber Version 14.0.2 Build 2922 *
%ADD99R,0.07000X0.07000*%
%ADD14R,0.07000X0.07000*%
%ADD20R,0.07500X0.07500*%
%ADD17R,0.09000X0.09000*%
%ADD95R,0.11000X0.11000*%
%ADD19C,0.07000*%
%ADD97C,0.07500*%
%ADD21C,0.08000*%
%ADD96C,0.09000*%
%ADD11C,0.09500*%
%ADD70C,0.11000*%
%ADD93C,0.12000*%
%ADD18C,0.15000*%
%ADD22C,0.16000*%
%ADD98R,0.07000X0.07000*%
%ADD92C,0.26000*%
X0Y0D02*
D02*
D11*
X1716Y4441D03*
Y4642D03*
X1816Y1741D03*
Y3504D03*
X2117D03*
Y4542D03*
X2217Y1641D03*
Y1841D03*
X2317Y3504D03*
X2517Y4542D03*
X2717Y3504D03*
X4316Y1142D03*
Y1341D03*
Y1641D03*
Y1841D03*
Y2342D03*
Y2542D03*
Y2842D03*
Y3042D03*
X4517Y3742D03*
Y4042D03*
Y4642D03*
X4717Y1242D03*
Y1741D03*
Y2442D03*
Y2942D03*
Y3392D03*
X5117Y3742D03*
Y4042D03*
Y4642D03*
X5316Y4042D03*
Y4642D03*
X5917Y4042D03*
Y4642D03*
X6117Y1841D03*
Y3242D03*
Y3842D03*
Y4042D03*
Y4642D03*
X6316Y1441D03*
Y1641D03*
Y2642D03*
Y2842D03*
Y3442D03*
Y3642D03*
X6716Y1542D03*
Y1841D03*
Y2742D03*
Y3542D03*
Y4042D03*
Y4642D03*
X7016Y1841D03*
Y2142D03*
Y2742D03*
D02*
D14*
X1316Y1341D03*
Y1441D03*
Y1741D03*
Y1841D03*
Y1941D03*
Y2041D03*
Y2142D03*
Y2442D03*
Y2542D03*
X1417Y1341D03*
Y1441D03*
Y1741D03*
Y1841D03*
Y1941D03*
Y2041D03*
Y2142D03*
Y2442D03*
Y2542D03*
X1516Y1341D03*
Y1441D03*
Y2442D03*
Y2542D03*
X1616Y1341D03*
Y1441D03*
Y2442D03*
Y2542D03*
X1716Y1341D03*
Y1441D03*
Y2442D03*
Y2542D03*
X1816Y1341D03*
Y1441D03*
Y2442D03*
Y2542D03*
X1916Y1341D03*
Y1441D03*
Y2442D03*
Y2542D03*
X2017Y1341D03*
Y1441D03*
Y2442D03*
Y2542D03*
X2117Y1341D03*
Y1441D03*
Y2442D03*
Y2542D03*
X2217Y1341D03*
Y1441D03*
Y2442D03*
Y2542D03*
X2317Y1341D03*
Y1441D03*
Y2442D03*
Y2542D03*
X2417Y1341D03*
Y1441D03*
Y2442D03*
Y2542D03*
X2517Y1341D03*
Y1441D03*
Y2442D03*
Y2542D03*
X2617Y1341D03*
Y1441D03*
Y2442D03*
Y2542D03*
X2717Y1341D03*
Y1441D03*
Y2442D03*
Y2542D03*
X2817Y1341D03*
Y1441D03*
Y2442D03*
Y2542D03*
X2917Y1341D03*
Y1441D03*
Y2442D03*
Y2542D03*
X3017Y1341D03*
Y1441D03*
Y2442D03*
Y2542D03*
X3117Y1341D03*
Y1441D03*
Y2442D03*
Y2542D03*
X3217Y1341D03*
Y1441D03*
Y2442D03*
Y2542D03*
X3317Y1341D03*
Y1441D03*
Y2442D03*
Y2542D03*
X3417Y1341D03*
Y1441D03*
Y2442D03*
Y2542D03*
X3517Y1341D03*
Y1441D03*
Y2442D03*
Y2542D03*
X3617Y1341D03*
Y1441D03*
Y2442D03*
Y2542D03*
X3717Y1341D03*
Y1441D03*
Y2442D03*
Y2542D03*
D02*
D17*
X2317Y4542D03*
X4917Y3392D03*
D02*
D18*
X1229Y3304D03*
Y3704D03*
X4816Y1492D03*
Y2742D03*
X4987Y1391D03*
Y1641D03*
Y2642D03*
Y2892D03*
X5132Y1192D03*
Y1841D03*
Y2442D03*
Y3092D03*
X5367Y1117D03*
Y1916D03*
Y2367D03*
Y3167D03*
X5602Y1192D03*
Y1841D03*
Y2442D03*
Y3092D03*
X5747Y1641D03*
Y2892D03*
X5917Y1492D03*
Y2742D03*
X7066Y1542D03*
Y2942D03*
Y3142D03*
Y3354D03*
Y3542D03*
Y3742D03*
D02*
D19*
X1716Y3842D03*
Y3942D03*
Y4042D03*
Y4142D03*
X2017Y3842D03*
Y3942D03*
Y4042D03*
Y4142D03*
X2317Y1741D03*
Y2041D03*
X2417Y1741D03*
Y2041D03*
X2517Y1741D03*
Y2041D03*
X2617Y1741D03*
Y2041D03*
X2817Y1741D03*
Y2041D03*
X2917Y1741D03*
Y2041D03*
X3017Y1741D03*
Y2041D03*
X3117Y1741D03*
Y2041D03*
X3217Y1741D03*
Y2041D03*
X3317Y1741D03*
Y2041D03*
X3417Y1741D03*
Y2041D03*
X3517Y1741D03*
Y2041D03*
X3617Y1741D03*
Y2041D03*
X3717Y1741D03*
Y2041D03*
D02*
D70*
X6516Y3842D03*
X6716D03*
D02*
D20*
X3417Y3142D03*
X4117Y1142D03*
Y1242D03*
Y1341D03*
Y2342D03*
Y2442D03*
X4717Y4242D03*
X5117Y4441D03*
X5517Y3842D03*
Y4242D03*
X5917Y3642D03*
Y4441D03*
X6316Y4242D03*
X6716Y4441D03*
X6917Y3142D03*
D02*
D21*
X3817D03*
X4717Y4441D03*
X5117Y4242D03*
X5517Y3642D03*
Y4441D03*
X5917Y3842D03*
Y4242D03*
X6316Y4441D03*
X6716Y4242D03*
X6917Y3542D03*
D02*
D22*
X1204Y1117D03*
Y4667D03*
X2017Y1741D03*
X5367Y1516D03*
Y2767D03*
X7117Y1117D03*
Y4667D03*
D02*
D92*
X2517Y3042D03*
D02*
D93*
X3017Y3542D03*
Y4441D03*
X3217Y3542D03*
Y4441D03*
X3417Y3542D03*
Y4441D03*
X3617Y3542D03*
Y4441D03*
X3817Y3542D03*
Y4441D03*
X4017Y3542D03*
Y4441D03*
X4217Y3542D03*
Y4441D03*
D02*
D95*
X1479Y3504D03*
X1629D03*
D02*
D96*
X1716Y2942D03*
Y3042D03*
Y3142D03*
X2217Y3842D03*
Y3942D03*
Y4042D03*
X2517Y3842D03*
Y3942D03*
Y4042D03*
D02*
D97*
X1217Y4242D03*
X1316Y4042D03*
X1417Y2942D03*
Y3142D03*
X1516Y4042D03*
X1616Y2942D03*
Y3142D03*
Y4242D03*
X1716D03*
X1916Y1142D03*
X2117D03*
Y4242D03*
X2317Y1142D03*
Y2142D03*
Y2242D03*
Y2342D03*
Y2642D03*
X2417Y1641D03*
X2617Y1142D03*
Y1542D03*
Y1641D03*
X2717D03*
Y2041D03*
Y2142D03*
Y2242D03*
Y2342D03*
Y2642D03*
X2917D03*
Y2742D03*
X3017Y1542D03*
X3117Y3042D03*
X3317Y1142D03*
Y2642D03*
Y2742D03*
X3417Y2942D03*
X3542Y2779D03*
X3617Y2704D03*
X3692Y2779D03*
X3717Y1142D03*
X3817Y2942D03*
X4017Y1492D03*
Y2742D03*
Y3142D03*
X4117Y1841D03*
Y2142D03*
X4417Y1492D03*
X5217Y2041D03*
Y2242D03*
Y3342D03*
X5617Y2041D03*
Y2242D03*
Y3342D03*
X5816Y1142D03*
X5917Y1641D03*
Y2041D03*
Y2242D03*
Y2642D03*
X6117Y2242D03*
Y2642D03*
X6217Y1142D03*
X6316D03*
Y1991D03*
Y2142D03*
Y2292D03*
Y2442D03*
Y3042D03*
Y3242D03*
X6716Y1142D03*
Y1991D03*
Y2142D03*
Y2292D03*
Y2442D03*
Y3042D03*
Y3242D03*
X6816Y3142D03*
Y3542D03*
D02*
D98*
X2417Y1142D03*
X2717D03*
D02*
D99*
X3117Y3142D03*
X4117Y1741D03*
Y2041D03*
X0Y0D02*
M02*
